<svg width="514" height="523" viewBox="0 0 514 523" fill="none" xmlns="http://www.w3.org/2000/svg">
<path d="M169.939 118.554C169.939 118.554 107.56 155.164 78.7654 207.464C49.9711 259.764 56.9409 324.093 99.387 369.625C141.833 415.157 216.25 404.143 280.994 430.638C345.737 457.133 414.459 446.537 439.686 380.305C464.913 314.072 418.591 292.817 405.813 218.813C393.035 144.808 317.765 39.9467 169.939 118.554Z" fill="#06D6A0"/>
<path opacity="0.7" d="M169.939 118.554C169.939 118.554 107.56 155.164 78.7654 207.464C49.9711 259.764 56.9409 324.093 99.387 369.625C141.833 415.157 216.25 404.143 280.994 430.638C345.737 457.133 414.459 446.537 439.686 380.305C464.913 314.072 418.591 292.817 405.813 218.813C393.035 144.808 317.765 39.9467 169.939 118.554Z" fill="white"/>
<path d="M221.801 141.116H159.607V225.497H221.801V141.116Z" fill="#B5B5B5"/>
<path d="M216.096 148.846H165.302V217.756H216.096V148.846Z" fill="#06D6A0"/>
<path opacity="0.5" d="M216.096 148.846H165.302V217.756H216.096V148.846Z" fill="white"/>
<path d="M144.054 190.341H91.1836V262.065H144.054V190.341Z" fill="#B5B5B5"/>
<path d="M139.212 196.909H96.0358V255.485H139.212V196.909Z" fill="#06D6A0"/>
<path opacity="0.5" d="M139.212 196.909H96.0358V255.485H139.212V196.909Z" fill="white"/>
<path d="M309.099 353.182H439.172V140.99H309.099V353.182ZM376.947 302.158H434.032V297.064H376.968V249.659H434.052V244.513H376.968V198.144H434.052V192.997H376.968V146.137H434.423V348.015H376.968L376.947 302.158ZM313.848 146.137H372.218V192.997H313.848V146.137ZM313.848 198.144H372.218V244.513H313.848V198.144ZM313.848 249.659H372.218V297.064H313.848V249.659ZM313.848 302.158H372.218V348.036H313.848V302.158Z" fill="#B5B5B5"/>
<path d="M438.73 136.126C437.244 119.626 429.751 104.287 417.723 93.118C405.694 81.9492 389.998 75.7573 373.714 75.7573C357.43 75.7573 341.734 81.9492 329.705 93.118C317.677 104.287 310.184 119.626 308.698 136.126L308.39 139.599H439.038L438.73 136.126ZM315.37 133.239C317.038 121.379 322.178 110.306 330.122 101.462L366.801 133.208L315.37 133.239ZM369.957 127.612L334.604 97.0165C344.441 88.2175 356.882 83.0089 369.957 82.2156V127.612ZM376.248 82.1424C388.569 82.6095 400.434 86.9998 410.172 94.6944L376.248 127.12V82.1424ZM379.013 133.239L414.901 98.9307C424.215 108.115 430.277 120.179 432.14 133.239H379.013Z" fill="#B5B5B5"/>
<path d="M261.019 207.432C261.019 207.432 241.313 208.614 230.776 208.415C220.239 208.217 212.632 205.644 209.907 210.403C207.183 215.162 206.823 213.185 202.29 221.721C197.756 230.256 155.917 269.293 155.053 275.443C153.686 285.15 163.565 292.085 169.024 293.476C174.482 294.867 204.13 264.69 204.13 264.69C204.13 264.69 201.118 313.852 200.152 334.082C199.185 354.312 198.589 413.693 198.589 413.693H299.652C299.652 413.693 297.699 365.65 297.894 355.922C298.089 346.195 309.202 298.392 309.202 298.392C309.202 298.392 308.421 317.22 310.96 324.793C313.499 332.366 330.348 349.803 340.104 346.226C349.859 342.649 344.904 327.576 343.732 317.053C342.56 306.53 342.56 276.154 342.56 256.103C342.56 236.051 343.732 232.045 336.906 229.702C330.081 227.359 316.809 224.545 306.663 220.57C296.516 216.595 280.716 212.035 277.981 211.041C275.247 210.047 261.019 207.432 261.019 207.432Z" fill="#263238" stroke="#263238" stroke-linecap="round" stroke-linejoin="round"/>
<path d="M77.8916 413.693H436.108" stroke="#263238" stroke-linecap="round" stroke-linejoin="round"/>
<path d="M267.064 201.271C267.064 201.271 260.629 200.874 255.17 207.234C249.711 213.593 236.666 235.423 234.682 238.195C232.698 240.967 236.44 239.586 240.141 239.189C243.842 238.791 254.975 237.201 257.504 238.195C260.033 239.189 270.58 240.381 274.877 245.151C279.174 249.921 288.724 260.632 290.091 257.849C291.459 255.067 294.769 242.369 296.331 233.791C297.894 225.214 299.066 216.721 292.63 208.175C286.195 199.629 267.064 201.271 267.064 201.271Z" fill="#06D6A0" stroke="#263238" stroke-linecap="round" stroke-linejoin="round"/>
<path d="M265.902 191.742C265.329 200.093 262.994 208.22 259.056 215.57C252.425 228.269 255.551 252.295 258.861 251.134C262.171 249.973 282.289 236.396 285.023 228.666C287.758 220.936 287.162 209.409 292.045 197.108C296.928 184.807 300.042 177.82 300.042 177.82C300.042 177.82 270.971 191.345 265.902 191.742Z" fill="#D9D9D9"/>
<mask id="mask0_6_124" style="mask-type:luminance" maskUnits="userSpaceOnUse" x="255" y="177" width="46" height="75">
<path d="M265.902 191.742C265.329 200.093 262.994 208.22 259.056 215.57C252.425 228.269 255.551 252.295 258.861 251.134C262.171 249.973 282.289 236.396 285.023 228.666C287.758 220.936 287.162 209.409 292.045 197.108C296.928 184.807 300.042 177.82 300.042 177.82C300.042 177.82 270.971 191.345 265.902 191.742Z" fill="white"/>
</mask>
<g mask="url(#mask0_6_124)">
<path opacity="0.15" d="M265.902 191.742C265.644 196.185 264.825 200.576 263.466 204.807C266.344 205.665 269.341 206.043 272.338 205.926C282.906 205.926 283.995 204.075 283.995 204.075C283.995 204.075 281.806 220.016 279.256 227.798C277.786 232.306 275.699 237.306 274.198 240.726C279.236 236.616 283.81 232.086 285.023 228.666C287.747 220.926 287.162 209.409 292.045 197.108C296.928 184.807 300.042 177.82 300.042 177.82C300.042 177.82 270.971 191.345 265.902 191.742Z" fill="black"/>
</g>
<path d="M265.902 191.742C265.329 200.093 262.994 208.22 259.056 215.57C252.425 228.269 255.551 252.295 258.861 251.134C262.171 249.973 282.289 236.396 285.023 228.666C287.758 220.936 287.162 209.409 292.045 197.108C296.928 184.807 300.042 177.82 300.042 177.82C300.042 177.82 270.971 191.345 265.902 191.742Z" stroke="#263238" stroke-linecap="round" stroke-linejoin="round"/>
<path d="M278.588 106.577C271.361 111.446 265.51 118.153 261.616 126.033C255.376 138.94 255.766 156.011 255.766 156.011C255.766 156.011 256.352 175.069 255.376 182.611C254.399 190.152 263.6 195.518 267.856 195.717C272.112 195.916 285.414 186.983 291.664 184.399C297.914 181.816 299.662 181.418 305.707 175.268C311.751 169.117 322.103 150.446 322.689 139.934C323.275 129.422 321.507 117.152 312.512 109.757C303.517 102.362 291.459 100.029 278.588 106.577Z" fill="#D9D9D9"/>
<mask id="mask1_6_124" style="mask-type:luminance" maskUnits="userSpaceOnUse" x="255" y="102" width="68" height="94">
<path d="M278.588 106.577C271.361 111.446 265.51 118.153 261.616 126.033C255.376 138.94 255.766 156.011 255.766 156.011C255.766 156.011 256.352 175.069 255.376 182.611C254.399 190.152 263.6 195.518 267.856 195.717C272.112 195.916 285.414 186.983 291.664 184.399C297.914 181.816 299.662 181.418 305.707 175.268C311.751 169.117 322.103 150.446 322.689 139.934C323.275 129.422 321.507 117.152 312.512 109.757C303.517 102.362 291.459 100.029 278.588 106.577Z" fill="white"/>
</mask>
<g mask="url(#mask1_6_124)">
<path opacity="0.15" d="M263.476 194.42C264.841 195.124 266.323 195.564 267.845 195.717C272.142 195.916 285.404 186.983 291.654 184.399C297.904 181.816 299.652 181.418 305.696 175.268C311.741 169.117 322.093 150.446 322.679 139.934C323.1 133.991 322.442 128.02 320.736 122.319C315.89 124.156 311.626 127.298 308.4 131.409C301.111 140.677 308.4 148.145 302.232 158.103C296.064 168.061 286.185 173.636 278.896 181.46C271.608 189.284 273.355 194.221 263.476 194.42Z" fill="black"/>
</g>
<path d="M278.588 106.577C271.361 111.446 265.51 118.153 261.616 126.033C255.376 138.94 255.766 156.011 255.766 156.011C255.766 156.011 256.352 175.069 255.376 182.611C254.399 190.152 263.6 195.518 267.856 195.717C272.112 195.916 285.414 186.983 291.664 184.399C297.914 181.816 299.662 181.418 305.707 175.268C311.751 169.117 322.103 150.446 322.689 139.934C323.275 129.422 321.507 117.152 312.512 109.757C303.517 102.362 291.459 100.029 278.588 106.577Z" stroke="#263238" stroke-linecap="round" stroke-linejoin="round"/>
<path d="M270.971 150.551C270.971 150.551 268.236 151.942 268.236 153.532C268.236 155.122 270.189 155.509 270.189 155.509" stroke="#263238" stroke-linecap="round" stroke-linejoin="round"/>
<path d="M272.338 151.147C272.338 151.147 269.603 154.285 270.971 156.304C272.338 158.323 276.429 156.9 276.429 156.9C276.429 156.9 276.234 157.894 278.578 158.092C280.922 158.291 282.289 155.31 280.922 153.333L279.554 151.346" stroke="#263238" stroke-linecap="round" stroke-linejoin="round"/>
<path d="M274.342 140.342C273.869 141.775 272.944 142.758 272.286 142.528C271.628 142.298 271.443 140.949 271.906 139.516C272.369 138.083 273.294 137.099 273.962 137.329C274.63 137.559 274.805 138.909 274.342 140.342Z" fill="#263238" stroke="#263238" stroke-linecap="round" stroke-linejoin="round"/>
<path d="M274.682 137.842C274.534 137.472 274.314 137.135 274.036 136.853C273.757 136.572 273.426 136.35 273.061 136.201C272.696 136.053 272.306 135.981 271.913 135.99C271.52 135.998 271.133 136.088 270.775 136.252C268.041 137.444 266.663 144.4 269.603 145.781" stroke="#263238" stroke-linecap="round" stroke-linejoin="round"/>
<path d="M290.729 145.101C290.256 146.545 289.331 147.517 288.673 147.298C288.015 147.078 287.83 145.718 288.292 144.285C288.755 142.852 289.69 141.869 290.348 142.099C291.006 142.329 291.191 143.668 290.729 145.101Z" fill="#263238" stroke="#263238" stroke-linecap="round" stroke-linejoin="round"/>
<path d="M291.068 142.612C290.921 142.24 290.702 141.903 290.424 141.62C290.146 141.338 289.814 141.115 289.449 140.967C289.084 140.818 288.693 140.746 288.3 140.756C287.907 140.765 287.519 140.856 287.162 141.022C284.437 142.214 283.05 149.16 285.99 150.551" stroke="#263238" stroke-linecap="round" stroke-linejoin="round"/>
<path d="M266.098 168.72C264.926 168.124 259.848 164.944 260.043 162.956C260.238 160.969 262.191 158.197 264.155 159.975C266.118 161.753 271.176 165.54 271.176 165.54C271.176 165.54 274.106 169.117 279.565 166.586" stroke="#263238" stroke-linecap="round" stroke-linejoin="round"/>
<path d="M266.488 131.388C266.488 131.388 269.017 126.43 272.533 126.033C276.049 125.635 277.796 129.61 277.796 130.217" stroke="#263238" stroke-width="4" stroke-linecap="round" stroke-linejoin="round"/>
<path d="M285.99 133.972C285.99 133.972 289.505 138.344 297.298 138.741" stroke="#263238" stroke-width="4" stroke-linecap="round" stroke-linejoin="round"/>
<path d="M322.679 139.934C323.255 129.411 321.507 117.1 312.533 109.757C303.558 102.414 291.459 100.029 278.609 106.619C278.609 106.619 277.663 107.194 276.182 108.334C278.143 110.91 280.597 113.055 283.396 114.637C286.195 116.219 289.281 117.207 292.466 117.539C304.555 118.93 308.462 116.493 311.998 119.129C315.534 121.765 316.48 128.857 313.941 131.231C311.402 133.606 305.357 133.417 304.966 136.995C304.576 140.572 310.631 149.107 309.849 151.879C309.068 154.651 307.506 156.45 308.678 157.643C309.849 158.835 313.17 157.245 313.941 156.848C314.712 156.45 314.311 161.262 312.029 166.858C317.107 158.563 322.268 147.266 322.679 139.934Z" fill="#263238" stroke="#263238" stroke-linecap="round" stroke-linejoin="round"/>
<path d="M306.282 161.764C306.282 161.764 311.165 155.216 314.671 155.216C318.176 155.216 319.944 160.969 317.991 166.335C316.038 171.701 312.533 174.473 308.236 174.87C303.938 175.268 303.558 173.082 303.949 171.732" fill="#D9D9D9"/>
<path d="M306.282 161.764C306.282 161.764 311.165 155.216 314.671 155.216C318.176 155.216 319.944 160.969 317.991 166.335C316.038 171.701 312.533 174.473 308.236 174.87C303.938 175.268 303.558 173.082 303.949 171.732" stroke="#263238" stroke-linecap="round" stroke-linejoin="round"/>
<path d="M303.949 281.876C303.949 281.876 309.407 295.966 313.314 300.704C317.22 305.442 327.706 313.204 336.526 319.166C345.346 325.128 347.063 338.423 345.696 343.381C344.329 348.339 340.237 352.314 331.067 349.741C321.898 347.167 314.476 336.038 306.868 324.522C299.261 313.005 294.193 304.47 293.607 303.873C293.021 303.277 303.949 281.876 303.949 281.876Z" fill="#D9D9D9"/>
<mask id="mask2_6_124" style="mask-type:luminance" maskUnits="userSpaceOnUse" x="293" y="281" width="54" height="70">
<path d="M303.949 281.876C303.949 281.876 309.407 295.966 313.314 300.704C317.22 305.442 327.706 313.204 336.526 319.166C345.346 325.128 347.063 338.423 345.696 343.381C344.329 348.339 340.237 352.314 331.067 349.741C321.898 347.167 314.476 336.038 306.868 324.522C299.261 313.005 294.193 304.47 293.607 303.873C293.021 303.277 303.949 281.876 303.949 281.876Z" fill="white"/>
</mask>
<g mask="url(#mask2_6_124)">
<path opacity="0.15" d="M345.696 343.412C347.063 338.454 345.305 325.149 336.526 319.197C327.747 313.245 317.21 305.495 313.314 300.735C309.418 295.976 303.949 281.907 303.949 281.907C303.949 281.907 292.98 303.34 293.607 303.905C294.234 304.469 299.261 313.036 306.868 324.553L307.136 324.961L312.42 316.77C312.42 316.77 340.834 339.019 341.563 344.207C341.759 345.885 341.759 347.581 341.563 349.259C343.64 347.936 345.124 345.837 345.696 343.412Z" fill="black"/>
</g>
<path d="M303.949 281.876C303.949 281.876 309.407 295.966 313.314 300.704C317.22 305.442 327.706 313.204 336.526 319.166C345.346 325.128 347.063 338.423 345.696 343.381C344.329 348.339 340.237 352.314 331.067 349.741C321.898 347.167 314.476 336.038 306.868 324.522C299.261 313.005 294.193 304.47 293.607 303.873C293.021 303.277 303.949 281.876 303.949 281.876Z" stroke="#263238" stroke-linecap="round" stroke-linejoin="round"/>
<path d="M309.798 435.136C309.798 435.136 314.887 437.029 325.413 432.866C340.412 426.946 364.333 406.894 364.333 406.894C352.777 409.02 340.938 409.02 329.381 406.894C310.045 403.359 299.641 398.066 299.641 398.066L279.308 427.594L309.798 435.136Z" fill="white"/>
<mask id="mask3_6_124" style="mask-type:luminance" maskUnits="userSpaceOnUse" x="279" y="398" width="86" height="38">
<path d="M309.798 435.136C309.798 435.136 314.887 437.029 325.413 432.866C340.412 426.946 364.333 406.894 364.333 406.894C352.777 409.02 340.938 409.02 329.381 406.894C310.045 403.359 299.641 398.066 299.641 398.066L279.308 427.594L309.798 435.136Z" fill="white"/>
</mask>
<g mask="url(#mask3_6_124)">
<path d="M309.798 435.136C309.798 435.136 314.887 437.029 325.413 432.866C340.412 426.946 364.333 406.894 364.333 406.894C352.777 409.02 340.938 409.02 329.381 406.894C310.045 403.359 299.641 398.066 299.641 398.066L279.308 427.594L309.798 435.136Z" fill="#06D6A0"/>
<path opacity="0.5" d="M309.798 435.136C309.798 435.136 314.887 437.029 325.413 432.866C340.412 426.946 364.333 406.894 364.333 406.894C352.777 409.02 340.938 409.02 329.381 406.894C310.045 403.359 299.641 398.066 299.641 398.066L279.308 427.594L309.798 435.136Z" fill="white"/>
</g>
<path d="M309.798 435.136C309.798 435.136 314.887 437.029 325.413 432.866C340.412 426.946 364.333 406.894 364.333 406.894C352.777 409.02 340.938 409.02 329.381 406.894C310.045 403.359 299.641 398.066 299.641 398.066L279.308 427.594L309.798 435.136Z" stroke="#263238" stroke-linecap="round" stroke-linejoin="round"/>
<path d="M282.309 424.551L321.456 431.234" stroke="#263238" stroke-linecap="round" stroke-linejoin="round"/>
<path d="M326.883 427.751L288.025 420.482" stroke="#263238" stroke-linecap="round" stroke-linejoin="round"/>
<path d="M330.882 424.258L297.452 418.149" stroke="#263238" stroke-linecap="round" stroke-linejoin="round"/>
<path d="M336.598 419.896L304.884 413.798" stroke="#263238" stroke-linecap="round" stroke-linejoin="round"/>
<path d="M338.603 416.12L308.595 410.89" stroke="#263238" stroke-linecap="round" stroke-linejoin="round"/>
<path d="M326.657 382.7C326.657 382.7 334.778 381.372 330.317 393.735C325.855 406.099 311.289 416.998 309.551 425.827C307.814 434.655 309.798 435.157 309.798 435.157L284.52 429.613C284.52 429.613 286.504 410.44 300.382 395.817C314.26 381.194 326.657 382.7 326.657 382.7Z" fill="white"/>
<mask id="mask4_6_124" style="mask-type:luminance" maskUnits="userSpaceOnUse" x="284" y="382" width="48" height="54">
<path d="M326.657 382.7C326.657 382.7 334.778 381.372 330.317 393.735C325.855 406.099 311.289 416.998 309.551 425.827C307.814 434.655 309.798 435.157 309.798 435.157L284.52 429.613C284.52 429.613 286.504 410.44 300.382 395.817C314.26 381.194 326.657 382.7 326.657 382.7Z" fill="white"/>
</mask>
<g mask="url(#mask4_6_124)">
<path opacity="0.15" d="M326.657 382.7C326.657 382.7 334.778 381.372 330.317 393.735C325.855 406.099 311.289 416.998 309.551 425.827C307.814 434.655 309.798 435.157 309.798 435.157L284.52 429.613C284.52 429.613 286.504 410.44 300.382 395.817C314.26 381.194 326.657 382.7 326.657 382.7Z" fill="black"/>
</g>
<path d="M326.657 382.7C326.657 382.7 334.779 381.372 330.317 393.735C325.855 406.099 311.289 416.998 309.551 425.827C307.814 434.655 309.798 435.157 309.798 435.157L284.52 429.613C284.52 429.613 286.504 410.44 300.382 395.817C314.26 381.194 326.657 382.7 326.657 382.7Z" stroke="#263238" stroke-linecap="round" stroke-linejoin="round"/>
<path d="M277.324 443.504C277.324 443.504 281.538 442.458 285.753 436.182C289.968 429.906 299.384 409.948 307.074 399.352C314.763 388.756 326.657 382.711 326.657 382.711L266.416 375.901C266.416 375.901 241.878 403.892 233.449 413.735C225.019 423.578 224.032 432.647 229.984 434.916C235.936 437.186 254.769 439.456 259.724 440.22C264.679 440.983 273.109 444.236 277.324 443.504Z" fill="white"/>
<mask id="mask5_6_124" style="mask-type:luminance" maskUnits="userSpaceOnUse" x="226" y="375" width="101" height="69">
<path d="M277.324 443.504C277.324 443.504 281.538 442.458 285.753 436.182C289.968 429.906 299.384 409.948 307.074 399.352C314.763 388.756 326.657 382.711 326.657 382.711L266.416 375.901C266.416 375.901 241.878 403.892 233.449 413.735C225.019 423.578 224.032 432.647 229.984 434.916C235.936 437.186 254.769 439.456 259.724 440.22C264.679 440.983 273.109 444.236 277.324 443.504Z" fill="white"/>
</mask>
<g mask="url(#mask5_6_124)">
<path d="M277.324 443.504C277.324 443.504 281.538 442.458 285.753 436.182C289.968 429.906 299.384 409.948 307.074 399.352C314.763 388.756 326.657 382.711 326.657 382.711L266.416 375.901C266.416 375.901 241.878 403.892 233.449 413.735C225.019 423.578 224.032 432.647 229.984 434.916C235.936 437.186 254.769 439.456 259.724 440.22C264.679 440.983 273.109 444.236 277.324 443.504Z" fill="#06D6A0"/>
<path opacity="0.5" d="M277.324 443.504C277.324 443.504 281.538 442.458 285.753 436.182C289.968 429.906 299.384 409.948 307.074 399.352C314.763 388.756 326.657 382.711 326.657 382.711L266.416 375.901C266.416 375.901 241.878 403.892 233.449 413.735C225.019 423.578 224.032 432.647 229.984 434.916C235.936 437.186 254.769 439.456 259.724 440.22C264.679 440.983 273.109 444.236 277.324 443.504Z" fill="white"/>
</g>
<path d="M277.324 443.504C277.324 443.504 281.538 442.458 285.753 436.182C289.968 429.906 299.384 409.948 307.074 399.352C314.763 388.756 326.657 382.711 326.657 382.711L266.416 375.901C266.416 375.901 241.878 403.892 233.449 413.735C225.019 423.578 224.032 432.647 229.984 434.916C235.936 437.186 254.769 439.456 259.724 440.22C264.679 440.983 273.109 444.236 277.324 443.504Z" stroke="#263238" stroke-linecap="round" stroke-linejoin="round"/>
<path d="M281.055 434.822L226.9 423.107" stroke="#263238" stroke-linecap="round" stroke-linejoin="round"/>
<path d="M284.468 427.887L230.303 416.162" stroke="#263238" stroke-linecap="round" stroke-linejoin="round"/>
<path d="M288.734 420.074L234.569 408.358" stroke="#263238" stroke-linecap="round" stroke-linejoin="round"/>
<path d="M293.432 410.524L239.267 398.808" stroke="#263238" stroke-linecap="round" stroke-linejoin="round"/>
<path d="M298.541 400.974L244.386 389.258" stroke="#263238" stroke-linecap="round" stroke-linejoin="round"/>
<path d="M302.808 393.171L248.642 381.455" stroke="#263238" stroke-linecap="round" stroke-linejoin="round"/>
<path d="M309.212 387.093L255.047 375.378" stroke="#263238" stroke-linecap="round" stroke-linejoin="round"/>
<path d="M295.427 372.376C295.427 372.376 300.382 372.376 297.657 380.451C294.933 388.526 278.814 409.739 273.612 424.08C268.411 438.42 277.324 443.504 277.324 443.504C277.324 443.504 275.34 446.527 246.34 440.23C217.34 433.933 198.754 433.159 196.996 428.117C195.238 423.076 206.659 409.457 210.874 398.61C215.088 387.763 225.749 362.293 225.749 362.293C225.749 362.293 267.897 370.661 276.81 371.372C285.722 372.083 295.427 372.376 295.427 372.376Z" fill="white"/>
<mask id="mask6_6_124" style="mask-type:luminance" maskUnits="userSpaceOnUse" x="196" y="362" width="103" height="83">
<path d="M295.427 372.376C295.427 372.376 300.382 372.376 297.657 380.451C294.933 388.526 278.814 409.739 273.612 424.08C268.411 438.42 277.324 443.504 277.324 443.504C277.324 443.504 275.34 446.527 246.34 440.23C217.34 433.933 198.754 433.159 196.996 428.117C195.238 423.076 206.659 409.457 210.874 398.61C215.088 387.763 225.749 362.293 225.749 362.293C225.749 362.293 267.897 370.661 276.81 371.372C285.722 372.083 295.427 372.376 295.427 372.376Z" fill="white"/>
</mask>
<g mask="url(#mask6_6_124)">
<path opacity="0.15" d="M295.427 372.376C295.427 372.376 285.753 372.125 276.83 371.33C267.907 370.535 225.769 362.251 225.769 362.251C225.769 362.251 215.109 387.721 210.894 398.568C209.211 402.557 207.221 406.404 204.942 410.074L272.79 426.716C273.016 425.858 273.294 424.969 273.633 424.038C278.835 409.666 294.943 388.474 297.678 380.409C300.412 372.345 295.427 372.376 295.427 372.376Z" fill="black"/>
</g>
<path d="M295.427 372.376C295.427 372.376 300.382 372.376 297.657 380.451C294.933 388.526 278.814 409.739 273.612 424.08C268.411 438.42 277.324 443.504 277.324 443.504C277.324 443.504 275.34 446.527 246.34 440.23C217.34 433.933 198.754 433.159 196.996 428.117C195.238 423.076 206.659 409.457 210.874 398.61C215.088 387.763 225.749 362.293 225.749 362.293C225.749 362.293 267.897 370.661 276.81 371.372C285.722 372.083 295.427 372.376 295.427 372.376Z" stroke="#263238" stroke-linecap="round" stroke-linejoin="round"/>
<path d="M263.939 404.384C263.939 404.384 263.939 406.402 271.382 397.323C278.824 388.244 295.427 372.376 295.427 372.376L218.83 355.483C218.83 355.483 197.016 378.411 194.292 381.937C191.568 385.462 189.573 386.476 196.769 389.761C203.965 393.045 239.945 397.083 247.584 399.091C255.222 401.099 263.939 404.384 263.939 404.384Z" fill="white"/>
<mask id="mask7_6_124" style="mask-type:luminance" maskUnits="userSpaceOnUse" x="191" y="355" width="105" height="50">
<path d="M263.939 404.384C263.939 404.384 263.939 406.402 271.382 397.323C278.824 388.244 295.427 372.376 295.427 372.376L218.83 355.483C218.83 355.483 197.016 378.411 194.292 381.937C191.568 385.462 189.573 386.476 196.769 389.761C203.965 393.045 239.945 397.083 247.584 399.091C255.222 401.099 263.939 404.384 263.939 404.384Z" fill="white"/>
</mask>
<g mask="url(#mask7_6_124)">
<path d="M263.939 404.384C263.939 404.384 263.939 406.402 271.382 397.323C278.824 388.244 295.427 372.376 295.427 372.376L218.83 355.483C218.83 355.483 197.016 378.411 194.292 381.937C191.568 385.462 189.573 386.476 196.769 389.761C203.965 393.045 239.945 397.083 247.584 399.091C255.222 401.099 263.939 404.384 263.939 404.384Z" fill="#06D6A0"/>
<path opacity="0.5" d="M263.939 404.384C263.939 404.384 263.939 406.402 271.382 397.323C278.824 388.244 295.427 372.376 295.427 372.376L218.83 355.483C218.83 355.483 197.016 378.411 194.292 381.937C191.568 385.462 189.573 386.476 196.769 389.761C203.965 393.045 239.945 397.083 247.584 399.091C255.222 401.099 263.939 404.384 263.939 404.384Z" fill="white"/>
</g>
<path d="M263.939 404.384C263.939 404.384 263.939 406.402 271.382 397.323C278.824 388.244 295.427 372.376 295.427 372.376L218.83 355.483C218.83 355.483 197.016 378.411 194.292 381.937C191.568 385.462 189.573 386.476 196.769 389.761C203.965 393.045 239.945 397.083 247.584 399.091C255.222 401.099 263.939 404.384 263.939 404.384Z" stroke="#263238" stroke-linecap="round" stroke-linejoin="round"/>
<path d="M269.737 396.35C269.737 396.35 223.477 390.827 210.586 388.202" stroke="#263238" stroke-linecap="round" stroke-linejoin="round"/>
<path d="M273.736 388.788C273.736 388.788 246.299 385.88 234.867 383.558" stroke="#263238" stroke-linecap="round" stroke-linejoin="round"/>
<path d="M279.739 380.932C279.739 380.932 246.021 374.834 237.447 372.502" stroke="#263238" stroke-linecap="round" stroke-linejoin="round"/>
<path d="M285.167 374.834L244.87 365.232" stroke="#263238" stroke-linecap="round" stroke-linejoin="round"/>
<path d="M293.412 275.098C293.412 275.098 291.705 280.778 289.228 299.7C286.75 318.622 283.06 340.306 278.074 356.445C273.088 372.585 263.446 396.047 262.705 399.07C262.503 399.99 262.509 400.944 262.723 401.861C262.936 402.778 263.352 403.633 263.939 404.363C263.939 404.363 254.276 402.856 227.003 399.823C199.73 396.79 172.971 383.181 173.711 381.413C174.452 379.646 192.308 361.738 202.495 338.527C212.683 315.317 228.524 257.055 228.524 257.055C228.524 257.055 260.752 272.441 270.415 273.456C280.079 274.47 293.412 275.098 293.412 275.098Z" fill="white"/>
<mask id="mask8_6_124" style="mask-type:luminance" maskUnits="userSpaceOnUse" x="173" y="257" width="121" height="148">
<path d="M293.412 275.098C293.412 275.098 291.705 280.778 289.228 299.7C286.75 318.622 283.06 340.306 278.074 356.445C273.088 372.585 263.446 396.047 262.705 399.07C262.503 399.99 262.509 400.944 262.723 401.861C262.936 402.778 263.352 403.633 263.939 404.363C263.939 404.363 254.276 402.856 227.003 399.823C199.73 396.79 172.971 383.181 173.711 381.413C174.452 379.646 192.308 361.738 202.495 338.527C212.683 315.317 228.524 257.055 228.524 257.055C228.524 257.055 260.752 272.441 270.415 273.456C280.079 274.47 293.412 275.098 293.412 275.098Z" fill="white"/>
</mask>
<g mask="url(#mask8_6_124)">
<path opacity="0.15" d="M289.228 299.721C291.705 280.799 293.412 275.119 293.412 275.119C293.412 275.119 280.048 274.491 270.385 273.487C260.721 272.483 228.494 257.086 228.494 257.086C228.494 257.086 217.134 298.811 207.481 325.703L280.644 347.377C284.395 331.671 287.261 315.759 289.228 299.721Z" fill="black"/>
</g>
<path d="M293.412 275.098C293.412 275.098 291.705 280.778 289.228 299.7C286.75 318.622 283.06 340.306 278.074 356.445C273.088 372.585 263.446 396.047 262.705 399.07C262.503 399.99 262.509 400.944 262.723 401.861C262.936 402.778 263.352 403.633 263.939 404.363C263.939 404.363 254.276 402.856 227.003 399.823C199.73 396.79 172.971 383.181 173.711 381.413C174.452 379.646 192.308 361.738 202.495 338.527C212.683 315.317 228.524 257.055 228.524 257.055C228.524 257.055 260.752 272.441 270.415 273.456C280.079 274.47 293.412 275.098 293.412 275.098Z" stroke="#263238" stroke-linecap="round" stroke-linejoin="round"/>
<path d="M299.847 263.812C299.847 263.812 304.72 264.994 306.087 272.745C307.454 280.495 307.259 299.742 306.673 302.127C306.087 304.512 289.896 306.687 282.875 307.524C275.854 308.361 279.554 305.735 282.679 294.418C285.805 283.1 289.115 274.763 290.677 272.389C292.24 270.014 295.55 261.427 299.847 263.812Z" fill="#D9D9D9" stroke="#263238" stroke-linecap="round" stroke-linejoin="round"/>
<path opacity="0.15" d="M294.563 272.661C294.563 272.661 295.848 300.359 296.383 303.424C296.917 306.488 278.526 307.88 278.526 307.88L289.834 275.621" fill="black"/>
<path d="M294.964 313.8C294.964 313.8 288.333 318.57 285.99 319.762C283.646 320.955 271.166 315.787 270.775 313.999C270.385 312.21 272.924 312.608 276.429 312.953C279.935 313.298 285.99 314.344 288.529 313.35C291.068 312.357 295.55 311.457 294.964 313.8Z" fill="#D9D9D9" stroke="#263238" stroke-linecap="round" stroke-linejoin="round"/>
<path d="M303.558 305.495C303.558 305.495 301.41 311.457 298.675 313.235C295.941 315.013 284.828 316.813 279.945 316.373C275.062 315.934 270.971 312.796 272.142 311.018C273.314 309.239 271.947 310.223 278.578 309.229C285.208 308.235 293.412 307.639 296.917 306.447C299.06 305.742 301.307 305.42 303.558 305.495Z" fill="#D9D9D9" stroke="#263238" stroke-linecap="round" stroke-linejoin="round"/>
<path d="M304.134 293.78C304.134 293.78 296.722 297.754 290.677 300.537C288.696 301.408 286.672 302.172 284.612 302.827C282.156 303.134 279.685 303.294 277.21 303.309C272.924 303.309 270.385 302.922 270.385 304.7C270.385 307.419 275.062 308.884 277.046 309.438C283.944 311.446 292.075 308.988 299.025 307.827C300.531 307.611 301.995 307.156 303.363 306.478C306.971 304.689 307.65 300.328 307.064 297.744L306.827 297.43" fill="#D9D9D9"/>
<path d="M304.134 293.78C304.134 293.78 296.722 297.754 290.677 300.537C288.696 301.408 286.672 302.172 284.612 302.827C282.156 303.134 279.685 303.294 277.21 303.309C272.924 303.309 270.385 302.922 270.385 304.7C270.385 307.419 275.062 308.884 277.046 309.438C283.944 311.446 292.075 308.988 299.025 307.827C300.531 307.611 301.995 307.156 303.363 306.478C306.971 304.689 307.65 300.328 307.064 297.744L306.827 297.43" stroke="#263238" stroke-linecap="round" stroke-linejoin="round"/>
<path d="M293.412 275.098C293.412 275.098 288.919 288.006 283.851 303.884C280.595 314.311 277.922 324.917 275.843 335.651C275.843 335.651 272.338 333.664 246.196 324.532C220.054 315.4 187.271 304.281 187.271 304.281C187.271 304.281 211.85 274.899 217.083 260.81C222.315 246.72 225.081 249.304 237.18 254.063C249.28 258.822 266.057 267.556 275.802 268.55C285.548 269.544 293.412 273.142 293.412 275.098Z" fill="white"/>
<mask id="mask9_6_124" style="mask-type:luminance" maskUnits="userSpaceOnUse" x="187" y="250" width="107" height="86">
<path d="M293.412 275.098C293.412 275.098 288.919 288.006 283.851 303.884C280.595 314.311 277.922 324.917 275.843 335.651C275.843 335.651 272.338 333.664 246.196 324.532C220.054 315.4 187.271 304.281 187.271 304.281C187.271 304.281 211.85 274.899 217.083 260.81C222.315 246.72 225.081 249.304 237.18 254.063C249.28 258.822 266.057 267.556 275.802 268.55C285.548 269.544 293.412 273.142 293.412 275.098Z" fill="white"/>
</mask>
<g mask="url(#mask9_6_124)">
<path d="M293.412 275.098C293.412 275.098 288.919 288.006 283.851 303.884C280.595 314.311 277.922 324.917 275.843 335.651C275.843 335.651 272.338 333.664 246.196 324.532C220.054 315.4 187.271 304.281 187.271 304.281C187.271 304.281 211.85 274.899 217.083 260.81C222.315 246.72 225.081 249.304 237.18 254.063C249.28 258.822 266.057 267.556 275.802 268.55C285.548 269.544 293.412 273.142 293.412 275.098Z" fill="#06D6A0"/>
<path opacity="0.5" d="M293.412 275.098C293.412 275.098 288.919 288.006 283.851 303.884C280.595 314.311 277.922 324.917 275.843 335.651C275.843 335.651 272.338 333.664 246.196 324.532C220.054 315.4 187.271 304.281 187.271 304.281C187.271 304.281 211.85 274.899 217.083 260.81C222.315 246.72 225.081 249.304 237.18 254.063C249.28 258.822 266.057 267.556 275.802 268.55C285.548 269.544 293.412 273.142 293.412 275.098Z" fill="white"/>
</g>
<path d="M293.412 275.098C293.412 275.098 288.919 288.006 283.851 303.884C280.595 314.311 277.922 324.917 275.843 335.651C275.843 335.651 272.338 333.664 246.196 324.532C220.054 315.4 187.271 304.281 187.271 304.281C187.271 304.281 211.85 274.899 217.083 260.81C222.315 246.72 225.081 249.304 237.18 254.063C249.28 258.822 266.057 267.556 275.802 268.55C285.548 269.544 293.412 273.142 293.412 275.098Z" stroke="#263238" stroke-linecap="round" stroke-linejoin="round"/>
<path d="M274.301 317.262L208.869 294.292" stroke="#263238" stroke-linecap="round" stroke-linejoin="round"/>
<path d="M277.046 309.438L214.009 287.315" stroke="#263238" stroke-linecap="round" stroke-linejoin="round"/>
<path d="M279.739 301.562L218.584 280.046" stroke="#263238" stroke-linecap="round" stroke-linejoin="round"/>
<path d="M282.022 291.97L224.875 272.19" stroke="#263238" stroke-linecap="round" stroke-linejoin="round"/>
<path d="M283.738 282.954L230.58 263.759" stroke="#263238" stroke-linecap="round" stroke-linejoin="round"/>
<path d="M205.436 295.171C206.855 295.171 208.006 294.323 208.006 293.278C208.006 292.232 206.855 291.384 205.436 291.384C204.016 291.384 202.866 292.232 202.866 293.278C202.866 294.323 204.016 295.171 205.436 295.171Z" stroke="#263238" stroke-linecap="round" stroke-linejoin="round"/>
<path d="M210.863 288.194C212.283 288.194 213.433 287.346 213.433 286.301C213.433 285.255 212.283 284.407 210.863 284.407C209.444 284.407 208.293 285.255 208.293 286.301C208.293 287.346 209.444 288.194 210.863 288.194Z" stroke="#263238" stroke-linecap="round" stroke-linejoin="round"/>
<path d="M215.15 281.646C216.569 281.646 217.72 280.798 217.72 279.753C217.72 278.707 216.569 277.859 215.15 277.859C213.731 277.859 212.58 278.707 212.58 279.753C212.58 280.798 213.731 281.646 215.15 281.646Z" stroke="#263238" stroke-linecap="round" stroke-linejoin="round"/>
<path d="M219.725 272.63C221.144 272.63 222.295 271.782 222.295 270.736C222.295 269.691 221.144 268.843 219.725 268.843C218.305 268.843 217.155 269.691 217.155 270.736C217.155 271.782 218.305 272.63 219.725 272.63Z" stroke="#263238" stroke-linecap="round" stroke-linejoin="round"/>
<path d="M228.298 262.023C228.298 260.977 227.147 260.13 225.728 260.13C224.31 260.13 223.158 260.977 223.158 262.023C223.158 263.069 224.31 263.906 225.728 263.906C227.147 263.906 228.298 263.059 228.298 262.023Z" stroke="#263238" stroke-linecap="round" stroke-linejoin="round"/>
<path d="M299.066 269.962C299.066 269.962 293.021 280.684 289.115 282.274C285.208 283.864 273.9 282.075 274.723 279.491C275.545 276.908 281.158 276.113 284.869 271.123C288.58 266.134 291.89 259.617 295.396 260.6C298.901 261.584 301.451 265.757 301.646 267.148" fill="#D9D9D9"/>
<path d="M299.066 269.962C299.066 269.962 293.021 280.684 289.115 282.274C285.208 283.864 273.9 282.075 274.723 279.491C275.545 276.908 281.158 276.113 284.869 271.123C288.58 266.134 291.89 259.617 295.396 260.6C298.901 261.584 301.451 265.757 301.646 267.148" stroke="#263238" stroke-linecap="round" stroke-linejoin="round"/>
<path d="M198.784 197.903C198.784 197.903 199.956 218.143 199.956 218.938C199.956 219.733 167.759 253.885 160.347 261.824C152.936 269.763 152.74 276.311 154.488 281.28C156.235 286.248 162.301 293.393 167.759 294.177C173.218 294.962 179.273 289.418 184.732 277.106C190.19 264.795 209.712 227.672 211.85 223.708C213.988 219.744 219.046 216.166 219.046 216.166C219.046 216.166 224.31 213.384 226.653 209.409C228.997 205.434 233.479 197.506 238.352 193.719C243.225 189.933 245.548 188.949 243.43 187.767C241.313 186.585 234.456 189.148 232.503 190.539C230.55 191.931 226.263 195.508 226.263 195.508C226.263 195.508 222.552 189.943 222.356 185.184C222.161 180.425 223.333 173.615 220.609 175.006C217.885 176.397 213.341 186.648 207.533 192.129C202.095 197.307 198.784 194.922 198.784 197.903Z" fill="#D9D9D9"/>
<mask id="mask10_6_124" style="mask-type:luminance" maskUnits="userSpaceOnUse" x="153" y="174" width="92" height="121">
<path d="M198.784 197.903C198.784 197.903 199.956 218.143 199.956 218.938C199.956 219.733 167.759 253.885 160.347 261.824C152.936 269.763 152.74 276.311 154.488 281.28C156.235 286.248 162.301 293.393 167.759 294.177C173.218 294.962 179.273 289.418 184.732 277.106C190.19 264.795 209.712 227.672 211.85 223.708C213.988 219.744 219.046 216.166 219.046 216.166C219.046 216.166 224.31 213.384 226.653 209.409C228.997 205.434 233.479 197.506 238.352 193.719C243.225 189.933 245.548 188.949 243.43 187.767C241.313 186.585 234.456 189.148 232.503 190.539C230.55 191.931 226.263 195.508 226.263 195.508C226.263 195.508 222.552 189.943 222.356 185.184C222.161 180.425 223.333 173.615 220.609 175.006C217.885 176.397 213.341 186.648 207.533 192.129C202.095 197.307 198.784 194.922 198.784 197.903Z" fill="white"/>
</mask>
<g mask="url(#mask10_6_124)">
<path opacity="0.15" d="M243.461 187.778C241.313 186.586 234.487 189.159 232.534 190.55C230.58 191.941 226.294 195.518 226.294 195.518C226.294 195.518 222.583 189.954 222.387 185.194C222.192 180.435 223.364 173.626 220.64 175.017C217.915 176.408 213.372 186.659 207.563 192.14C206.06 193.636 204.253 194.778 202.269 195.487L201.293 199.671C201.293 199.671 205.302 202.276 205.302 205.612C205.302 208.949 210.442 210.058 210.761 213.394C211.079 216.731 208.581 220.434 206.751 222.662C204.922 224.89 175.418 276.782 167.77 283.089C164.573 285.715 160.368 285.956 156.554 285.349C159.247 289.481 163.668 293.644 167.759 294.229C173.218 295.024 179.273 289.47 184.732 277.159C190.19 264.847 209.712 227.725 211.85 223.76C213.988 219.796 219.046 216.219 219.046 216.219C219.046 216.219 224.31 213.436 226.653 209.462C228.997 205.487 233.479 197.558 238.352 193.772C243.225 189.985 245.61 188.96 243.461 187.778Z" fill="black"/>
</g>
<path d="M198.784 197.903C198.784 197.903 199.956 218.143 199.956 218.938C199.956 219.733 167.759 253.885 160.347 261.824C152.936 269.763 152.74 276.311 154.488 281.28C156.235 286.248 162.301 293.393 167.759 294.177C173.218 294.962 179.273 289.418 184.732 277.106C190.19 264.795 209.712 227.672 211.85 223.708C213.988 219.744 219.046 216.166 219.046 216.166C219.046 216.166 224.31 213.384 226.653 209.409C228.997 205.434 233.479 197.506 238.352 193.719C243.225 189.933 245.548 188.949 243.43 187.767C241.313 186.585 234.456 189.148 232.503 190.539C230.55 191.931 226.263 195.508 226.263 195.508C226.263 195.508 222.552 189.943 222.356 185.184C222.161 180.425 223.333 173.615 220.609 175.006C217.885 176.397 213.341 186.648 207.533 192.129C202.095 197.307 198.784 194.922 198.784 197.903Z" stroke="#263238" stroke-linecap="round" stroke-linejoin="round"/>
<path d="M258.871 176.063L258.963 176.22C259.111 176.484 259.205 176.775 259.241 177.076C259.276 177.377 259.253 177.683 259.171 177.975C259.09 178.266 258.953 178.539 258.767 178.777C258.581 179.014 258.351 179.211 258.09 179.358L220.999 200.278L213.824 201.878L218.728 196.135L255.818 175.215C256.334 174.92 256.944 174.843 257.515 175.001C258.087 175.16 258.574 175.541 258.871 176.063Z" fill="#06D6A0" stroke="#263238" stroke-linecap="round" stroke-linejoin="round"/>
<path d="M220.999 200.278L221.267 200.121L218.985 195.968L218.717 196.115L213.824 201.857L220.999 200.278Z" fill="white" stroke="#263238" stroke-linecap="round" stroke-linejoin="round"/>
<path d="M254.266 181.512L258.09 179.337C258.351 179.191 258.581 178.993 258.767 178.756C258.953 178.518 259.09 178.246 259.171 177.954C259.253 177.662 259.276 177.356 259.241 177.055C259.205 176.754 259.111 176.463 258.963 176.199L258.871 176.042C258.727 175.776 258.533 175.542 258.3 175.353C258.067 175.164 257.799 175.024 257.512 174.941C257.225 174.858 256.925 174.835 256.628 174.871C256.332 174.907 256.046 175.003 255.787 175.153L251.963 177.328L254.266 181.512Z" fill="white" stroke="#263238" stroke-linecap="round" stroke-linejoin="round"/>
<path d="M252.493 177.071L250.446 178.233L252.731 182.398L254.778 181.235L252.493 177.071Z" fill="white" stroke="#263238" stroke-linecap="round" stroke-linejoin="round"/>
<path d="M213.824 201.857L217.206 201.104L216.127 199.148L213.824 201.857Z" fill="white" stroke="#263238" stroke-linecap="round" stroke-linejoin="round"/>
<path d="M207.563 202.663C207.563 202.663 206.978 207.432 203.266 207.621" stroke="#263238" stroke-linecap="round" stroke-linejoin="round"/>
<path d="M218.09 178.866C218.09 178.866 224.916 189.985 227.26 192.171C229.604 194.357 232.523 193.96 233.109 191.972C233.695 189.985 229.799 185.822 228.237 180.466C226.674 175.111 226.088 173.521 222.963 174.316C219.838 175.111 218.286 176.91 218.09 178.866Z" fill="#D9D9D9" stroke="#263238" stroke-linecap="round" stroke-linejoin="round"/>
<path d="M229.018 193.133C229.018 193.133 216.733 186.784 213.999 183.604C211.264 180.425 208.149 184.598 207.563 186.742C206.978 188.887 216.538 192.893 221.02 194.483C225.502 196.073 228.216 196.669 229.604 195.079C230.992 193.489 229.018 193.133 229.018 193.133Z" fill="#D9D9D9" stroke="#263238" stroke-linecap="round" stroke-linejoin="round"/>
<path d="M208.345 188.562C208.345 188.562 204.233 189.954 203.462 191.7C202.691 193.447 204.829 194.682 208.735 197.066C212.642 199.451 218.882 200.204 220.434 199.441C221.986 198.677 222.192 197.066 220.043 196.303C217.895 195.539 210.103 189.755 208.345 188.562Z" fill="#D9D9D9" stroke="#263238" stroke-linecap="round" stroke-linejoin="round"/>
<path d="M204.829 194.723C204.829 194.723 200.347 193.531 198.98 196.115C197.612 198.698 199.175 200.299 203.852 201.669C208.53 203.039 215.561 204.054 215.757 201.47C215.952 198.886 212.046 198.489 208.735 197.108C205.425 195.728 204.829 194.723 204.829 194.723Z" fill="#D9D9D9" stroke="#263238" stroke-linecap="round" stroke-linejoin="round"/>
<path d="M95.0592 363.569C95.0592 363.569 92.8181 356.142 86.2595 353.475C81.7054 351.613 76.4729 352.105 71.7544 352.941C62.965 354.489 55.3064 358.046 46.959 361.09C46.959 361.09 50.5159 359.751 65.1135 366.989C70.49 369.656 76.6374 371.727 82.7848 371.581C87.7295 371.476 95.2956 370.043 95.0592 363.569Z" fill="#06D6A0"/>
<path d="M95.8507 341.749C95.8507 341.749 95.8507 333.977 90.2995 329.5C86.4651 326.362 81.3045 325.316 76.5552 324.72C67.6938 323.674 59.3464 324.773 50.5056 325.233C50.5056 325.233 54.2887 325.003 66.2135 336.226C70.603 340.358 75.8972 344.144 81.8288 345.818C86.5884 347.157 94.2368 348.015 95.8507 341.749Z" fill="#06D6A0"/>
<path d="M110.942 370.598C110.942 370.598 104.99 365.734 104.969 358.558C104.969 353.569 107.323 348.789 109.832 344.636C114.488 336.896 120.564 330.954 126.413 324.197C126.413 324.197 123.884 327.063 125.118 343.538C125.57 349.605 125.19 356.184 122.795 361.947C120.872 366.581 116.771 373.213 110.942 370.598Z" fill="#06D6A0"/>
<path d="M132.036 382.533C132.036 382.533 131.193 374.803 136.148 369.709C139.602 366.173 144.598 364.479 149.255 363.349C157.932 361.257 166.351 361.383 175.192 360.797C175.192 360.797 171.409 361.016 160.8 373.558C156.904 378.181 152.072 382.564 146.408 384.928C141.864 386.821 134.349 388.568 132.036 382.533Z" fill="#06D6A0"/>
<path d="M130.649 355.002C130.649 355.002 123.082 353.956 119.443 347.795C116.914 343.517 116.544 338.182 116.596 333.308C116.688 324.229 118.898 315.955 120.502 307.158C120.502 307.158 119.783 310.934 129.158 324.427C132.602 329.406 135.603 335.243 136.457 341.435C137.145 346.362 136.971 354.196 130.649 355.002Z" fill="#06D6A0"/>
<path d="M152.422 341.174C152.422 341.174 157.87 346.634 164.881 345.808C169.743 345.243 174.133 342.283 177.895 339.27C184.906 333.663 189.995 326.823 195.916 320.128C195.916 320.128 193.408 323.015 177.186 323.695C171.203 323.946 164.85 325.097 159.484 328.193C155.228 330.672 149.194 335.588 152.422 341.174Z" fill="#06D6A0"/>
<path d="M146.12 335.766C146.12 335.766 153.727 336.54 158.682 331.436C162.126 327.89 163.719 322.785 164.799 318.036C166.803 309.187 166.557 300.62 167.04 291.625C167.04 291.625 166.865 295.474 154.642 306.352C150.139 310.369 145.884 315.327 143.622 321.143C141.864 325.839 140.168 333.496 146.12 335.766Z" fill="#06D6A0"/>
<path d="M119.001 411.036L105.884 378.192L90.7518 340.211" stroke="#263238" stroke-linecap="round" stroke-linejoin="round"/>
<path d="M122.024 405.388L135.141 359.709L149.255 331.488" stroke="#263238" stroke-linecap="round" stroke-linejoin="round"/>
<path d="M127.071 387.428L140.178 379.729" stroke="#263238" stroke-linecap="round" stroke-linejoin="round"/>
<path d="M135.141 359.709L128.582 344.824" stroke="#263238" stroke-linecap="round" stroke-linejoin="round"/>
<path d="M143.344 344.898L159.35 337.638" stroke="#263238" stroke-linecap="round" stroke-linejoin="round"/>
<path d="M108.403 384.342L113.954 361.759" stroke="#263238" stroke-linecap="round" stroke-linejoin="round"/>
<path d="M101.052 367.177L88.2332 360.221" stroke="#263238" stroke-linecap="round" stroke-linejoin="round"/>
<path d="M132.088 427.458H108.433L103.365 400.252H137.156L132.088 427.458Z" fill="#263238" stroke="#263238" stroke-linecap="round" stroke-linejoin="round"/>
</svg>
