<svg width="451" height="451" viewBox="0 0 451 451" fill="none" xmlns="http://www.w3.org/2000/svg">
<path d="M248.492 341.885L408.967 344.068L400.262 286.412L248.492 341.885Z" fill="#F5F5F5"/>
<path d="M400.304 287.574L247.015 292.177L248.542 343.054L401.831 338.451L400.304 287.574Z" fill="#EBEBEB"/>
<path d="M380.644 305.128C380.644 305.264 354.973 306.139 323.295 307.086C291.617 308.033 265.937 308.7 265.928 308.574C265.919 308.448 291.599 307.564 323.286 306.617C354.973 305.67 380.644 305.002 380.644 305.128Z" fill="#E0E0E0"/>
<path d="M381.862 318.316C381.862 318.451 356.182 319.326 324.513 320.273C292.843 321.22 267.145 321.888 267.145 321.761C267.145 321.635 292.816 320.76 324.495 319.804C356.173 318.848 381.853 318.19 381.862 318.316Z" fill="#E0E0E0"/>
<path d="M291.617 283.598L351.013 281.812L348.208 284.788L352.646 287.837L348.1 290.579L352.826 293.917L290.57 295.784L294.052 292.086L291.743 288.811L294.855 286.755L291.617 283.598Z" fill="#F5F5F5"/>
<path d="M25.7341 192.64L37.1985 236.099C42.6646 237.966 48.248 239.535 55.1122 237.749L87.5842 228.116L71.5737 178.316L25.7341 192.64Z" fill="#FAFAFA"/>
<path d="M22.8206 191.062L34.285 234.511L52.1988 236.171L84.7068 226.537L71.3933 177.694L22.8206 191.062Z" fill="#F5F5F5"/>
<path d="M38.786 229.631L34.276 234.52C36.5565 235.892 39.0964 236.776 41.7355 237.118C45.246 237.481 48.7934 237.175 52.1897 236.216C52.1897 236.216 44.0537 236.18 38.786 229.631Z" fill="#E0E0E0"/>
<path d="M22.4869 201.777L39.7602 185.262L36.3145 181.618L18.5632 197.989L22.4869 201.777Z" fill="#EBEBEB"/>
<path d="M80.2239 186.561L58.612 176.359L56.4381 180.887L78.0952 191.585L80.2239 186.561Z" fill="#EBEBEB"/>
<path d="M70.2207 194.607C70.2207 194.733 62.0215 197.114 51.8289 199.919C41.6363 202.725 33.374 204.907 33.3019 204.754C33.2297 204.601 41.501 202.246 51.7027 199.432C61.9043 196.618 70.1846 194.48 70.2207 194.607Z" fill="#E0E0E0"/>
<path d="M71.8984 201.308C71.8984 201.435 63.6902 203.816 53.4976 206.63C43.305 209.444 35.0066 211.618 34.9705 211.492C34.9345 211.366 43.1787 208.984 53.3713 206.17C63.5639 203.356 71.8623 201.146 71.8984 201.308Z" fill="#E0E0E0"/>
<path d="M73.7295 207.153C73.7295 207.28 65.5303 209.661 55.3287 212.475C45.1271 215.289 36.8467 217.463 36.8106 217.382C36.7746 217.301 45.0098 214.874 55.2114 212.06C65.4131 209.246 73.6934 207.027 73.7295 207.153Z" fill="#E0E0E0"/>
<path d="M75.2539 212.872C75.2539 212.989 67.0547 215.37 56.8621 218.185C46.6695 220.999 38.3711 223.173 38.335 223.047C38.2989 222.92 46.5342 220.539 56.7358 217.734C66.9374 214.929 75.2268 212.728 75.2539 212.872Z" fill="#E0E0E0"/>
<path d="M393.065 349.318C391.739 349.453 390.455 349.855 389.288 350.498C388.121 351.141 387.095 352.013 386.273 353.061C384.636 355.182 383.51 357.651 382.98 360.277C381.799 365.283 382.8 371.101 384.36 376.017C389.682 373.933 392.821 368.097 394.228 365.039C396.456 360.205 397.539 350.111 393.065 349.354" fill="#EBEBEB"/>
<path d="M376.811 382.24C377.581 380.964 377.999 379.506 378.023 378.015C378.046 376.524 377.675 375.053 376.946 373.753C376.198 372.466 375.201 371.341 374.013 370.445C372.825 369.548 371.47 368.897 370.028 368.53C369.383 368.292 368.694 368.197 368.008 368.252C367.323 368.306 366.658 368.509 366.059 368.846C365.559 369.251 365.177 369.783 364.952 370.385C364.726 370.988 364.666 371.64 364.778 372.273C365.015 373.542 365.584 374.725 366.429 375.701C369.135 379.165 372.418 382.015 376.811 382.24Z" fill="#EBEBEB"/>
<path d="M376.729 398.846C376.828 398.507 376.897 398.16 376.937 397.809C377.054 397.069 377.216 396.113 377.406 394.959C378.017 391.823 378.118 388.61 377.704 385.443C377.231 382.256 375.921 379.252 373.906 376.738C373.287 375.993 372.582 375.324 371.804 374.745C371.594 374.584 371.374 374.436 371.146 374.303C370.993 374.204 370.911 374.159 370.902 374.177C371.927 374.978 372.865 375.885 373.699 376.883C375.609 379.397 376.85 382.354 377.307 385.479C377.707 388.61 377.643 391.783 377.117 394.896C376.955 396.104 376.838 397.087 376.765 397.764C376.713 398.122 376.701 398.485 376.729 398.846Z" fill="#E0E0E0"/>
<path d="M391.558 356.93C391.476 357.061 391.41 357.2 391.36 357.345L390.837 358.554C390.395 359.609 389.772 361.152 389.033 363.064C387.526 366.87 385.524 372.165 383.44 378.064C381.357 383.963 379.598 389.339 378.371 393.245C377.767 395.202 377.28 396.79 376.964 397.89C376.82 398.413 376.693 398.792 376.603 399.162C376.554 399.305 376.521 399.454 376.504 399.604C376.578 399.47 376.636 399.328 376.675 399.18L377.099 397.935L378.624 393.326C379.913 389.439 381.708 384.081 383.792 378.182C385.876 372.282 387.833 366.988 389.276 363.163C389.989 361.278 390.566 359.736 390.981 358.653L391.441 357.418C391.506 357.262 391.545 357.098 391.558 356.93Z" fill="#E0E0E0"/>
<path d="M382.773 387.68C384.301 384.942 386.46 382.607 389.07 380.869C391.68 379.131 394.666 378.04 397.782 377.685C399.37 377.523 401.291 377.685 402.039 379.138C402.788 380.59 401.895 382.268 400.849 383.467C398.62 385.946 395.707 387.709 392.477 388.534C389.247 389.359 385.845 389.21 382.701 388.104" fill="#EBEBEB"/>
<path d="M395.518 382.015C395.186 382.004 394.854 382.025 394.526 382.078C394.138 382.113 393.753 382.171 393.371 382.25C392.929 382.349 392.406 382.412 391.856 382.583C391.244 382.735 390.642 382.922 390.052 383.143C389.371 383.378 388.705 383.656 388.058 383.972C385.058 385.398 382.453 387.538 380.473 390.205C380.042 390.783 379.644 391.386 379.282 392.009C378.946 392.546 378.645 393.103 378.38 393.678C378.154 394.144 377.955 394.623 377.785 395.112C377.645 395.475 377.524 395.846 377.424 396.222C377.316 396.535 377.24 396.858 377.198 397.187C377.28 397.187 377.613 395.834 378.615 393.786C378.885 393.229 379.186 392.687 379.517 392.163C379.879 391.554 380.277 390.966 380.707 390.404C382.686 387.806 385.243 385.706 388.176 384.27C389.369 383.686 390.609 383.203 391.883 382.827C394.111 382.213 395.536 382.096 395.518 382.015Z" fill="#E0E0E0"/>
<path d="M417.536 399.036C417.536 399.162 331.557 399.27 225.509 399.27C119.461 399.27 33.4642 399.162 33.4642 399.036C33.4642 398.91 119.425 398.801 225.509 398.801C331.593 398.801 417.536 398.9 417.536 399.036Z" fill="#263238"/>
<path d="M219.79 73.964L220.178 81.18C221.248 80.1488 222.654 79.5372 224.138 79.4571C225.73 79.4917 227.25 80.1264 228.394 81.234C229.537 82.3417 230.22 83.8406 230.306 85.4304C230.391 87.0203 229.873 88.5838 228.855 89.8078C227.837 91.0318 226.393 91.8259 224.814 92.031C223.33 92.1085 221.868 91.6508 220.692 90.7412L221.08 98.0203C222.15 96.9891 223.556 96.3776 225.04 96.2975C226.632 96.332 228.152 96.9667 229.296 98.0744C230.439 99.182 231.122 100.681 231.208 102.271C231.293 103.861 230.775 105.424 229.757 106.648C228.739 107.872 227.295 108.666 225.716 108.871C224.232 108.949 222.77 108.491 221.594 107.581L221.982 114.861C223.053 113.832 224.459 113.224 225.942 113.147C227.523 113.197 229.028 113.839 230.158 114.946C231.289 116.052 231.963 117.543 232.047 119.123C232.13 120.702 231.618 122.256 230.611 123.476C229.605 124.696 228.176 125.494 226.609 125.712C225.128 125.792 223.667 125.334 222.496 124.422L222.884 131.701C223.955 130.672 225.361 130.064 226.844 129.987C228.425 130.037 229.93 130.679 231.06 131.786C232.191 132.893 232.865 134.383 232.949 135.963C233.032 137.543 232.52 139.096 231.513 140.317C230.507 141.537 229.078 142.335 227.511 142.552C226.03 142.634 224.568 142.176 223.398 141.262L223.786 148.55C224.854 147.516 226.261 146.904 227.746 146.828C229.327 146.878 230.832 147.52 231.962 148.626C233.093 149.733 233.767 151.224 233.851 152.803C233.934 154.383 233.422 155.937 232.415 157.157C231.409 158.377 229.98 159.175 228.413 159.392C226.933 159.477 225.471 159.022 224.3 158.112L224.688 165.391C225.758 164.36 227.164 163.748 228.648 163.668C230.239 163.704 231.758 164.34 232.9 165.449C234.042 166.557 234.724 168.056 234.808 169.645C234.893 171.235 234.374 172.798 233.355 174.021C232.337 175.244 230.894 176.037 229.315 176.242C227.834 176.319 226.374 175.861 225.202 174.952L225.446 179.462L419.43 174.844L409.598 61.8501L219.79 73.964Z" fill="#EBEBEB"/>
<path d="M215.506 69.2916L215.894 76.5527C216.967 75.5367 218.368 74.9384 219.844 74.866C221.436 74.9006 222.956 75.5352 224.1 76.6429C225.244 77.7505 225.927 79.2494 226.012 80.8393C226.098 82.4292 225.58 83.9927 224.561 85.2167C223.543 86.4406 222.1 87.2347 220.521 87.4399C219.04 87.5168 217.58 87.0591 216.408 86.15L216.796 93.4292C217.668 92.5933 218.762 92.0253 219.948 91.7927C221.134 91.5602 222.362 91.6728 223.485 92.1171C224.609 92.5615 225.582 93.319 226.288 94.2997C226.994 95.2804 227.403 96.443 227.468 97.6497C227.533 98.8563 227.25 100.056 226.654 101.107C226.057 102.158 225.171 103.015 224.102 103.577C223.032 104.14 221.824 104.383 220.62 104.279C219.416 104.175 218.267 103.728 217.31 102.99L217.698 110.269C218.765 109.241 220.168 108.632 221.648 108.556C223.23 108.604 224.736 109.245 225.868 110.351C227 111.457 227.675 112.947 227.76 114.527C227.845 116.107 227.334 117.662 226.327 118.883C225.321 120.104 223.892 120.903 222.325 121.121C220.841 121.201 219.377 120.743 218.203 119.831L218.6 127.119C219.664 126.084 221.068 125.472 222.55 125.396C224.132 125.444 225.638 126.085 226.77 127.191C227.902 128.297 228.577 129.787 228.662 131.368C228.747 132.948 228.236 134.502 227.229 135.723C226.223 136.944 224.794 137.743 223.227 137.961C221.742 138.042 220.278 137.584 219.105 136.671L219.502 143.959C220.568 142.928 221.971 142.316 223.452 142.236C225.044 142.271 226.564 142.906 227.708 144.013C228.852 145.121 229.535 146.62 229.62 148.21C229.706 149.8 229.188 151.363 228.169 152.587C227.151 153.811 225.708 154.605 224.129 154.81C222.645 154.888 221.182 154.43 220.007 153.52L220.395 160.8C221.465 159.768 222.87 159.157 224.354 159.077C225.946 159.111 227.466 159.746 228.61 160.854C229.754 161.961 230.437 163.46 230.522 165.05C230.608 166.64 230.09 168.203 229.071 169.427C228.053 170.651 226.61 171.445 225.031 171.651C223.547 171.728 222.084 171.27 220.909 170.361L221.152 174.871L415.082 164.489L409.436 58.9547L215.506 69.2916Z" fill="#F5F5F5"/>
<path d="M410.563 79.7999C410.563 79.9261 367.159 82.3525 313.607 85.2119C260.056 88.0712 216.624 90.3082 216.624 90.1999C216.624 90.0917 260.02 87.6473 313.58 84.7879C367.141 81.9286 410.554 79.6736 410.563 79.7999Z" fill="#E0E0E0"/>
<path d="M411.465 96.6854C411.465 96.8117 368.061 99.2471 314.509 102.097C260.958 104.948 217.535 107.185 217.526 107.058C217.517 106.932 260.922 104.497 314.491 101.646C368.061 98.7961 411.456 96.5591 411.465 96.6854Z" fill="#E0E0E0"/>
<path d="M412.367 113.571C412.367 113.706 368.963 116.132 315.411 118.983C261.86 121.833 218.437 124.07 218.428 123.944C218.419 123.817 261.824 121.382 315.393 118.532C368.963 115.681 412.358 113.444 412.367 113.571Z" fill="#E0E0E0"/>
<path d="M413.269 130.456C413.269 130.591 369.865 133.018 316.322 135.868C262.78 138.718 219.339 140.946 219.33 140.82C219.321 140.694 262.726 138.258 316.295 135.408C369.865 132.558 413.26 130.33 413.269 130.456Z" fill="#E0E0E0"/>
<path d="M414.171 147.351C414.171 147.477 370.767 149.903 317.224 152.763C263.682 155.622 220.241 157.85 220.232 157.724C220.223 157.597 263.637 155.171 317.197 152.312C370.758 149.452 414.171 147.215 414.171 147.351Z" fill="#E0E0E0"/>
<path d="M242.685 67.842L242.235 67.8661L247.878 173.421L248.328 173.397L242.685 67.842Z" fill="#06D6A0"/>
<path d="M265.684 172.462C265.558 172.462 264.187 148.839 262.626 119.695C261.066 90.5517 259.92 66.9103 260.038 66.9103C260.155 66.9103 261.535 90.5156 263.095 119.677C264.656 148.839 265.819 172.453 265.684 172.462Z" fill="#E0E0E0"/>
<path d="M231.165 174.302C231.029 174.302 229.658 150.688 228.098 121.544C226.537 92.4008 225.392 68.7594 225.509 68.7504C225.626 68.7413 227.015 92.3647 228.567 121.517C230.118 150.67 231.291 174.302 231.165 174.302Z" fill="#E0E0E0"/>
<path d="M284.59 171.443C284.464 171.443 283.093 147.829 281.532 118.685C279.972 89.5416 278.826 65.9001 278.943 65.8911C279.061 65.8821 280.441 89.5055 282.001 118.658C283.562 147.811 284.725 171.443 284.59 171.443Z" fill="#E0E0E0"/>
<path d="M303.505 170.478C303.37 170.478 302.008 146.864 300.447 117.72C298.887 88.5763 297.741 64.9349 297.858 64.9259C297.976 64.9169 299.356 88.5403 300.916 117.693C302.477 146.846 303.631 170.478 303.505 170.478Z" fill="#E0E0E0"/>
<path d="M322.411 169.423C322.285 169.423 320.914 145.808 319.353 116.665C317.793 87.521 316.647 63.8796 316.764 63.8706C316.882 63.8616 318.262 87.485 319.822 116.638C321.383 145.79 322.537 169.414 322.411 169.423Z" fill="#E0E0E0"/>
<path d="M341.317 168.412C341.19 168.412 339.819 144.798 338.259 115.654C336.699 86.5108 335.553 62.8694 335.67 62.8604C335.788 62.8513 337.168 86.4747 338.728 115.627C340.288 144.78 341.452 168.403 341.317 168.412Z" fill="#E0E0E0"/>
<path d="M360.232 167.402C360.096 167.402 358.725 143.779 357.174 114.635C355.623 85.4915 354.468 61.8591 354.585 61.8501C354.702 61.8411 356.083 85.4645 357.643 114.617C359.203 143.77 360.358 167.393 360.232 167.402Z" fill="#E0E0E0"/>
<path d="M379.138 166.392C379.011 166.392 377.64 142.769 376.08 113.625C374.519 84.4813 373.374 60.8398 373.491 60.8398C373.608 60.8398 374.988 84.4452 376.549 113.607C378.109 142.769 379.264 166.383 379.138 166.392Z" fill="#E0E0E0"/>
<path d="M398.044 165.373C397.917 165.373 396.546 141.758 394.986 112.615C393.425 83.471 392.28 59.8296 392.397 59.8206C392.514 59.8115 393.894 83.4349 395.455 112.588C397.015 141.74 398.179 165.373 398.044 165.373Z" fill="#E0E0E0"/>
<path d="M395.689 101.457C395.572 101.47 395.454 101.47 395.338 101.457L394.309 101.529L390.34 101.782L375.755 102.62C363.434 103.306 346.413 104.208 327.606 105.137C308.8 106.066 291.77 106.842 279.44 107.311C273.27 107.545 268.282 107.699 264.827 107.762C261.373 107.825 259.415 107.762 259.487 107.636C259.941 107.707 260.401 107.723 260.858 107.681C261.76 107.681 263.104 107.636 264.827 107.581C268.273 107.464 273.261 107.257 279.422 106.977L327.588 104.668L375.737 102.296L390.331 101.601L394.3 101.439H395.338C395.455 101.435 395.573 101.441 395.689 101.457Z" fill="#263238"/>
<path d="M399.586 120.742C399.586 120.877 368.296 122.41 329.69 124.187C291.084 125.964 259.776 127.29 259.776 127.182C259.776 127.074 291.066 125.513 329.681 123.745C368.296 121.977 399.586 120.615 399.586 120.742Z" fill="#263238"/>
<path d="M401.688 137.627C401.688 137.762 370.397 139.305 331.792 141.073C293.186 142.841 261.869 144.176 261.86 144.04C261.851 143.905 293.15 142.372 331.765 140.604C370.379 138.836 401.679 137.501 401.688 137.627Z" fill="#263238"/>
<path d="M237.226 80.3591C238.074 84.5534 239.932 88.8109 243.423 91.2372C244.931 92.2792 246.674 92.9309 248.496 93.1338C250.319 93.3367 252.162 93.0846 253.863 92.4C255.564 91.7154 257.068 90.6197 258.242 89.211C259.415 87.8023 260.22 86.1246 260.586 84.3281C260.952 82.5317 260.866 80.6725 260.337 78.9172C259.808 77.1619 258.852 75.5652 257.555 74.2701C256.257 72.975 254.658 72.0219 252.902 71.4963C251.146 70.9706 249.287 70.8887 247.491 71.2579" fill="#E0E0E0"/>
<path d="M236.748 80.332C236.843 82.0738 237.453 83.7483 238.5 85.1437C239.546 86.5392 240.983 87.593 242.629 88.1719C244.274 88.7508 246.055 88.8288 247.744 88.3961C249.434 87.9635 250.958 87.0395 252.123 85.741C253.288 84.4425 254.041 82.8278 254.289 81.101C254.536 79.3742 254.266 77.6129 253.512 76.0396C252.759 74.4664 251.556 73.1518 250.055 72.2622C248.555 71.3725 246.824 70.9477 245.082 71.0414C243.925 71.1037 242.791 71.3935 241.746 71.8942C240.7 72.3949 239.764 73.0967 238.99 73.9595C238.216 74.8223 237.619 75.8292 237.235 76.9227C236.85 78.0161 236.685 79.1746 236.748 80.332Z" fill="#455A64"/>
<path d="M231.679 77.0668C231.735 78.1122 232.101 79.1173 232.729 79.9551C233.357 80.7928 234.219 81.4257 235.206 81.7736C236.194 82.1215 237.262 82.1688 238.276 81.9097C239.291 81.6505 240.205 81.0964 240.905 80.3175C241.604 79.5386 242.057 78.5697 242.206 77.5335C242.355 76.4972 242.194 75.44 241.742 74.4955C241.291 73.551 240.569 72.7616 239.669 72.2271C238.769 71.6926 237.73 71.4369 236.685 71.4924C235.99 71.5294 235.309 71.7029 234.681 72.0031C234.054 72.3033 233.491 72.7242 233.026 73.242C232.561 73.7597 232.203 74.364 231.972 75.0202C231.741 75.6765 231.641 76.372 231.679 77.0668Z" fill="#455A64"/>
<path d="M236.613 81.9646C237.28 81.9632 237.946 81.8875 238.597 81.7391C239.361 81.5244 240.065 81.1335 240.651 80.5978C241.236 80.062 241.689 79.3964 241.971 78.6543C242.217 77.8985 242.294 77.0977 242.195 76.3089C242.097 75.52 241.826 74.7625 241.402 74.0902C241.013 73.5408 240.572 73.0303 240.085 72.5658C240.085 72.5658 240.293 72.6199 240.59 72.8184C241.013 73.112 241.379 73.4785 241.673 73.9008C242.173 74.6029 242.501 75.4132 242.629 76.2658C242.758 77.1183 242.684 77.9892 242.413 78.8076C242.086 79.7073 241.51 80.4955 240.753 81.0807C240.143 81.5585 239.434 81.8944 238.678 82.0639C238.175 82.1799 237.655 82.2013 237.145 82.127C236.793 82.0819 236.604 81.9917 236.613 81.9646Z" fill="#263238"/>
<path d="M241.041 73.54C242.041 73.8756 243.115 73.9286 244.143 73.693C245.171 73.4575 246.114 72.9426 246.868 72.2051C246.914 72.2051 246.76 72.5839 246.327 73.0169C245.754 73.5804 245.036 73.974 244.252 74.1539C243.469 74.3339 242.651 74.2931 241.889 74.0361C241.312 73.8377 241.014 73.5942 241.041 73.54Z" fill="#263238"/>
<path d="M242.403 86.9527C242.247 86.6061 242.121 86.2471 242.025 85.8793C241.722 85.0426 241.227 84.2885 240.58 83.6775C239.933 83.0666 239.152 82.6159 238.299 82.3615C237.65 82.1541 237.208 82.118 237.217 82.0458C237.226 81.9737 237.668 81.9105 238.381 82.0458C239.326 82.2304 240.2 82.6791 240.901 83.3401C241.602 84.001 242.101 84.8471 242.34 85.7801C242.512 86.4927 242.467 86.9437 242.403 86.9527Z" fill="#263238"/>
<path d="M386.291 74.1353C387.147 78.3296 388.997 82.5781 392.487 84.9593C394.506 86.3467 396.928 87.0262 399.374 86.8918C401.82 86.7574 404.152 85.8166 406.007 84.2163C407.862 82.6161 409.134 80.4466 409.626 78.0467C410.117 75.6468 409.8 73.1517 408.723 70.9513C407.599 68.7863 405.811 67.0379 403.622 65.9618C401.432 64.8858 398.956 64.5386 396.555 64.971" fill="#E0E0E0"/>
<path d="M403.329 71.745C403.418 73.4283 403.005 75.1001 402.144 76.549C401.283 77.9979 400.011 79.1588 398.49 79.8851C396.969 80.6114 395.266 80.8703 393.598 80.6292C391.93 80.3881 390.37 79.6578 389.117 78.5306C387.864 77.4034 386.973 75.9299 386.557 74.2965C386.141 72.663 386.219 70.9428 386.78 69.3535C387.342 67.7641 388.362 66.377 389.712 65.3673C391.061 64.3577 392.68 63.7709 394.363 63.6812C395.482 63.6215 396.601 63.7829 397.657 64.1559C398.713 64.529 399.685 65.1064 400.517 65.8553C401.35 66.6042 402.027 67.5098 402.509 68.5204C402.992 69.531 403.27 70.6267 403.329 71.745Z" fill="#06D6A0"/>
<path d="M402.761 73.4768C405.586 73.4768 407.875 71.1871 407.875 68.3625C407.875 65.5379 405.586 63.2482 402.761 63.2482C399.936 63.2482 397.647 65.5379 397.647 68.3625C397.647 71.1871 399.936 73.4768 402.761 73.4768Z" fill="#06D6A0"/>
<path d="M403.636 73.2965C403.636 73.2965 403.474 73.4228 403.131 73.513C402.648 73.6385 402.147 73.6721 401.652 73.6122C400.909 73.5308 400.194 73.2843 399.559 72.8906C398.779 72.4005 398.154 71.7001 397.755 70.8701C397.41 70.1123 397.248 69.2837 397.282 68.4516C397.317 67.6195 397.547 66.8072 397.953 66.0805C398.247 65.4559 398.738 64.9455 399.351 64.6283C398.94 65.1316 398.572 65.6686 398.251 66.2339C397.914 66.9229 397.733 67.6777 397.72 68.4447C397.708 69.2117 397.864 69.9721 398.179 70.6717C398.526 71.353 399.027 71.944 399.643 72.3981C400.258 72.8521 400.97 73.1566 401.724 73.2875C402.359 73.3587 403 73.3617 403.636 73.2965Z" fill="#263238"/>
<path d="M398.504 65.6655C398.504 65.6655 398.278 65.9812 397.746 66.2338C397.04 66.5619 396.257 66.6868 395.484 66.5944C394.711 66.502 393.98 66.1959 393.371 65.7106C392.911 65.3408 392.731 65.0161 392.776 64.98C393.615 65.5396 394.556 65.9289 395.545 66.1255C396.551 66.1593 397.555 66.0032 398.504 65.6655Z" fill="#263238"/>
<path d="M398.576 78.6904C398.441 78.3297 398.418 77.9364 398.513 77.5629C398.649 76.6397 399.043 75.7737 399.649 75.0643C400.25 74.3543 401.042 73.8315 401.931 73.558C402.617 73.3505 403.059 73.3866 403.059 73.4407C403.059 73.4949 402.653 73.6031 402.048 73.8647C401.259 74.2017 400.559 74.7166 400.002 75.3691C399.445 76.0216 399.046 76.794 398.837 77.626C398.684 78.2664 398.684 78.6904 398.576 78.6904Z" fill="#263238"/>
<path d="M85.0766 55.7706L65.5123 153.764C74.5954 162.847 84.2198 171.425 99.68 174.582L174.023 187.093L190.629 71.9525L85.0766 55.7706Z" fill="#E0E0E0"/>
<path d="M80.8012 49.7633L61.2368 147.757L95.4045 168.575L169.747 181.085L190.872 70.5183L80.8012 49.7633Z" fill="#06D6A0"/>
<path d="M75.0374 142.435L61.2368 147.757C61.2368 147.757 66.297 155.875 73.6122 160.222C80.2816 164.362 87.6769 167.196 95.4045 168.575C95.4045 168.575 79.1325 160.628 75.0374 142.435Z" fill="#06D6A0"/>
<g opacity="0.3">
<path d="M75.0374 142.435C69.7156 146.043 63.8706 150.553 61.2368 147.757C61.2368 147.757 66.297 155.875 73.6122 160.222C80.2816 164.362 87.6769 167.196 95.4045 168.575C95.4045 168.575 79.1325 160.628 75.0374 142.435Z" fill="black"/>
</g>
<path d="M69.6705 70.8521L120.3 54.7423L116.98 44.0807L65.5123 59.4508L69.6705 70.8521Z" fill="#E0E0E0"/>
<path d="M199.847 96.8568L166.654 55.3738L157.886 62.2921L190.692 104.83L199.847 96.8568Z" fill="#E0E0E0"/>
<path d="M172.011 103.162C172.011 103.288 153.232 99.8694 130.123 95.5218C107.013 91.1742 88.2968 87.5481 88.3238 87.4038C88.3509 87.2595 107.094 90.6961 130.213 95.0437C153.331 99.3914 172.038 103.035 172.011 103.162Z" fill="#263238"/>
<path d="M168.809 118.162C168.809 118.288 150.03 114.87 126.92 110.522C103.811 106.174 85.0947 102.548 85.1127 102.404C85.1308 102.26 103.892 105.696 127.002 110.044C150.111 114.392 168.827 118.063 168.809 118.162Z" fill="#263238"/>
<path d="M166.753 131.692C166.753 131.818 147.973 128.4 124.873 124.052C101.773 119.704 83.0381 116.078 83.0652 115.934C83.0922 115.79 101.845 119.226 124.954 123.574C148.063 127.922 166.78 131.53 166.753 131.692Z" fill="#263238"/>
<path d="M164.245 144.518C164.245 144.645 145.466 141.226 122.356 136.878C99.2471 132.531 80.5306 128.905 80.5576 128.76C80.5847 128.616 99.3282 132.053 122.446 136.4C145.565 140.748 164.272 144.392 164.245 144.518Z" fill="#263238"/>
<path d="M243.044 249.214L401.607 269.427L399.478 211.393L243.044 249.214Z" fill="#E0E0E0"/>
<path d="M399.38 212.554L247.164 199.853L242.949 250.37L395.165 263.071L399.38 212.554Z" fill="#455A64"/>
<path d="M377.938 227.71C377.938 227.836 352.42 225.816 320.968 223.2C289.515 220.584 264.024 218.347 264.033 218.212C264.042 218.077 289.551 220.106 321.013 222.722C352.475 225.338 377.983 227.584 377.938 227.71Z" fill="#263238"/>
<path d="M377.676 240.897C377.676 241.023 352.159 239.003 320.706 236.387C289.253 233.771 263.754 231.534 263.772 231.399C263.79 231.264 289.28 233.293 320.742 235.909C352.204 238.525 377.685 240.771 377.676 240.897Z" fill="#263238"/>
<path d="M292.284 196.374L351.266 201.299L348.154 203.933L352.195 207.451L347.387 209.652L351.69 213.476L289.876 208.317L293.736 205.061L291.815 201.561L295.134 199.874L292.284 196.374Z" fill="#EBEBEB"/>
<path d="M219.592 212.033C220.208 213.073 220.538 214.257 220.548 215.465C220.558 216.673 220.248 217.863 219.65 218.912C219.052 219.962 218.186 220.835 217.142 221.442C216.097 222.049 214.91 222.369 213.702 222.369C212.494 222.369 211.307 222.049 210.262 221.442C209.217 220.835 208.352 219.962 207.754 218.912C207.155 217.863 206.846 216.673 206.856 215.465C206.866 214.257 207.196 213.073 207.812 212.033H199.874C200.49 213.073 200.82 214.257 200.83 215.465C200.84 216.673 200.531 217.863 199.932 218.912C199.334 219.962 198.469 220.835 197.424 221.442C196.379 222.049 195.192 222.369 193.984 222.369C192.776 222.369 191.589 222.049 190.544 221.442C189.5 220.835 188.634 219.962 188.036 218.912C187.438 217.863 187.128 216.673 187.138 215.465C187.148 214.257 187.478 213.073 188.094 212.033H180.156C180.772 213.073 181.102 214.257 181.112 215.465C181.123 216.673 180.813 217.863 180.215 218.912C179.616 219.962 178.751 220.835 177.706 221.442C176.661 222.049 175.475 222.369 174.266 222.369C173.058 222.369 171.871 222.049 170.827 221.442C169.782 220.835 168.917 219.962 168.318 218.912C167.72 217.863 167.41 216.673 167.42 215.465C167.431 214.257 167.76 213.073 168.376 212.033H160.439C161.055 213.073 161.384 214.257 161.395 215.465C161.405 216.673 161.095 217.863 160.497 218.912C159.899 219.962 159.033 220.835 157.988 221.442C156.944 222.049 155.757 222.369 154.549 222.369C153.34 222.369 152.154 222.049 151.109 221.442C150.064 220.835 149.199 219.962 148.601 218.912C148.002 217.863 147.693 216.673 147.703 215.465C147.713 214.257 148.043 213.073 148.659 212.033H140.712C141.328 213.073 141.658 214.257 141.668 215.465C141.678 216.673 141.368 217.863 140.77 218.912C140.172 219.962 139.306 220.835 138.262 221.442C137.217 222.049 136.03 222.369 134.822 222.369C133.614 222.369 132.427 222.049 131.382 221.442C130.337 220.835 129.472 219.962 128.874 218.912C128.276 217.863 127.966 216.673 127.976 215.465C127.986 214.257 128.316 213.073 128.932 212.033H120.994C121.61 213.073 121.94 214.257 121.95 215.465C121.96 216.673 121.651 217.863 121.052 218.912C120.454 219.962 119.589 220.835 118.544 221.442C117.499 222.049 116.313 222.369 115.104 222.369C113.896 222.369 112.709 222.049 111.664 221.442C110.62 220.835 109.754 219.962 109.156 218.912C108.558 217.863 108.248 216.673 108.258 215.465C108.268 214.257 108.598 213.073 109.214 212.033H104.244V353.647L228.116 360.43L222.208 212.042L219.592 212.033Z" fill="#E0E0E0"/>
<mask id="mask0_6_654" style="mask-type:luminance" maskUnits="userSpaceOnUse" x="102" y="208" width="119" height="142">
<path d="M217.788 208.164C218.418 209.203 218.76 210.392 218.779 211.607C218.798 212.823 218.494 214.021 217.898 215.081C217.301 216.14 216.433 217.021 215.384 217.634C214.334 218.248 213.141 218.571 211.925 218.571C210.709 218.571 209.515 218.248 208.466 217.634C207.416 217.021 206.549 216.14 205.952 215.081C205.356 214.021 205.051 212.823 205.071 211.607C205.09 210.392 205.432 209.203 206.062 208.164H198.115C198.652 209.07 198.973 210.088 199.052 211.139C199.131 212.19 198.967 213.245 198.571 214.221C198.176 215.198 197.561 216.071 196.773 216.77C195.985 217.47 195.047 217.979 194.031 218.257C193.014 218.535 191.947 218.574 190.913 218.372C189.879 218.17 188.905 217.733 188.068 217.093C187.231 216.453 186.553 215.628 186.086 214.684C185.62 213.739 185.378 212.699 185.379 211.645C185.377 210.418 185.711 209.214 186.344 208.164H178.398C178.935 209.07 179.255 210.088 179.334 211.139C179.413 212.19 179.249 213.245 178.854 214.221C178.458 215.198 177.843 216.071 177.055 216.77C176.268 217.47 175.329 217.979 174.313 218.257C173.296 218.535 172.23 218.574 171.195 218.372C170.161 218.17 169.188 217.733 168.35 217.093C167.513 216.453 166.835 215.628 166.369 214.684C165.902 213.739 165.66 212.699 165.661 211.645C165.66 210.418 165.993 209.214 166.626 208.164H158.68C159.296 209.203 159.626 210.387 159.636 211.595C159.646 212.804 159.336 213.993 158.738 215.043C158.14 216.093 157.274 216.965 156.23 217.573C155.185 218.18 153.998 218.499 152.79 218.499C151.581 218.499 150.395 218.18 149.35 217.573C148.305 216.965 147.44 216.093 146.842 215.043C146.243 213.993 145.934 212.804 145.944 211.595C145.954 210.387 146.284 209.203 146.9 208.164H138.908C139.524 209.203 139.854 210.387 139.864 211.595C139.874 212.804 139.564 213.993 138.966 215.043C138.368 216.093 137.502 216.965 136.458 217.573C135.413 218.18 134.226 218.499 133.018 218.499C131.81 218.499 130.623 218.18 129.578 217.573C128.533 216.965 127.668 216.093 127.07 215.043C126.472 213.993 126.162 212.804 126.172 211.595C126.182 210.387 126.512 209.203 127.128 208.164H119.19C119.806 209.203 120.136 210.387 120.146 211.595C120.156 212.804 119.847 213.993 119.248 215.043C118.65 216.093 117.785 216.965 116.74 217.573C115.695 218.18 114.508 218.499 113.3 218.499C112.092 218.499 110.905 218.18 109.86 217.573C108.816 216.965 107.95 216.093 107.352 215.043C106.754 213.993 106.444 212.804 106.454 211.595C106.464 210.387 106.794 209.203 107.41 208.164H102.44V349.778H220.413V208.164H217.788Z" fill="white"/>
</mask>
<g mask="url(#mask0_6_654)">
<path d="M217.788 208.164C218.418 209.203 218.76 210.392 218.779 211.607C218.798 212.823 218.494 214.021 217.898 215.081C217.301 216.14 216.433 217.021 215.384 217.634C214.334 218.248 213.141 218.571 211.925 218.571C210.709 218.571 209.515 218.248 208.466 217.634C207.416 217.021 206.549 216.14 205.952 215.081C205.356 214.021 205.051 212.823 205.071 211.607C205.09 210.392 205.432 209.203 206.062 208.164H198.115C198.652 209.07 198.973 210.088 199.052 211.139C199.131 212.19 198.967 213.245 198.571 214.221C198.176 215.198 197.561 216.071 196.773 216.77C195.985 217.47 195.047 217.979 194.031 218.257C193.014 218.535 191.947 218.574 190.913 218.372C189.879 218.17 188.905 217.733 188.068 217.093C187.231 216.453 186.553 215.628 186.086 214.684C185.62 213.739 185.378 212.699 185.379 211.645C185.377 210.418 185.711 209.214 186.344 208.164H178.398C178.935 209.07 179.255 210.088 179.334 211.139C179.413 212.19 179.249 213.245 178.854 214.221C178.458 215.198 177.843 216.071 177.055 216.77C176.268 217.47 175.329 217.979 174.313 218.257C173.296 218.535 172.23 218.574 171.195 218.372C170.161 218.17 169.188 217.733 168.35 217.093C167.513 216.453 166.835 215.628 166.369 214.684C165.902 213.739 165.66 212.699 165.661 211.645C165.66 210.418 165.993 209.214 166.626 208.164H158.68C159.296 209.203 159.626 210.387 159.636 211.595C159.646 212.804 159.336 213.993 158.738 215.043C158.14 216.093 157.274 216.965 156.23 217.573C155.185 218.18 153.998 218.499 152.79 218.499C151.581 218.499 150.395 218.18 149.35 217.573C148.305 216.965 147.44 216.093 146.842 215.043C146.243 213.993 145.934 212.804 145.944 211.595C145.954 210.387 146.284 209.203 146.9 208.164H138.908C139.524 209.203 139.854 210.387 139.864 211.595C139.874 212.804 139.564 213.993 138.966 215.043C138.368 216.093 137.502 216.965 136.458 217.573C135.413 218.18 134.226 218.499 133.018 218.499C131.81 218.499 130.623 218.18 129.578 217.573C128.533 216.965 127.668 216.093 127.07 215.043C126.472 213.993 126.162 212.804 126.172 211.595C126.182 210.387 126.512 209.203 127.128 208.164H119.19C119.806 209.203 120.136 210.387 120.146 211.595C120.156 212.804 119.847 213.993 119.248 215.043C118.65 216.093 117.785 216.965 116.74 217.573C115.695 218.18 114.508 218.499 113.3 218.499C112.092 218.499 110.905 218.18 109.86 217.573C108.816 216.965 107.95 216.093 107.352 215.043C106.754 213.993 106.444 212.804 106.454 211.595C106.464 210.387 106.794 209.203 107.41 208.164H102.44V349.778H220.413V208.164H217.788Z" fill="#F5F5F5"/>
<path d="M114.184 356.092C114.058 356.092 113.607 321.816 113.174 279.422C112.741 237.028 112.488 202.752 112.624 202.752C112.759 202.752 113.21 237.028 113.643 279.422C114.076 321.816 114.319 356.092 114.184 356.092Z" fill="#E0E0E0"/>
<path d="M123.574 356.092C123.448 356.092 122.988 321.816 122.555 279.422C122.122 237.028 121.878 202.752 122.004 202.752C122.131 202.752 122.591 237.028 123.024 279.422C123.457 321.816 123.718 356.092 123.574 356.092Z" fill="#E0E0E0"/>
<path d="M142.723 356.092C142.597 356.092 142.146 321.816 141.713 279.422C141.28 237.028 141.028 202.752 141.163 202.752C141.298 202.752 141.749 237.028 142.182 279.422C142.615 321.816 142.859 356.092 142.723 356.092Z" fill="#E0E0E0"/>
<path d="M161.864 356.092C161.738 356.092 161.278 321.816 160.845 279.422C160.412 237.028 160.168 202.752 160.294 202.752C160.421 202.752 160.881 237.028 161.314 279.422C161.747 321.816 161.99 356.092 161.864 356.092Z" fill="#E0E0E0"/>
<path d="M180.995 356.092C180.869 356.092 180.409 321.816 179.976 279.422C179.543 237.028 179.3 202.752 179.435 202.752C179.57 202.752 180.021 237.028 180.454 279.422C180.887 321.816 181.131 356.092 180.995 356.092Z" fill="#E0E0E0"/>
<path d="M199.153 356.092C199.026 356.092 198.566 321.816 198.133 279.422C197.7 237.028 197.457 202.752 197.592 202.752C197.727 202.752 198.169 237.028 198.602 279.422C199.035 321.816 199.288 356.092 199.153 356.092Z" fill="#E0E0E0"/>
<path d="M217.31 356.092C217.184 356.092 216.724 321.816 216.291 279.422C215.858 237.028 215.614 202.752 215.749 202.752C215.885 202.752 216.336 237.028 216.769 279.422C217.202 321.816 217.445 356.092 217.31 356.092Z" fill="#E0E0E0"/>
<path d="M133.126 355.902C132.991 355.902 132.54 321.581 132.107 279.232C131.674 236.883 131.43 202.562 131.557 202.562C131.683 202.562 132.143 236.838 132.576 279.232C133.009 321.626 133.252 355.902 133.126 355.902Z" fill="#E0E0E0"/>
<path d="M152.059 355.704C151.924 355.704 151.473 321.428 151.04 279.034C150.607 236.64 150.363 202.364 150.49 202.364C150.616 202.364 151.076 236.64 151.509 279.034C151.942 321.428 152.185 355.704 152.059 355.704Z" fill="#E0E0E0"/>
<path d="M170.992 355.514C170.866 355.514 170.406 321.193 169.973 278.844C169.54 236.495 169.296 202.174 169.423 202.174C169.549 202.174 170.009 236.45 170.442 278.844C170.875 321.238 171.118 355.514 170.992 355.514Z" fill="#E0E0E0"/>
<path d="M189.925 355.316C189.799 355.316 189.339 321.04 188.906 278.646C188.473 236.252 188.229 201.976 188.356 201.976C188.482 201.976 188.942 236.252 189.375 278.646C189.808 321.04 190.06 355.316 189.925 355.316Z" fill="#E0E0E0"/>
<path d="M208.082 356.29C207.947 356.29 207.496 321.969 207.063 279.62C206.63 237.271 206.378 202.95 206.513 202.95C206.648 202.95 207.099 237.226 207.532 279.62C207.965 322.014 208.209 356.29 208.082 356.29Z" fill="#E0E0E0"/>
<path d="M248.113 336.969C248.113 337.095 213.837 337.547 171.443 337.97C129.049 338.394 94.7731 338.629 94.7731 338.503C94.7731 338.376 129.049 337.925 171.443 337.501C213.837 337.077 248.113 336.834 248.113 336.969Z" fill="#E0E0E0"/>
<path d="M248.952 346.648C248.952 346.783 214.676 347.225 172.282 347.649C129.888 348.073 95.612 348.307 95.612 348.181C95.612 348.055 129.888 347.604 172.282 347.18C214.676 346.756 248.952 346.521 248.952 346.648Z" fill="#E0E0E0"/>
<path d="M247.924 318.036C247.924 318.163 213.603 318.614 171.254 319.037C128.905 319.461 94.5837 319.696 94.5837 319.561C94.5837 319.425 128.86 318.983 171.254 318.559C213.648 318.135 247.924 317.901 247.924 318.036Z" fill="#E0E0E0"/>
<path d="M247.734 299.094C247.734 299.229 213.458 299.671 171.064 300.095C128.67 300.519 94.3943 300.763 94.3943 300.628C94.3943 300.492 128.67 300.05 171.064 299.626C213.458 299.202 247.734 298.968 247.734 299.094Z" fill="#E0E0E0"/>
<path d="M247.545 280.161C247.545 280.297 213.224 280.738 170.875 281.162C128.526 281.586 94.2048 281.821 94.2048 281.695C94.2048 281.568 128.481 281.117 170.875 280.693C213.269 280.269 247.545 280.035 247.545 280.161Z" fill="#E0E0E0"/>
<path d="M247.355 261.228C247.355 261.354 213.034 261.806 170.685 262.229C128.337 262.653 94.0154 262.888 94.0154 262.762C94.0154 262.635 128.291 262.184 170.685 261.76C213.079 261.336 247.355 261.102 247.355 261.228Z" fill="#E0E0E0"/>
<path d="M247.148 242.295C247.148 242.422 212.872 242.873 170.478 243.297C128.084 243.72 93.808 243.955 93.808 243.829C93.808 243.702 128.084 243.251 170.478 242.827C212.872 242.404 247.148 242.16 247.148 242.295Z" fill="#E0E0E0"/>
<path d="M246.977 223.362C246.977 223.489 212.701 223.94 170.307 224.363C127.913 224.787 93.6366 225.022 93.6366 224.887C93.6366 224.751 127.913 224.309 170.307 223.894C212.701 223.48 246.977 223.227 246.977 223.362Z" fill="#E0E0E0"/>
<path d="M246.977 215.776C246.977 215.903 212.701 216.354 170.307 216.778C127.913 217.202 93.6366 217.436 93.6366 217.31C93.6366 217.184 127.913 216.733 170.307 216.309C212.701 215.885 246.977 215.641 246.977 215.776Z" fill="#E0E0E0"/>
<path d="M246.977 233.032C246.977 233.167 212.701 233.609 170.307 234.033C127.913 234.457 93.6366 234.691 93.6366 234.565C93.6366 234.439 127.913 233.988 170.307 233.564C212.701 233.14 246.977 232.905 246.977 233.032Z" fill="#E0E0E0"/>
<path d="M246.977 251.82C246.977 251.947 212.701 252.398 170.307 252.822C127.913 253.246 93.6366 253.48 93.6366 253.345C93.6366 253.209 127.913 252.767 170.307 252.353C212.701 251.938 246.977 251.658 246.977 251.82Z" fill="#E0E0E0"/>
<path d="M246.977 270.6C246.977 270.726 212.701 271.177 170.307 271.601C127.913 272.025 93.6366 272.26 93.6366 272.133C93.6366 272.007 127.913 271.556 170.307 271.132C212.701 270.708 246.977 270.474 246.977 270.6Z" fill="#E0E0E0"/>
<path d="M246.977 289.389C246.977 289.515 212.701 289.966 170.307 290.381C127.913 290.796 93.6366 291.048 93.6366 290.913C93.6366 290.778 127.913 290.336 170.307 289.912C212.701 289.488 246.977 289.253 246.977 289.389Z" fill="#E0E0E0"/>
<path d="M246.977 308.168C246.977 308.295 212.701 308.746 170.307 309.17C127.913 309.593 93.6366 309.828 93.6366 309.702C93.6366 309.575 127.913 309.124 170.307 308.7C212.701 308.277 246.977 308.042 246.977 308.168Z" fill="#E0E0E0"/>
<path d="M246.977 326.948C246.977 327.083 212.701 327.525 170.307 327.949C127.913 328.373 93.6366 328.617 93.6366 328.481C93.6366 328.346 127.913 327.904 170.307 327.48C212.701 327.056 246.977 326.822 246.977 326.948Z" fill="#E0E0E0"/>
</g>
<path d="M153.34 228.675C154.188 232.86 156.046 237.118 159.537 239.499C161.045 240.539 162.788 241.189 164.609 241.391C166.43 241.592 168.272 241.34 169.972 240.655C171.671 239.97 173.175 238.875 174.347 237.468C175.52 236.06 176.325 234.383 176.691 232.588C177.058 230.793 176.973 228.935 176.446 227.18C175.918 225.426 174.964 223.829 173.668 222.534C172.373 221.238 170.776 220.284 169.022 219.757C167.267 219.229 165.409 219.144 163.614 219.511" fill="#E0E0E0"/>
<path d="M153.115 228.639C153.208 230.381 153.816 232.056 154.861 233.453C155.906 234.849 157.342 235.905 158.987 236.485C160.632 237.066 162.412 237.146 164.103 236.715C165.793 236.284 167.318 235.361 168.484 234.064C169.65 232.767 170.406 231.153 170.655 229.426C170.904 227.7 170.635 225.938 169.883 224.364C169.131 222.79 167.93 221.474 166.43 220.583C164.93 219.692 163.2 219.265 161.458 219.357C160.301 219.419 159.167 219.707 158.121 220.207C157.075 220.706 156.138 221.407 155.363 222.269C154.588 223.131 153.991 224.137 153.605 225.23C153.219 226.323 153.052 227.482 153.115 228.639Z" fill="#06D6A0"/>
<path d="M148.045 225.374C148.1 226.419 148.464 227.426 149.091 228.265C149.718 229.104 150.58 229.738 151.567 230.087C152.554 230.436 153.623 230.485 154.638 230.227C155.653 229.969 156.569 229.415 157.269 228.636C157.97 227.858 158.423 226.889 158.573 225.852C158.723 224.816 158.562 223.758 158.11 222.813C157.659 221.868 156.937 221.078 156.037 220.543C155.136 220.008 154.097 219.753 153.051 219.808C151.65 219.883 150.335 220.511 149.396 221.555C148.457 222.598 147.972 223.972 148.045 225.374Z" fill="#06D6A0"/>
<path d="M152.979 230.272C153.647 230.27 154.313 230.194 154.964 230.046C155.728 229.831 156.431 229.44 157.017 228.905C157.603 228.369 158.055 227.703 158.337 226.961C158.582 226.205 158.657 225.404 158.558 224.615C158.458 223.826 158.185 223.069 157.76 222.397C157.372 221.849 156.934 221.339 156.452 220.873C156.637 220.917 156.81 221.003 156.957 221.125C157.379 221.422 157.746 221.792 158.039 222.217C158.54 222.919 158.869 223.729 158.997 224.581C159.126 225.434 159.051 226.305 158.779 227.124C158.448 228.021 157.873 228.808 157.119 229.397C156.507 229.868 155.799 230.201 155.045 230.371C154.542 230.487 154.022 230.508 153.511 230.434C153.16 230.38 152.97 230.299 152.979 230.272Z" fill="#263238"/>
<path d="M157.408 221.892C158.422 222.15 159.477 222.202 160.511 222.045C161.502 221.731 162.421 221.226 163.217 220.557C163.262 220.557 163.1 220.945 162.676 221.378C162.1 221.936 161.383 222.326 160.601 222.505C159.818 222.69 158.999 222.649 158.238 222.388C157.679 222.145 157.381 221.892 157.408 221.892Z" fill="#263238"/>
<path d="M158.752 235.26C158.68 235.26 158.617 234.836 158.373 234.195C158.059 233.365 157.567 232.613 156.93 231.994C156.279 231.388 155.499 230.938 154.648 230.677C153.998 230.47 153.556 230.425 153.566 230.353C153.575 230.281 154.007 230.217 154.729 230.353C155.673 230.541 156.545 230.991 157.245 231.652C157.945 232.312 158.445 233.156 158.689 234.087C158.878 234.8 158.833 235.26 158.752 235.26Z" fill="#263238"/>
<path d="M207.189 258.748C207.189 258.883 188.365 258.982 165.156 258.982C141.948 258.982 123.114 258.883 123.114 258.748C123.114 258.612 141.93 258.513 165.156 258.513C188.383 258.513 207.189 258.621 207.189 258.748Z" fill="#263238"/>
<path d="M207.189 267.488C207.189 267.614 188.365 267.723 165.156 267.723C141.948 267.723 123.114 267.614 123.114 267.488C123.114 267.362 141.93 267.254 165.156 267.254C188.383 267.254 207.189 267.362 207.189 267.488Z" fill="#263238"/>
<path d="M207.189 276.228C207.189 276.355 188.365 276.463 165.156 276.463C141.948 276.463 123.114 276.355 123.114 276.228C123.114 276.102 141.93 275.994 165.156 275.994C188.383 275.994 207.189 276.102 207.189 276.228Z" fill="#263238"/>
<path d="M207.189 284.969C207.189 285.095 188.365 285.203 165.156 285.203C141.948 285.203 123.114 285.095 123.114 284.969C123.114 284.842 141.93 284.734 165.156 284.734C188.383 284.734 207.189 284.842 207.189 284.969Z" fill="#263238"/>
<path d="M207.189 293.709C207.189 293.835 188.365 293.944 165.156 293.944C141.948 293.944 123.114 293.835 123.114 293.709C123.114 293.583 141.93 293.475 165.156 293.475C188.383 293.475 207.189 293.583 207.189 293.709Z" fill="#263238"/>
<path d="M207.189 302.45C207.189 302.576 188.365 302.684 165.156 302.684C141.948 302.684 123.114 302.576 123.114 302.45C123.114 302.323 141.93 302.215 165.156 302.215C188.383 302.215 207.189 302.314 207.189 302.45Z" fill="#263238"/>
<path d="M207.189 311.19C207.189 311.316 188.365 311.425 165.156 311.425C141.948 311.425 123.114 311.316 123.114 311.19C123.114 311.064 141.93 310.955 165.156 310.955C188.383 310.955 207.189 311.055 207.189 311.19Z" fill="#263238"/>
<path d="M312.308 398.377C334.083 391.161 319.155 362.36 319.155 362.36L223.976 371.317C222.16 371.304 220.359 371.651 218.678 372.336C216.996 373.022 215.467 374.034 214.178 375.314C212.89 376.593 211.867 378.115 211.169 379.791C210.471 381.468 210.112 383.266 210.112 385.082C210.112 388.735 211.563 392.238 214.146 394.821C216.729 397.404 220.232 398.855 223.885 398.855L312.281 398.377" fill="#263238"/>
<path d="M334.588 398.35C355.812 391.188 341.181 362.36 341.181 362.36L248.402 371.101C239.382 371.218 234.917 375.611 234.917 384.838C234.917 392.442 237.74 398.855 248.375 398.639L334.588 398.35Z" fill="#263238"/>
<path d="M313.048 367.222H312.787H312.011L309.043 367.348L298.129 367.89L262.121 369.865C260.317 369.946 258.63 370.1 256.917 370.118C255.203 370.136 253.507 370.217 251.847 370.316C250.188 370.415 248.555 370.542 246.968 370.713C245.384 370.824 243.821 371.145 242.322 371.669C240.879 372.219 239.565 373.06 238.462 374.141C237.421 375.208 236.624 376.488 236.126 377.893C235.658 379.206 235.337 380.568 235.169 381.952C234.998 383.225 234.914 384.509 234.917 385.794C234.884 388.008 235.301 390.205 236.144 392.253C236.784 393.772 237.773 395.119 239.03 396.185C239.797 396.849 240.69 397.352 241.655 397.665C242.313 397.872 242.322 397.809 241.655 397.574C240.724 397.217 239.865 396.695 239.12 396.032C237.915 394.961 236.971 393.628 236.36 392.135C235.562 390.128 235.175 387.981 235.224 385.821C235.238 384.554 235.335 383.288 235.512 382.033C235.683 380.682 236.003 379.354 236.468 378.073C236.952 376.723 237.721 375.492 238.723 374.465C239.791 373.434 241.059 372.633 242.449 372.111C243.905 371.61 245.422 371.307 246.959 371.209C248.537 371.047 250.161 370.929 251.82 370.83C253.48 370.731 255.158 370.668 256.872 370.641C258.585 370.614 260.326 370.46 262.085 370.379L298.093 368.259L308.998 367.556L311.966 367.339L312.732 367.276C312.84 367.277 312.947 367.259 313.048 367.222Z" fill="#455A64"/>
<path d="M334.002 376.305C333.777 376.476 333.524 376.605 333.253 376.684C332.528 376.949 331.768 377.104 330.998 377.144C329.713 377.243 328.423 377.059 327.217 376.605C326.011 376.151 324.92 375.437 324.02 374.515C323.12 373.593 322.434 372.484 322.009 371.268C321.585 370.051 321.432 368.757 321.563 367.475C321.625 366.705 321.798 365.949 322.077 365.229C322.285 364.724 322.447 364.471 322.474 364.489C322.193 365.47 322.009 366.476 321.924 367.493C321.843 368.711 322.02 369.932 322.441 371.077C322.862 372.223 323.519 373.267 324.369 374.143C325.219 375.018 326.244 375.706 327.376 376.161C328.509 376.616 329.724 376.828 330.944 376.783C331.976 376.726 333.001 376.565 334.002 376.305Z" fill="#455A64"/>
<path d="M306.058 284.193C294.25 285.519 292.338 293.538 286.836 301.43L278.871 316.124L293.511 325.099L293.006 347.649L287.016 367.601L342.156 364.489L336.013 345.547L343.355 316.593C343.915 312.642 345.43 305.309 344.402 301.421C341.191 289.29 328.581 285.745 319.903 283.49C318.099 283.03 309.476 283.057 307.979 283.417" fill="#06D6A0"/>
<path d="M299.834 345.899C300.537 345.768 301.263 345.92 301.854 346.323C302.532 346.715 303.078 347.299 303.424 348.001C303.845 348.876 303.916 349.88 303.622 350.806C303.354 351.739 302.746 352.537 301.917 353.043C301.241 353.436 300.462 353.619 299.68 353.566C298.966 353.58 298.276 353.311 297.759 352.817C298.376 353.06 299.028 353.203 299.69 353.241C300.396 353.236 301.088 353.039 301.692 352.673C302.419 352.206 302.954 351.495 303.2 350.667C303.447 349.84 303.389 348.951 303.036 348.163C302.737 347.526 302.269 346.983 301.683 346.594C301.108 346.264 300.484 346.03 299.834 345.899Z" fill="#FAFAFA"/>
<path d="M312.994 321.545C312.994 321.635 318.622 323.593 325.622 325.911C332.622 328.229 338.34 330.042 338.376 329.952C338.412 329.861 332.748 327.904 325.748 325.577C318.749 323.25 312.994 321.455 312.994 321.545Z" fill="#263238"/>
<g opacity="0.3">
<path d="M335.652 333.65C334.611 338.446 333.252 343.168 331.584 347.784C330.528 350.717 329.028 353.47 327.137 355.947C324.34 359.17 320.612 361.445 316.467 362.46C312.334 363.461 308.05 363.672 303.839 363.082L324.81 351.239L330.385 331.855L335.652 333.65Z" fill="black"/>
</g>
<path d="M293.015 347.036C293.104 346.517 293.149 345.992 293.15 345.466C293.204 344.348 293.276 342.877 293.358 341.1C293.52 337.411 293.7 332.306 293.872 326.668C294.043 321.031 294.169 315.926 294.232 312.236C294.232 310.432 294.232 308.98 294.287 307.862C294.314 307.323 294.296 306.783 294.232 306.247C294.142 306.778 294.093 307.314 294.088 307.853C294.034 308.971 293.962 310.441 293.872 312.218C293.718 315.908 293.529 321.013 293.367 326.65C293.204 332.288 293.069 337.384 292.997 341.082C292.997 342.886 292.997 344.33 292.952 345.457C292.932 345.984 292.953 346.512 293.015 347.036Z" fill="#263238"/>
<path d="M281.018 312.218C282.986 313.665 285.05 314.976 287.197 316.142C289.262 317.45 291.414 318.616 293.637 319.633C291.673 318.177 289.608 316.863 287.458 315.7C285.398 314.387 283.245 313.223 281.018 312.218Z" fill="#263238"/>
<path d="M308.574 303.072C308.184 303.673 307.571 304.095 306.869 304.245C306.22 304.43 305.534 304.444 304.878 304.286C304.221 304.128 303.617 303.804 303.122 303.344C302.628 302.884 302.261 302.304 302.056 301.661C301.851 301.018 301.816 300.332 301.954 299.672C302.119 298.905 302.509 298.205 303.072 297.66C303.309 297.394 303.595 297.178 303.916 297.023C304.236 296.868 304.584 296.778 304.939 296.758C304.34 297.039 303.789 297.414 303.307 297.868C302.827 298.37 302.493 298.994 302.341 299.672C302.185 300.515 302.339 301.386 302.774 302.125C303.189 302.879 303.866 303.454 304.678 303.74C305.348 303.958 306.064 303.992 306.752 303.839C307.396 303.68 308.011 303.422 308.574 303.072Z" fill="#FAFAFA"/>
<path d="M296.966 318.604C296.543 318.025 296.368 317.301 296.478 316.593C296.535 315.92 296.766 315.272 297.147 314.714C297.528 314.156 298.047 313.706 298.654 313.408C299.26 313.111 299.934 312.975 300.609 313.014C301.283 313.054 301.936 313.268 302.504 313.634C303.152 314.08 303.654 314.708 303.947 315.438C304.268 316.077 304.323 316.816 304.1 317.495C304.052 316.834 303.897 316.185 303.64 315.574C303.333 314.939 302.859 314.399 302.269 314.013C301.532 313.576 300.666 313.41 299.82 313.544C298.973 313.677 298.2 314.101 297.633 314.744C297.188 315.291 296.901 315.949 296.803 316.647C296.748 317.304 296.803 317.966 296.966 318.604Z" fill="#FAFAFA"/>
<path d="M296.966 338.512C296.543 337.932 296.368 337.209 296.478 336.5C296.535 335.827 296.766 335.18 297.147 334.621C297.528 334.063 298.047 333.614 298.654 333.316C299.26 333.018 299.934 332.882 300.609 332.922C301.283 332.961 301.936 333.175 302.504 333.542C303.152 333.988 303.654 334.615 303.947 335.346C304.268 335.984 304.323 336.723 304.1 337.402C304.052 336.741 303.897 336.092 303.64 335.481C303.333 334.846 302.859 334.307 302.269 333.92C301.536 333.49 300.676 333.326 299.836 333.458C298.995 333.589 298.227 334.008 297.66 334.642C297.215 335.189 296.928 335.847 296.83 336.545C296.765 337.204 296.811 337.868 296.966 338.512Z" fill="#FAFAFA"/>
<path d="M314.374 313.689C313.659 313.71 312.965 313.447 312.444 312.958C311.831 312.473 311.376 311.817 311.136 311.073C310.857 310.142 310.938 309.141 311.361 308.268C311.772 307.386 312.495 306.689 313.391 306.31C314.121 306.029 314.917 305.966 315.682 306.13C316.036 306.174 316.377 306.288 316.687 306.464C316.996 306.64 317.268 306.876 317.486 307.158C316.923 306.835 316.315 306.598 315.682 306.455C314.983 306.348 314.267 306.439 313.616 306.716C312.834 307.068 312.203 307.687 311.836 308.463C311.469 309.238 311.39 310.118 311.614 310.947C311.816 311.623 312.2 312.231 312.723 312.705C313.217 313.12 313.775 313.452 314.374 313.689Z" fill="#FAFAFA"/>
<path d="M307.311 321.644C307.927 322.012 308.371 322.609 308.547 323.304C308.831 324.134 308.824 325.036 308.529 325.862C308.234 326.688 307.668 327.39 306.922 327.853C306.177 328.315 305.297 328.512 304.425 328.41C303.554 328.308 302.743 327.913 302.125 327.291C301.586 326.836 301.246 326.188 301.178 325.487C301.478 326.08 301.875 326.619 302.35 327.083C302.88 327.552 303.53 327.864 304.227 327.985C305.074 328.105 305.937 327.922 306.664 327.471C307.391 327.019 307.936 326.326 308.204 325.514C308.394 324.832 308.394 324.112 308.204 323.43C308.012 322.788 307.71 322.183 307.311 321.644Z" fill="#FAFAFA"/>
<path d="M292.988 294.62C293.336 294.552 293.694 294.555 294.041 294.628C294.388 294.7 294.717 294.842 295.008 295.044C295.686 295.434 296.235 296.014 296.587 296.713C296.883 297.325 297.014 298.004 296.966 298.682C296.918 299.361 296.693 300.015 296.313 300.579C295.933 301.143 295.412 301.598 294.802 301.897C294.191 302.197 293.513 302.332 292.834 302.287C292.12 302.301 291.43 302.032 290.913 301.539C291.531 301.775 292.182 301.915 292.843 301.954C293.55 301.956 294.243 301.762 294.846 301.394C295.564 300.925 296.092 300.215 296.334 299.392C296.583 298.571 296.532 297.689 296.19 296.902C295.893 296.264 295.425 295.72 294.837 295.333C294.265 294.992 293.64 294.751 292.988 294.62Z" fill="#FAFAFA"/>
<path d="M317.847 318.532C317.486 317.914 317.386 317.177 317.567 316.485C317.707 315.716 318.068 315.005 318.604 314.437C319.295 313.754 320.214 313.349 321.184 313.301C322.059 313.241 322.928 313.485 323.644 313.991C324.36 314.497 324.88 315.234 325.117 316.079C325.373 316.747 325.353 317.49 325.063 318.144C325.081 317.479 324.993 316.815 324.801 316.178C324.561 315.516 324.142 314.932 323.592 314.491C322.906 313.979 322.061 313.724 321.206 313.77C320.351 313.816 319.539 314.161 318.911 314.744C318.413 315.241 318.061 315.865 317.892 316.548C317.774 317.203 317.759 317.872 317.847 318.532Z" fill="#FAFAFA"/>
<path d="M308.917 333.154C309.62 333.023 310.346 333.175 310.937 333.578C311.616 333.971 312.165 334.554 312.516 335.255C312.923 336.136 312.994 337.135 312.715 338.064C312.436 338.993 311.826 339.788 311.001 340.298C310.325 340.687 309.551 340.869 308.773 340.821C308.055 340.837 307.361 340.568 306.842 340.072C307.464 340.309 308.118 340.449 308.782 340.487C309.485 340.488 310.175 340.294 310.775 339.928C311.502 339.461 312.037 338.75 312.284 337.922C312.53 337.094 312.472 336.206 312.119 335.418C311.82 334.781 311.352 334.238 310.766 333.848C310.194 333.513 309.569 333.278 308.917 333.154Z" fill="#FAFAFA"/>
<path d="M323.304 359.204C323.304 358.486 323.59 357.798 324.098 357.291C324.541 356.781 325.108 356.394 325.745 356.168C326.382 355.942 327.067 355.884 327.733 356.002C328.399 356.119 329.023 356.406 329.544 356.836C330.066 357.266 330.467 357.824 330.709 358.455C330.973 359.19 331.014 359.987 330.827 360.746C330.706 361.452 330.314 362.083 329.735 362.505C330.085 361.948 330.344 361.339 330.502 360.701C330.623 360.007 330.555 359.293 330.303 358.635C329.968 357.848 329.367 357.204 328.606 356.813C327.845 356.423 326.971 356.311 326.136 356.498C325.451 356.675 324.827 357.037 324.332 357.544C323.909 358.043 323.563 358.602 323.304 359.204Z" fill="#FAFAFA"/>
<path d="M333.74 344.871C334.094 344.915 334.435 345.028 334.745 345.205C335.054 345.381 335.326 345.617 335.544 345.899C336.142 346.542 336.499 347.372 336.555 348.248C336.611 349.124 336.362 349.993 335.851 350.707C335.308 351.513 334.479 352.083 333.533 352.303C332.771 352.471 331.976 352.408 331.25 352.123C330.566 351.915 329.992 351.445 329.654 350.815C330.165 351.235 330.741 351.57 331.359 351.807C332.03 352.023 332.747 352.051 333.433 351.888C334.257 351.656 334.974 351.143 335.46 350.438C335.946 349.733 336.17 348.881 336.094 348.028C336.012 347.328 335.733 346.665 335.291 346.115C334.847 345.617 334.323 345.196 333.74 344.871Z" fill="#FAFAFA"/>
<path d="M333.74 317.279C334.453 317.378 335.1 317.749 335.544 318.316C336.068 318.896 336.409 319.618 336.527 320.39C336.643 321.353 336.403 322.326 335.851 323.123C335.299 323.921 334.474 324.489 333.533 324.72C332.767 324.883 331.972 324.82 331.241 324.54C330.556 324.33 329.982 323.856 329.645 323.223C330.156 323.65 330.735 323.988 331.359 324.224C332.03 324.441 332.749 324.466 333.433 324.296C334.262 324.075 334.986 323.566 335.473 322.86C335.961 322.155 336.181 321.298 336.094 320.445C336.008 319.745 335.73 319.084 335.291 318.532C334.843 318.036 334.32 317.612 333.74 317.279Z" fill="#FAFAFA"/>
<path d="M339.684 312.209C338.97 312.259 338.265 312.029 337.718 311.569C337.088 311.117 336.605 310.489 336.329 309.765C336.017 308.847 336.052 307.846 336.428 306.952C336.803 306.058 337.493 305.332 338.367 304.912C339.083 304.592 339.877 304.492 340.649 304.623C341.352 304.694 342 305.038 342.453 305.58C341.868 305.266 341.233 305.052 340.577 304.948C339.875 304.879 339.168 305 338.53 305.3C337.77 305.695 337.174 306.344 336.844 307.133C336.515 307.923 336.473 308.803 336.726 309.621C336.954 310.287 337.363 310.877 337.907 311.325C338.448 311.713 339.048 312.012 339.684 312.209Z" fill="#FAFAFA"/>
<path d="M329.645 297.002C328.934 297.054 328.23 296.824 327.688 296.361C327.058 295.909 326.575 295.281 326.298 294.557C325.987 293.639 326.022 292.638 326.398 291.744C326.773 290.85 327.463 290.124 328.337 289.704C329.052 289.384 329.847 289.283 330.619 289.416C331.322 289.487 331.97 289.83 332.423 290.372C331.834 290.069 331.201 289.859 330.547 289.749C329.846 289.671 329.137 289.79 328.499 290.092C327.74 290.487 327.144 291.136 326.814 291.925C326.485 292.715 326.442 293.595 326.695 294.413C326.927 295.081 327.335 295.673 327.877 296.127C328.418 296.507 329.014 296.802 329.645 297.002Z" fill="#FAFAFA"/>
<path d="M289.542 314.527C288.829 314.578 288.126 314.344 287.585 313.878C286.869 313.372 286.349 312.634 286.114 311.79C285.879 310.945 285.943 310.045 286.295 309.242C286.663 308.343 287.355 307.615 288.234 307.203C288.949 306.883 289.744 306.782 290.516 306.915C290.865 306.946 291.205 307.047 291.514 307.211C291.824 307.376 292.098 307.6 292.32 307.871C291.734 307.557 291.1 307.343 290.444 307.239C289.742 307.17 289.035 307.292 288.396 307.591C287.637 307.986 287.041 308.635 286.711 309.424C286.382 310.214 286.34 311.094 286.592 311.912C286.824 312.577 287.232 313.166 287.774 313.616C288.312 314.011 288.909 314.318 289.542 314.527Z" fill="#FAFAFA"/>
<path d="M329.762 300.483C330.116 300.529 330.458 300.644 330.768 300.822C331.078 301 331.349 301.237 331.566 301.521C332.093 302.099 332.436 302.821 332.549 303.595C332.664 304.557 332.424 305.527 331.874 306.324C331.325 307.121 330.503 307.69 329.564 307.925C328.799 308.088 328.003 308.025 327.273 307.744C326.587 307.534 326.013 307.061 325.676 306.427C326.187 306.855 326.767 307.193 327.39 307.429C328.061 307.646 328.78 307.671 329.465 307.501C330.293 307.28 331.014 306.768 331.494 306.058C331.984 305.355 332.207 304.502 332.125 303.649C332.036 302.949 331.755 302.288 331.314 301.737C330.865 301.241 330.341 300.818 329.762 300.483Z" fill="#FAFAFA"/>
<path d="M342.417 316.395C342.37 316.497 342.331 316.602 342.3 316.71C342.228 316.936 342.12 317.242 341.993 317.612C341.723 318.451 341.344 319.642 340.866 321.166L336.852 334.038L337.041 333.948L312.525 324.928L311.912 324.675L312.02 324.873C313.503 319.357 315.421 313.967 317.757 308.755C319.573 304.469 322.03 300.485 325.045 296.938C326.226 295.609 327.619 294.484 329.167 293.61C330.329 292.938 331.633 292.552 332.973 292.483C333.232 292.465 333.491 292.465 333.749 292.483L334.435 292.555C334.642 292.555 334.84 292.555 335.012 292.627L335.49 292.753L336.13 292.916L336.347 292.961L336.139 292.888L335.508 292.681L335.03 292.546C334.858 292.501 334.66 292.492 334.444 292.456L333.758 292.365C333.494 292.347 333.229 292.347 332.964 292.365C331.599 292.411 330.266 292.785 329.077 293.457C327.494 294.323 326.069 295.451 324.864 296.794C321.802 300.34 319.307 304.338 317.468 308.646C315.106 313.87 313.169 319.275 311.677 324.81V324.955L311.812 325.009L312.435 325.261C321.617 328.698 330.132 331.756 336.978 334.281L337.113 334.335L337.159 334.191L341.055 321.283C341.506 319.75 341.858 318.577 342.111 317.675C342.219 317.27 342.309 316.963 342.372 316.728C342.4 316.619 342.415 316.507 342.417 316.395Z" fill="#263238"/>
<path d="M296.145 331.178L291.4 346.034C290.494 349.057 288.77 351.771 286.419 353.877C284.068 355.982 281.182 357.398 278.078 357.968L246.372 363.921L237.74 363.641L246.372 352.962L270.203 344.844C271.346 344.598 272.4 344.042 273.248 343.236C274.096 342.431 274.706 341.408 275.011 340.279L284.5 319.642L296.523 327.011L296.145 331.178Z" fill="#FFBE9D"/>
<path d="M333.253 332.576L328.084 349.489C327.193 352.529 325.482 355.265 323.138 357.397C320.794 359.529 317.909 360.975 314.798 361.576L283.093 367.601L274.47 367.321L277.401 359.961L306.933 348.28C308.081 348.022 309.136 347.455 309.983 346.639C310.831 345.823 311.439 344.79 311.74 343.653L316.151 326.632L333.253 332.576Z" fill="#FFBE9D"/>
<path d="M305.156 367.827L304.885 365.77L280.531 364.814L268.57 334.669L223.029 337.754L238.399 371.218L305.156 367.827Z" fill="#455A64"/>
<path d="M250.648 354.224C250.9 354.625 251.266 354.941 251.698 355.133C252.13 355.326 252.61 355.385 253.076 355.305C253.542 355.224 253.974 355.007 254.317 354.681C254.66 354.355 254.898 353.935 255.002 353.473C255.105 353.012 255.07 352.53 254.899 352.088C254.729 351.647 254.431 351.266 254.044 350.994C253.657 350.722 253.198 350.571 252.725 350.56C252.252 350.549 251.787 350.678 251.387 350.932C250.855 351.273 250.479 351.81 250.341 352.426C250.203 353.043 250.313 353.689 250.648 354.224Z" fill="white"/>
<path d="M319.173 231.814C322.746 232.054 326.172 233.326 329.035 235.477C331.898 237.627 334.075 240.563 335.3 243.928C335.733 245.191 336.031 246.499 336.581 247.716C337.081 248.97 338.016 250.001 339.215 250.621C340.117 251.027 341.127 251.072 342.047 251.414C342.821 251.72 343.509 252.207 344.054 252.835C344.599 253.463 344.984 254.214 345.177 255.022C345.357 255.834 345.375 256.674 345.229 257.493C345.084 258.312 344.778 259.094 344.329 259.794C343.791 260.431 343.425 261.195 343.265 262.013C343.301 262.576 343.414 263.131 343.599 263.664C343.826 264.6 343.747 265.585 343.374 266.474C343.001 267.363 342.352 268.109 341.524 268.602C340.696 269.095 339.731 269.31 338.772 269.215C337.813 269.12 336.909 268.72 336.193 268.074C335.719 269.5 334.762 270.715 333.487 271.511C332.134 272.151 330.141 271.574 329.879 270.104C329.52 270.789 328.95 271.341 328.253 271.678C327.557 272.014 326.77 272.118 326.01 271.973C325.25 271.829 324.556 271.444 324.031 270.875C323.507 270.306 323.179 269.583 323.096 268.814" fill="#263238"/>
<path d="M297.552 254.003C294.611 250.567 294.566 245.173 296.65 241.15C298.733 237.127 302.693 234.358 306.86 232.716C312.597 230.461 319.443 230.226 324.603 233.618C326.857 235.137 328.666 237.229 329.842 239.68C331.019 242.13 331.521 244.85 331.297 247.559C331.072 250.268 330.13 252.868 328.567 255.091C327.003 257.315 324.875 259.081 322.402 260.209" fill="#06D6A0"/>
<path d="M331.512 245.624C330.821 245.791 330.112 245.873 329.401 245.867C328.704 246.01 327.993 246.067 327.282 246.039C327.922 245.687 328.627 245.47 329.354 245.398C330.081 245.327 330.815 245.404 331.512 245.624Z" fill="#FAFAFA"/>
<path d="M328.752 238.128C328.139 238.343 327.503 238.489 326.858 238.561C325.829 238.786 325.054 239.12 324.964 238.994C325.443 238.494 326.08 238.176 326.768 238.092C327.413 237.871 328.115 237.884 328.752 238.128Z" fill="#FAFAFA"/>
<path d="M323.367 233.077C323.367 233.212 322.14 233.375 320.661 233.862C319.812 234.225 318.945 234.544 318.063 234.818C318.733 234.127 319.583 233.64 320.517 233.411C321.414 233.026 322.405 232.91 323.367 233.077Z" fill="#FAFAFA"/>
<path d="M314.392 231.083C314.392 231.21 313.274 231.579 312.101 232.445C310.928 233.311 310.216 234.249 310.099 234.195C310.413 233.305 311.025 232.55 311.83 232.058C312.543 231.442 313.45 231.097 314.392 231.083Z" fill="#FAFAFA"/>
<path d="M304.055 234.394C304.127 234.502 303.758 234.863 303.433 235.377C303.207 235.729 303.063 236.071 302.946 236.279L302.738 236.595V236.288C302.738 236.189 302.738 236.126 302.792 236.108C302.846 236.089 302.892 236.108 302.955 236.216H302.738C302.726 235.838 302.834 235.465 303.045 235.151C303.424 234.52 303.974 234.285 304.055 234.394Z" fill="#FAFAFA"/>
<path d="M329.618 253.507C329.618 253.633 328.806 253.706 327.859 253.417C326.912 253.128 326.289 252.605 326.353 252.515C326.416 252.425 327.119 252.704 327.994 252.975C328.869 253.246 329.627 253.381 329.618 253.507Z" fill="#FAFAFA"/>
<path d="M343.842 246.246C343.842 246.246 343.68 246.841 342.742 247.148C342.46 247.234 342.163 247.261 341.87 247.229C341.577 247.196 341.294 247.104 341.037 246.959C340.702 246.75 340.423 246.463 340.225 246.122C340.026 245.78 339.915 245.396 339.901 245.001C339.884 244.521 339.995 244.044 340.223 243.621C340.452 243.197 340.789 242.843 341.2 242.593C341.668 242.304 342.202 242.14 342.751 242.116C343.301 242.093 343.847 242.21 344.339 242.458C344.884 242.716 345.36 243.1 345.729 243.579C346.097 244.057 346.347 244.615 346.458 245.209C346.568 245.84 346.545 246.487 346.39 247.108C346.234 247.73 345.95 248.312 345.556 248.817C345.141 249.313 344.615 249.705 344.022 249.963C343.429 250.222 342.784 250.339 342.138 250.305C340.956 250.267 339.809 249.898 338.827 249.241C337.265 248.078 335.937 246.631 334.913 244.974C334.205 243.897 333.421 242.872 332.567 241.907C331.945 241.249 331.548 240.933 331.575 240.906C331.602 240.879 331.692 240.951 331.891 241.096C332.174 241.309 332.445 241.538 332.703 241.781C333.617 242.707 334.447 243.712 335.183 244.785C336.222 246.37 337.535 247.757 339.062 248.88C339.983 249.477 341.05 249.811 342.147 249.845C342.721 249.877 343.295 249.774 343.822 249.546C344.35 249.317 344.817 248.969 345.186 248.528C345.538 248.072 345.791 247.548 345.93 246.989C346.068 246.43 346.088 245.848 345.989 245.281C345.895 244.754 345.677 244.258 345.354 243.831C345.031 243.405 344.612 243.061 344.131 242.827C343.709 242.614 343.24 242.51 342.768 242.524C342.295 242.538 341.833 242.67 341.425 242.909C341.062 243.113 340.76 243.412 340.554 243.774C340.347 244.137 340.243 244.548 340.252 244.965C340.253 245.307 340.335 245.645 340.492 245.949C340.649 246.253 340.876 246.516 341.154 246.715C341.379 246.852 341.629 246.943 341.889 246.983C342.149 247.023 342.414 247.012 342.67 246.95C343.126 246.847 343.537 246.601 343.842 246.246Z" fill="#263238"/>
<path d="M323.114 241.484C323.908 241.567 324.641 241.945 325.168 242.543C325.696 243.141 325.98 243.915 325.965 244.713L324.161 287.765C324.089 292.852 314.87 298.86 309.422 298.751C303.929 298.634 305.543 292.798 305.462 287.927C305.327 279.809 305.336 276.815 305.327 276.86C305.318 276.905 298.382 275.705 296.947 266.64C296.226 262.13 296.451 254.743 296.839 248.7C297.173 243.288 300.781 236.595 306.193 237.163L323.114 241.484Z" fill="#FFBE9D"/>
<path d="M299.193 254.608C299.189 254.911 299.303 255.204 299.512 255.423C299.722 255.642 300.009 255.771 300.312 255.78C300.46 255.792 300.609 255.775 300.75 255.729C300.891 255.682 301.021 255.608 301.133 255.511C301.245 255.413 301.336 255.294 301.401 255.161C301.466 255.027 301.504 254.882 301.512 254.734C301.514 254.426 301.395 254.129 301.181 253.908C300.967 253.687 300.674 253.559 300.366 253.552C300.071 253.537 299.782 253.64 299.562 253.838C299.342 254.036 299.21 254.312 299.193 254.608Z" fill="#263238"/>
<path d="M298.436 252.56C298.58 252.713 299.464 252.064 300.718 252.064C301.972 252.064 302.883 252.695 303.018 252.542C303.153 252.389 302.937 252.199 302.54 251.911C301.996 251.537 301.351 251.339 300.691 251.342C300.043 251.343 299.412 251.549 298.887 251.929C298.499 252.244 298.364 252.56 298.436 252.56Z" fill="#263238"/>
<path d="M311.416 254.608C311.413 254.91 311.528 255.202 311.737 255.421C311.946 255.639 312.232 255.768 312.534 255.78C312.682 255.792 312.831 255.775 312.972 255.729C313.113 255.682 313.243 255.608 313.355 255.511C313.467 255.413 313.558 255.294 313.623 255.161C313.688 255.027 313.726 254.882 313.734 254.734C313.739 254.43 313.624 254.136 313.415 253.915C313.206 253.694 312.919 253.564 312.615 253.552C312.467 253.542 312.318 253.562 312.178 253.61C312.037 253.658 311.908 253.733 311.796 253.831C311.685 253.929 311.594 254.048 311.528 254.181C311.463 254.315 311.425 254.459 311.416 254.608Z" fill="#263238"/>
<path d="M310.73 252.813C310.874 252.966 311.758 252.317 313.012 252.317C314.266 252.317 315.177 252.948 315.312 252.795C315.447 252.641 315.231 252.452 314.834 252.163C314.29 251.79 313.645 251.591 312.985 251.595C312.336 251.592 311.704 251.797 311.181 252.181C310.793 252.47 310.658 252.749 310.73 252.813Z" fill="#263238"/>
<path d="M306.193 262.094C305.535 261.886 304.853 261.762 304.163 261.724C303.839 261.724 303.541 261.625 303.487 261.409C303.46 261.078 303.535 260.747 303.703 260.461L304.605 258.035C305.922 254.571 306.869 251.721 306.725 251.667C305.689 253.654 304.812 255.72 304.1 257.846L303.198 260.29C302.998 260.69 302.953 261.149 303.072 261.58C303.119 261.694 303.191 261.795 303.283 261.876C303.376 261.958 303.485 262.017 303.604 262.049C303.781 262.097 303.963 262.121 304.145 262.121C304.826 262.199 305.514 262.19 306.193 262.094Z" fill="#263238"/>
<path d="M305.327 276.914C309.609 276.977 313.825 275.85 317.504 273.658C317.504 273.658 314.554 279.882 305.489 279.07L305.327 276.914Z" fill="#EB996E"/>
<path d="M306.725 265.107C306.964 264.808 307.274 264.574 307.627 264.427C307.981 264.281 308.365 264.226 308.746 264.268C309.021 264.294 309.288 264.376 309.531 264.508C309.775 264.639 309.989 264.819 310.162 265.035C310.329 265.243 310.428 265.497 310.446 265.763C310.464 266.029 310.399 266.295 310.261 266.523C310.061 266.75 309.797 266.911 309.504 266.985C309.211 267.059 308.903 267.043 308.619 266.938C308.03 266.726 307.488 266.401 307.023 265.982C306.881 265.884 306.761 265.758 306.671 265.612C306.622 265.543 306.596 265.461 306.596 265.377C306.596 265.293 306.622 265.212 306.671 265.143" fill="#EB996E"/>
<path d="M309.873 262.96C309.675 262.96 309.666 264.304 308.502 265.269C307.338 266.234 305.895 266.081 305.886 266.27C305.877 266.46 306.211 266.532 306.788 266.55C307.582 266.559 308.354 266.291 308.971 265.792C309.563 265.309 309.942 264.613 310.026 263.853C310.117 263.285 309.963 262.951 309.873 262.96Z" fill="#263238"/>
<path d="M310.171 250.63C310.297 250.963 311.542 250.801 313.012 250.982C314.482 251.162 315.664 251.559 315.862 251.252C315.944 251.108 315.736 250.792 315.258 250.458C314.623 250.048 313.899 249.795 313.147 249.719C312.397 249.627 311.636 249.716 310.928 249.98C310.387 250.197 310.117 250.467 310.171 250.63Z" fill="#263238"/>
<path d="M298.896 248.952C299.121 249.241 299.978 248.952 301.015 248.952C302.053 248.952 302.928 249.15 303.135 248.853C303.216 248.708 303.081 248.42 302.702 248.149C302.184 247.83 301.584 247.671 300.977 247.69C300.369 247.709 299.78 247.906 299.284 248.257C298.923 248.528 298.797 248.826 298.896 248.952Z" fill="#263238"/>
<path d="M324.964 255.979C325.331 255.776 325.747 255.68 326.166 255.701C326.585 255.722 326.99 255.858 327.336 256.096C328.175 256.584 328.819 257.347 329.159 258.256C329.5 259.165 329.515 260.163 329.203 261.082C328.89 262.001 328.27 262.784 327.446 263.297C326.622 263.81 325.646 264.023 324.684 263.898" fill="#FFBE9D"/>
<path d="M310.712 234.186C307.629 234.341 304.635 235.272 302.008 236.892C299.039 238.434 296.804 241.091 295.793 244.28C295.665 244.606 295.606 244.956 295.618 245.306C295.63 245.657 295.715 246.001 295.865 246.318C296.15 246.684 296.554 246.939 297.007 247.037C297.461 247.136 297.934 247.073 298.346 246.859C299.158 246.402 299.85 245.759 300.366 244.983C300.586 245.819 301.078 246.557 301.765 247.081C302.452 247.605 303.295 247.885 304.159 247.875C305.023 247.866 305.859 247.569 306.535 247.03C307.211 246.491 307.687 245.742 307.889 244.902C307.958 245.77 308.359 246.579 309.01 247.158C309.66 247.738 310.509 248.045 311.379 248.014C312.248 247.935 313.075 247.606 313.76 247.066C314.445 246.527 314.959 245.8 315.24 244.974C315.458 246.541 315.999 248.046 316.827 249.394C317.259 250.059 317.883 250.575 318.617 250.875C319.35 251.175 320.158 251.244 320.932 251.072C320.61 252.405 320.632 253.799 320.995 255.122C321.473 256.403 322.898 257.44 324.188 256.998C325.478 256.556 325.929 255.077 326.226 253.778C326.874 251.298 327.201 248.746 327.2 246.183C327.283 243.545 326.425 240.964 324.782 238.899C323.138 236.834 320.815 235.42 318.226 234.908C315.64 234.311 312.984 234.068 310.333 234.186" fill="#263238"/>
<path d="M325.622 261.192C325.622 261.129 325.974 261.273 326.416 261.066C326.682 260.913 326.897 260.685 327.035 260.411C327.173 260.137 327.227 259.828 327.191 259.523C327.188 259.214 327.094 258.912 326.923 258.655C326.752 258.397 326.51 258.195 326.226 258.071C325.766 257.882 325.433 257.972 325.415 257.9C325.396 257.828 325.721 257.62 326.317 257.755C326.67 257.833 326.988 258.026 327.219 258.306C327.492 258.645 327.65 259.062 327.67 259.496C327.715 259.892 327.628 260.291 327.422 260.632C327.217 260.973 326.904 261.237 326.533 261.382C325.884 261.58 325.55 261.228 325.622 261.192Z" fill="#EB996E"/>
<path d="M329.041 261.661C329.168 261.683 329.292 261.719 329.41 261.769C329.763 261.883 330.101 262.034 330.421 262.22C331.644 262.86 332.668 263.824 333.379 265.008C333.869 265.829 334.148 266.758 334.191 267.714C334.217 268.82 333.956 269.913 333.433 270.889C332.864 271.974 332.037 272.903 331.025 273.595C329.937 274.347 328.65 274.762 327.327 274.785C326.057 274.762 324.816 274.394 323.739 273.72C322.662 273.046 321.788 272.093 321.211 270.961C320.7 269.972 320.476 268.86 320.562 267.75C320.668 266.794 320.975 265.872 321.464 265.044C322.154 263.847 323.206 262.9 324.467 262.338C324.804 262.183 325.159 262.071 325.523 262.004C325.651 261.984 325.782 261.984 325.911 262.004C325.911 262.058 325.387 262.121 324.54 262.536C323.545 263.046 322.697 263.801 322.074 264.728C321.451 265.656 321.073 266.727 320.977 267.84C320.915 268.872 321.136 269.901 321.617 270.816C322.168 271.868 322.99 272.753 323.999 273.378C325.009 274.003 326.167 274.346 327.354 274.37C328.541 274.322 329.694 273.964 330.699 273.331C331.704 272.698 332.526 271.812 333.082 270.762C333.556 269.915 333.804 268.96 333.804 267.989C333.804 267.018 333.556 266.063 333.082 265.215C332.415 264.063 331.465 263.1 330.321 262.419C329.528 261.887 329.023 261.706 329.041 261.661Z" fill="#06D6A0"/>
<path d="M83.886 378.533C83.924 378.422 83.9692 378.314 84.0213 378.209C84.1385 377.974 84.2829 377.658 84.4723 377.261C85.0088 376.037 85.4432 374.769 85.7712 373.473C86.8245 368.65 86.7967 363.654 85.69 358.843C84.9987 355.514 84.0949 352.233 82.984 349.02C81.8384 345.538 80.5035 341.804 79.376 337.835C78.129 333.663 77.5208 329.327 77.572 324.973C77.7343 320.463 79.0783 315.88 80.5576 311.361C82.0369 306.842 83.5703 302.414 84.0303 297.958C84.5371 293.676 83.6751 289.344 81.5678 285.582C79.6105 281.974 77.139 278.88 75.2538 275.66C73.529 272.691 72.2581 269.48 71.4835 266.135C70.3686 261.294 70.2856 256.272 71.2399 251.396C71.6145 249.63 72.1613 247.905 72.8726 246.246C72.8526 246.366 72.8224 246.483 72.7824 246.598C72.7012 246.841 72.602 247.175 72.4667 247.59C72.0803 248.871 71.7612 250.172 71.5105 251.487C70.6363 256.329 70.7683 261.3 71.8984 266.09C72.6847 269.393 73.9585 272.561 75.6778 275.489C77.4818 278.646 79.9984 281.722 81.9918 285.411C84.1497 289.247 85.037 293.667 84.5264 298.039C84.0664 302.549 82.524 307.014 81.0537 311.569C79.5834 316.124 78.2395 320.589 78.0771 325.045C78.0091 329.349 78.5868 333.639 79.7909 337.772C80.8643 341.759 82.1812 345.457 83.3177 348.957C84.436 352.186 85.34 355.485 86.0237 358.834C87.1313 363.684 87.1313 368.722 86.0237 373.572C85.6746 374.872 85.2066 376.137 84.6256 377.352L84.1385 378.254C84.0682 378.359 83.9831 378.453 83.886 378.533Z" fill="#263238"/>
<path d="M77.8516 278.835C77.8516 278.835 74.0993 266.857 80.8282 259.839C80.88 259.783 80.9463 259.742 81.02 259.721C81.0936 259.7 81.1716 259.699 81.2454 259.72C81.3191 259.74 81.3858 259.781 81.4379 259.837C81.4901 259.893 81.5257 259.962 81.5408 260.038C81.8926 262.022 82.3436 268.047 77.8516 278.835Z" fill="#06D6A0"/>
<path d="M80.0976 263.826C80.0871 264.572 80.0025 265.315 79.845 266.045C79.5925 267.56 79.3038 269.355 78.943 271.331C78.5822 273.306 78.3477 275.092 78.1042 276.616C78.0357 277.354 77.9029 278.084 77.7073 278.799C77.6383 278.057 77.6595 277.309 77.7705 276.571C77.8967 275.2 78.1403 273.324 78.474 271.249C78.8077 269.175 79.1776 267.326 79.4662 265.982C79.597 265.242 79.8087 264.519 80.0976 263.826Z" fill="#263238"/>
<path d="M82.2534 307.113C82.2534 307.113 84.5445 294.765 93.808 291.707C93.8804 291.682 93.9584 291.677 94.0332 291.694C94.108 291.71 94.1768 291.747 94.2319 291.8C94.287 291.854 94.3263 291.921 94.3454 291.995C94.3645 292.07 94.3627 292.148 94.3402 292.221C93.6907 294.133 91.2734 299.671 82.2534 307.113Z" fill="#06D6A0"/>
<path d="M91.2553 294.891C90.8997 295.533 90.4796 296.138 90.0016 296.695L86.7724 300.997C85.5727 302.603 84.4813 304.046 83.5523 305.282C83.1517 305.907 82.6926 306.493 82.1812 307.032C82.4664 306.342 82.836 305.691 83.2817 305.092C84.0303 303.938 85.0857 302.387 86.3936 300.718C87.7015 299.049 88.856 297.57 89.74 296.523C90.1811 295.923 90.6896 295.375 91.2553 294.891Z" fill="#263238"/>
<path d="M79.7548 338.088C79.7548 338.088 78.3658 325.622 86.3034 319.993C86.3658 319.948 86.4395 319.921 86.5164 319.916C86.5932 319.91 86.6702 319.926 86.7385 319.961C86.8069 319.997 86.864 320.051 86.9034 320.117C86.9429 320.183 86.9631 320.259 86.9618 320.336C86.9438 322.348 86.2312 328.328 79.7548 338.088Z" fill="#06D6A0"/>
<path d="M84.788 323.818C84.637 324.545 84.4134 325.255 84.1205 325.938C83.5883 327.381 82.966 329.086 82.3165 330.962C81.6671 332.838 81.0176 334.57 80.5125 335.995C80.3069 336.706 80.0383 337.397 79.7097 338.061C79.7823 337.319 79.9459 336.589 80.1968 335.887C80.5757 334.57 81.18 332.766 81.9016 330.799C82.6232 328.833 83.3358 327.074 83.886 325.811C84.1157 325.117 84.418 324.449 84.788 323.818Z" fill="#263238"/>
<path d="M86.7093 369.243C86.7093 369.243 85.8073 356.714 93.9253 351.401C93.9889 351.357 94.0634 351.332 94.1405 351.329C94.2176 351.325 94.2942 351.343 94.3617 351.38C94.4292 351.418 94.4849 351.474 94.5225 351.541C94.5601 351.608 94.5782 351.685 94.5747 351.762C94.4484 353.773 93.5194 359.745 86.7093 369.243Z" fill="#06D6A0"/>
<path d="M92.2836 355.126C92.109 355.848 91.858 356.55 91.5349 357.219C90.9577 358.653 90.2721 360.331 89.5145 362.18C88.7568 364.029 88.0803 365.707 87.494 367.114C87.2567 367.82 86.9548 368.502 86.592 369.152C86.6989 368.415 86.8895 367.691 87.1602 366.997C87.5932 365.689 88.2517 363.912 89.0544 361.973C89.8572 360.033 90.6149 358.301 91.2102 357.066C91.4967 356.382 91.8566 355.732 92.2836 355.126Z" fill="#263238"/>
<path d="M72.4577 268.309C72.4577 268.309 61.336 262.482 61.1105 252.776C61.1087 252.7 61.1281 252.625 61.1664 252.559C61.2047 252.493 61.2605 252.438 61.3277 252.402C61.3948 252.366 61.4707 252.349 61.547 252.352C61.6233 252.356 61.6969 252.381 61.7599 252.425C63.4196 253.561 68.0018 257.503 72.4577 268.309Z" fill="#06D6A0"/>
<path d="M63.4196 256.114C63.9392 256.647 64.4045 257.23 64.8087 257.855L67.9477 262.193L71.0956 266.523C71.574 267.084 71.9997 267.688 72.3675 268.327C71.7939 267.848 71.2791 267.303 70.8341 266.703C69.9321 265.648 68.7955 264.142 67.5688 262.446C66.3421 260.75 65.2777 259.172 64.5381 258.017C64.0948 257.427 63.7196 256.788 63.4196 256.114Z" fill="#263238"/>
<path d="M84.4182 294.052C84.4182 294.052 72.9538 288.92 72.16 279.241C72.1517 279.164 72.1653 279.086 72.1992 279.016C72.2331 278.946 72.2859 278.887 72.3517 278.846C72.4175 278.804 72.4937 278.782 72.5714 278.782C72.6491 278.782 72.7254 278.803 72.7914 278.844C74.4872 279.882 79.3038 283.535 84.4182 294.052Z" fill="#06D6A0"/>
<path d="M74.6495 282.425C75.2037 282.943 75.7053 283.514 76.1468 284.13L79.5383 288.27L82.984 292.356C83.4949 292.892 83.954 293.475 84.355 294.097C83.7529 293.658 83.2076 293.146 82.7314 292.573C81.7843 291.571 80.5396 290.146 79.2136 288.523C77.8877 286.899 76.7241 285.393 75.9213 284.283C75.4304 283.713 75.0038 283.089 74.6495 282.425Z" fill="#263238"/>
<path d="M77.8155 322.763C77.8155 322.763 69.9501 312.994 73.6393 303.974C73.6677 303.902 73.7156 303.84 73.7775 303.794C73.8393 303.748 73.9128 303.72 73.9896 303.714C74.0664 303.707 74.1435 303.722 74.2122 303.757C74.281 303.792 74.3387 303.845 74.3789 303.911C75.4343 305.625 78.0591 311.073 77.8155 322.763Z" fill="#06D6A0"/>
<path d="M74.424 307.97C74.6847 308.665 74.8751 309.384 74.9923 310.117C75.326 311.632 75.7049 313.4 76.1288 315.357C76.5527 317.315 76.9496 319.073 77.2834 320.58C77.4936 321.293 77.6385 322.023 77.7163 322.763C77.375 322.097 77.1203 321.391 76.9586 320.661C76.5798 319.344 76.1107 317.504 75.6688 315.456C75.2268 313.409 74.884 311.542 74.6675 310.18C74.5038 309.455 74.4221 308.713 74.424 307.97Z" fill="#263238"/>
<path d="M85.6178 356.552C85.6178 356.552 74.2436 351.23 73.5942 341.533C73.5877 341.457 73.6027 341.38 73.6373 341.311C73.672 341.243 73.725 341.185 73.7905 341.145C73.8559 341.105 73.9313 341.083 74.0081 341.083C74.0849 341.084 74.1602 341.105 74.2256 341.145C75.9304 342.219 80.6839 345.953 85.6178 356.552Z" fill="#06D6A0"/>
<path d="M76.0476 344.771C76.5951 345.275 77.0852 345.838 77.5088 346.449L80.8372 350.643L84.1746 354.829C84.6782 355.387 85.1282 355.991 85.5186 356.633C84.9112 356.173 84.3629 355.639 83.886 355.045C82.984 354.026 81.7302 352.583 80.4313 350.932C79.1324 349.281 78.0049 347.766 77.2112 346.648C76.7573 346.066 76.3672 345.437 76.0476 344.771Z" fill="#263238"/>
<path d="M108.24 307.176C108.255 307.269 108.255 307.363 108.24 307.456V308.258C108.24 309.007 108.168 310.062 108.105 311.298C107.96 314.004 107.753 317.711 107.509 322.176C106.698 326.686 104.379 331.756 101.277 336.608C98.9945 340.216 96.6042 343.482 94.5386 346.53C92.667 349.192 90.9822 351.979 89.4965 354.874C88.5201 356.837 87.7289 358.888 87.1332 360.998C86.9348 361.747 86.7814 362.333 86.7003 362.73C86.6659 362.937 86.6084 363.14 86.5289 363.335C86.5306 363.125 86.5548 362.916 86.601 362.712C86.6642 362.306 86.7814 361.711 86.9528 360.953C87.4855 358.807 88.2381 356.721 89.1988 354.729C90.6484 351.795 92.3158 348.973 94.1868 346.287C96.2344 343.22 98.6066 339.973 100.88 336.365C103.974 331.503 106.292 326.542 107.113 322.068C107.428 317.603 107.69 313.878 107.87 311.244C107.978 309.972 108.06 308.953 108.123 308.204C108.123 307.88 108.177 307.618 108.204 307.402C108.206 307.325 108.218 307.249 108.24 307.176Z" fill="#263238"/>
<path d="M101.502 335.733C101.502 335.733 106.319 324.143 100.257 316.539C100.21 316.477 100.147 316.43 100.074 316.402C100.002 316.375 99.9231 316.368 99.847 316.383C99.771 316.399 99.7007 316.435 99.644 316.487C99.5874 316.54 99.5467 316.608 99.5267 316.683C98.9945 318.622 98.0023 324.585 101.502 335.733Z" fill="#06D6A0"/>
<path d="M100.627 320.589C100.832 321.304 100.959 322.039 101.006 322.781C101.177 324.143 101.367 326.028 101.52 328.121C101.673 330.213 101.737 332.107 101.737 333.478C101.785 334.224 101.739 334.972 101.601 335.706C101.47 334.977 101.403 334.238 101.403 333.496C101.304 331.954 101.177 330.15 101.051 328.157C100.925 326.163 100.78 324.35 100.672 322.808C100.583 322.072 100.568 321.328 100.627 320.589Z" fill="#263238"/>
<g opacity="0.3">
<path d="M101.502 335.733C101.502 335.733 106.319 324.143 100.257 316.539C100.21 316.477 100.147 316.43 100.074 316.402C100.002 316.375 99.9231 316.368 99.847 316.383C99.771 316.399 99.7007 316.435 99.644 316.487C99.5874 316.54 99.5467 316.608 99.5267 316.683C98.9945 318.622 98.0023 324.585 101.502 335.733Z" fill="black"/>
</g>
<path d="M86.592 363.686C86.592 363.686 90.4525 351.735 83.7958 344.654C83.7429 344.598 83.6759 344.558 83.6019 344.537C83.5278 344.517 83.4495 344.516 83.3754 344.537C83.3013 344.557 83.2341 344.597 83.181 344.653C83.128 344.709 83.091 344.778 83.0742 344.853C82.6953 346.828 82.1902 352.853 86.592 363.686Z" fill="#06D6A0"/>
<path d="M84.4723 348.65C84.738 349.346 84.9255 350.069 85.0315 350.806C85.3112 352.15 85.6539 354.017 85.9335 356.092C86.2132 358.166 86.4747 360.051 86.583 361.413C86.6741 362.156 86.6741 362.907 86.583 363.65C86.3973 362.932 86.2735 362.198 86.2132 361.458C85.9877 359.934 85.7171 358.139 85.4194 356.164C85.1217 354.188 84.8511 352.393 84.6166 350.869C84.4941 350.136 84.4457 349.393 84.4723 348.65Z" fill="#263238"/>
<g opacity="0.3">
<path d="M86.592 363.686C86.592 363.686 90.4525 351.735 83.7958 344.654C83.7429 344.598 83.6759 344.558 83.6019 344.537C83.5278 344.517 83.4495 344.516 83.3754 344.537C83.3013 344.557 83.2341 344.597 83.181 344.653C83.128 344.709 83.091 344.778 83.0742 344.853C82.6953 346.828 82.1902 352.853 86.592 363.686Z" fill="black"/>
</g>
<path d="M107.636 321.563C107.636 321.563 117.927 314.347 116.89 304.696C116.881 304.62 116.851 304.548 116.804 304.488C116.757 304.428 116.695 304.381 116.623 304.354C116.552 304.326 116.475 304.318 116.4 304.33C116.324 304.343 116.254 304.376 116.196 304.425C114.707 305.778 110.666 310.288 107.636 321.563Z" fill="#06D6A0"/>
<g opacity="0.3">
<path d="M107.636 321.563C107.636 321.563 117.927 314.347 116.89 304.696C116.881 304.62 116.851 304.548 116.804 304.488C116.757 304.428 116.695 304.381 116.623 304.354C116.552 304.326 116.475 304.318 116.4 304.33C116.324 304.343 116.254 304.376 116.196 304.425C114.707 305.778 110.666 310.288 107.636 321.563Z" fill="black"/>
</g>
<path d="M115.023 308.304C114.825 309.021 114.54 309.712 114.175 310.36C113.58 311.605 112.732 313.301 111.74 315.141C110.748 316.981 109.782 318.631 109.034 319.786C108.676 320.441 108.237 321.047 107.726 321.59C108.01 320.903 108.354 320.242 108.754 319.615L111.316 314.924C112.272 313.12 113.12 311.569 113.868 310.216C114.189 309.542 114.575 308.901 115.023 308.304Z" fill="#263238"/>
<path d="M90.7231 351.834C90.7231 351.834 103.135 349.904 106.463 340.767C106.489 340.695 106.495 340.617 106.48 340.542C106.465 340.466 106.429 340.397 106.377 340.341C106.324 340.285 106.258 340.244 106.184 340.224C106.11 340.204 106.032 340.204 105.958 340.225C104.028 340.776 98.4172 343.04 90.7231 351.834Z" fill="#06D6A0"/>
<g opacity="0.3">
<path d="M90.7231 351.834C90.7231 351.834 103.135 349.904 106.463 340.767C106.489 340.695 106.495 340.617 106.48 340.542C106.465 340.466 106.429 340.397 106.377 340.341C106.324 340.285 106.258 340.244 106.184 340.224C106.11 340.204 106.032 340.204 105.958 340.225C104.028 340.776 98.4172 343.04 90.7231 351.834Z" fill="black"/>
</g>
<path d="M103.198 343.193C102.699 343.742 102.139 344.232 101.529 344.654C100.456 345.511 98.9404 346.666 97.2356 347.874C95.5308 349.083 93.9433 350.147 92.7256 350.86C92.1166 351.29 91.4559 351.641 90.7592 351.906C91.3198 351.414 91.9236 350.973 92.5632 350.589L96.9379 347.496L101.304 344.393C101.891 343.928 102.526 343.526 103.198 343.193Z" fill="#263238"/>
<path d="M78.8889 374.673L75.2719 399.036H97.8309L94.8994 374.673H78.8889Z" fill="#455A64"/>
<path d="M95.8014 382.223C92.7766 382.455 89.742 382.533 86.7093 382.457C83.6765 382.533 80.6419 382.455 77.6171 382.223C80.6416 381.985 83.6765 381.906 86.7093 381.988C89.742 381.906 92.7769 381.985 95.8014 382.223Z" fill="#263238"/>
<path d="M96.2524 384.162C96.2524 384.288 92.0491 384.396 86.8626 384.396C81.6761 384.396 77.4637 384.288 77.4637 384.162C80.5907 383.924 83.7277 383.846 86.8626 383.927C89.9945 383.846 93.1285 383.924 96.2524 384.162Z" fill="#263238"/>
</svg>
