<svg width="357" height="272" viewBox="0 0 357 272" fill="none" xmlns="http://www.w3.org/2000/svg">
<g clip-path="url(#clip0_5_98)">
<path d="M0 246.54C0 246.839 0.23991 247.078 0.538666 247.078H356.461C356.76 247.078 357 246.839 357 246.54C357 246.241 356.76 246.001 356.461 246.001H0.538666C0.23991 246.001 0 246.241 0 246.54Z" fill="#3F3D56"/>
<path d="M195.577 94.1178L199.252 71.161L174.46 61.0611L170.789 95.9513L195.577 94.1178Z" fill="#A0616A"/>
<path d="M189.312 78.5402C203.274 78.5402 214.593 67.2203 214.593 53.2565C214.593 39.2927 203.274 27.9728 189.312 27.9728C175.349 27.9728 164.031 39.2927 164.031 53.2565C164.031 67.2203 175.349 78.5402 189.312 78.5402Z" fill="#A0616A"/>
<path d="M187.297 19.2672C188.031 19.6928 189.009 19.0499 189.244 18.235C189.479 17.4202 189.203 16.5555 188.936 15.7542C188.483 14.4097 188.026 13.0606 187.574 11.7161C186.605 8.85042 185.577 5.88519 183.486 3.70314C180.322 0.411957 175.297 -0.425551 170.775 0.181076C164.968 0.959733 159.232 4.10605 156.535 9.30765C153.832 14.5093 154.982 21.7707 159.866 25.0166C152.909 32.9888 150.483 41.8799 150.867 52.4552C151.252 63.0304 162.772 72.7636 170.291 80.2152C171.97 79.1966 173.496 74.4296 172.572 72.6957C171.649 70.9618 172.971 68.9563 171.83 67.3628C170.689 65.7693 169.73 68.309 170.888 66.72C171.617 65.7195 168.77 63.4152 169.856 62.8176C175.098 59.9203 176.841 53.3832 180.136 48.3808C184.106 42.3462 190.905 38.2583 198.098 37.5792C202.059 37.2035 206.246 37.8825 209.491 40.1823C212.737 42.482 214.842 46.5926 214.09 50.504C216.041 48.5211 217.01 45.6193 216.643 42.8668C216.277 40.1144 214.584 37.5611 212.18 36.1622C213.638 31.3364 212.388 25.7862 209.003 22.0514C205.617 18.3165 191.874 18.9548 186.931 19.9372" fill="#2F2E41"/>
<path d="M186.528 37.7195C179.978 38.4258 175.248 44.1027 171.255 49.3405C168.956 52.3601 166.543 55.6965 166.602 59.4948C166.661 63.3337 169.227 66.6249 170.454 70.2647C172.459 76.2132 170.504 83.2845 165.733 87.3589C170.449 88.2552 175.546 84.7196 176.361 79.9888C177.307 74.4839 173.134 69.1691 173.627 63.6008C174.062 58.698 177.927 54.9224 181.209 51.2555C184.491 47.5886 187.578 42.722 186.066 38.0364" fill="#2F2E41"/>
<path d="M187.782 269.284C187.782 269.284 133.01 274.716 128.936 268.378C124.862 262.04 184.518 255.703 184.518 255.703L187.782 269.284Z" fill="#A0616A"/>
<path d="M152.859 167.723L151.727 173.731C154.81 178.281 155.104 183.088 153.312 188.095L215.779 188.548C215.109 181.78 214.371 174.528 216.942 167.877L152.859 167.723Z" fill="#A0616A"/>
<path d="M255.178 212.392L232.523 194.266C229.513 191.857 227.562 188.276 227.177 184.442L223.687 149.914L244.487 142.978L249.502 177.167L262 205.574L255.183 212.392H255.178Z" fill="#A0616A"/>
<path d="M168.476 91.895L198.804 90.5369L230.943 105.847L217.816 168.403L151.275 173.382L142.221 104.118L168.476 91.895Z" fill="#06D6A0"/>
<path d="M216.942 182.817C221.501 188.824 223.411 203.288 225.348 217.675C225.348 217.675 141.153 217.222 140.701 217.222C140.248 217.222 153.57 186.891 153.57 186.891L216.942 182.817Z" fill="#2F2E41"/>
<path d="M219.694 213.836L225.353 217.675C225.353 217.675 305.474 212.243 298.684 237.594C291.894 262.946 270.619 267.02 270.619 267.02L184.613 272L183.708 257.966C183.708 257.966 100.871 276.527 93.1757 238.5C85.4805 200.472 140.705 217.222 140.705 217.222L219.694 213.836Z" fill="#2F2E41"/>
<path d="M185.885 243.932C185.885 243.932 187.782 233.973 201.362 238.047C214.941 242.121 222.637 247.554 222.637 247.554L190.045 255.703L185.885 243.932Z" fill="#A0616A"/>
<path d="M219.853 104.797C219.853 104.797 235.243 99.3647 241.128 117.02C247.012 134.676 245.655 149.162 245.655 149.162L223.021 156.406L219.853 104.797Z" fill="#06D6A0"/>
<path d="M114.315 215.149L109.376 206.448L120.046 179.888L125.061 145.695L145.861 152.63L142.326 187.579C141.963 191.151 140.148 194.483 137.346 196.724L114.315 215.154V215.149Z" fill="#A0616A"/>
<path d="M149.69 104.797C149.69 104.797 134.3 99.3647 128.415 117.02C122.531 134.676 123.889 149.162 123.889 149.162L146.522 156.406L149.69 104.797Z" fill="#06D6A0"/>
<path d="M261.724 216.389C267.724 216.389 272.588 209.194 272.588 200.318C272.588 191.443 267.724 184.247 261.724 184.247C255.724 184.247 250.86 191.443 250.86 200.318C250.86 209.194 255.724 216.389 261.724 216.389Z" fill="#A0616A"/>
<path d="M109.177 219.106C115.177 219.106 120.041 211.91 120.041 203.035C120.041 194.159 115.177 186.964 109.177 186.964C103.177 186.964 98.3134 194.159 98.3134 203.035C98.3134 211.91 103.177 219.106 109.177 219.106Z" fill="#A0616A"/>
<path d="M150.664 229.898L190.045 241.216L197.74 254.797L183.024 257.966" fill="#2F2E41"/>
</g>
<defs>
<clipPath id="clip0_5_98">
<rect width="357" height="272" fill="white"/>
</clipPath>
</defs>
</svg>
