<svg xmlns="http://www.w3.org/2000/svg" version="1.1" xmlns:xlink="http://www.w3.org/1999/xlink" xmlns:svgjs="http://svgjs.dev/svgjs" width="1500" height="390" viewBox="0 0 1500 390"><g transform="matrix(1,0,0,1,-0.9090909090911055,0.6856233662084037)"><svg viewBox="0 0 396 103" data-background-color="#ffffff" preserveAspectRatio="xMidYMid meet" height="390" width="1500" xmlns="http://www.w3.org/2000/svg" xmlns:xlink="http://www.w3.org/1999/xlink"><g id="tight-bounds" transform="matrix(1,0,0,1,0.24000000000003752,-0.1810748890242735)"><svg viewBox="0 0 395.5199999999999 103.36214977804853" height="103.36214977804853" width="395.5199999999999"><g><svg viewBox="0 0 558.1100945193147 145.852192512" height="103.36214977804853" width="395.5199999999999"><g transform="matrix(1,0,0,1,162.5900945193147,11.438768288539649)"><svg viewBox="0 0 395.52 122.97465593492069" height="122.97465593492069" width="395.52"><g id="textblocktransform"><svg viewBox="0 0 395.52 122.97465593492069" height="122.97465593492069" width="395.52" id="textblock"><g><svg viewBox="0 0 395.52 70.90048123195379" height="70.90048123195379" width="395.52"><g transform="matrix(1,0,0,1,0,0)"><svg width="395.52" viewBox="1.5 -36.75 207.78 37.25" height="70.90048123195379" data-palette-color="#000000"><path d="M10.9 0L10.9-31.85 1.5-31.85 1.5-36.75 25.95-36.75 25.95-31.85 16.45-31.85 16.45 0 10.9 0ZM37.7 0.5Q34.15 0.5 31.4-1.1 28.65-2.7 27.15-5.45 25.65-8.2 25.65-11.55L25.65-11.55Q25.65-14.85 27.12-17.6 28.6-20.35 31.35-21.95 34.1-23.55 37.7-23.55L37.7-23.55Q41.3-23.55 44.02-21.95 46.75-20.35 48.22-17.6 49.7-14.85 49.7-11.55L49.7-11.55Q49.7-8.2 48.2-5.45 46.7-2.7 43.97-1.1 41.25 0.5 37.7 0.5L37.7 0.5ZM37.85-3.9Q40.75-3.9 42.42-6.05 44.1-8.2 44.1-11.45L44.1-11.45Q44.1-14.7 42.3-16.93 40.5-19.15 37.55-19.15L37.55-19.15Q34.7-19.15 32.97-16.95 31.25-14.75 31.25-11.45L31.25-11.45Q31.25-8.25 33.1-6.08 34.95-3.9 37.85-3.9L37.85-3.9ZM65.6 0.5Q62.5 0.5 59.87-0.98 57.25-2.45 55.67-5.18 54.1-7.9 54.1-11.55L54.1-11.55Q54.1-17 57.15-20.28 60.2-23.55 65.4-23.55L65.4-23.55Q68.3-23.55 70.7-22.13 73.1-20.7 73.95-18.7L73.95-18.7 73.7-22.6 73.7-36.75 79-36.75 79 0 73.85 0 73.75-4.05Q72.9-2.25 70.65-0.88 68.4 0.5 65.6 0.5L65.6 0.5ZM66.5-4.05Q69.35-4.05 71.3-6.03 73.25-8 73.25-11.2L73.25-11.2 73.25-11.55Q73.25-13.7 72.35-15.4 71.45-17.1 69.9-18.05 68.35-19 66.5-19L66.5-19Q63.3-19 61.55-16.93 59.8-14.85 59.8-11.55L59.8-11.55Q59.8-8.2 61.52-6.13 63.25-4.05 66.5-4.05L66.5-4.05ZM96.84 0.5Q93.29 0.5 90.54-1.1 87.79-2.7 86.29-5.45 84.79-8.2 84.79-11.55L84.79-11.55Q84.79-14.85 86.27-17.6 87.74-20.35 90.49-21.95 93.24-23.55 96.84-23.55L96.84-23.55Q100.44-23.55 103.17-21.95 105.89-20.35 107.37-17.6 108.84-14.85 108.84-11.55L108.84-11.55Q108.84-8.2 107.34-5.45 105.84-2.7 103.12-1.1 100.39 0.5 96.84 0.5L96.84 0.5ZM96.99-3.9Q99.89-3.9 101.57-6.05 103.24-8.2 103.24-11.45L103.24-11.45Q103.24-14.7 101.44-16.93 99.64-19.15 96.69-19.15L96.69-19.15Q93.84-19.15 92.12-16.95 90.39-14.75 90.39-11.45L90.39-11.45Q90.39-8.25 92.24-6.08 94.09-3.9 96.99-3.9L96.99-3.9ZM114.59 0L114.59-22.95 119.99-22.95 119.99-18.8Q121.09-21.15 123.22-22.35 125.34-23.55 128.09-23.55L128.09-23.55Q134.24-23.5 135.64-19.3L135.64-19.3Q136.74-21.25 138.94-22.4 141.14-23.55 143.59-23.55L143.59-23.55Q147.19-23.55 149.04-22.18 150.89-20.8 151.52-18.28 152.14-15.75 152.14-11.5L152.14-11.5 152.14 0 146.69 0 146.69-11.55Q146.69-15.6 145.87-17.35 145.04-19.1 142.69-19.1L142.69-19.1Q139.54-19.1 137.92-16.98 136.29-14.85 136.29-11.4L136.29-11.4 136.29 0 130.89 0 130.89-12.35Q130.89-15 130.69-16.3 130.49-17.6 129.59-18.35 128.69-19.1 126.69-19.1L126.69-19.1Q124.94-19.1 123.42-18.05 121.89-17 120.97-15.23 120.04-13.45 120.04-11.4L120.04-11.4 120.04 0 114.59 0ZM169.74 0.5Q166.19 0.5 163.44-1.1 160.69-2.7 159.19-5.45 157.69-8.2 157.69-11.55L157.69-11.55Q157.69-14.85 159.16-17.6 160.64-20.35 163.39-21.95 166.14-23.55 169.74-23.55L169.74-23.55Q173.34-23.55 176.06-21.95 178.79-20.35 180.26-17.6 181.74-14.85 181.74-11.55L181.74-11.55Q181.74-8.2 180.24-5.45 178.74-2.7 176.01-1.1 173.29 0.5 169.74 0.5L169.74 0.5ZM169.89-3.9Q172.79-3.9 174.46-6.05 176.14-8.2 176.14-11.45L176.14-11.45Q176.14-14.7 174.34-16.93 172.54-19.15 169.59-19.15L169.59-19.15Q166.74-19.15 165.01-16.95 163.29-14.75 163.29-11.45L163.29-11.45Q163.29-8.25 165.14-6.08 166.99-3.9 169.89-3.9L169.89-3.9ZM187.49 0L187.49-22.95 192.78-22.95 192.84-18.75Q193.78-20.85 195.84-22.2 197.88-23.55 200.63-23.55L200.63-23.55Q204.19-23.55 206.09-22.08 207.99-20.6 208.63-17.95 209.28-15.3 209.28-11.05L209.28-11.05 209.28 0 203.88 0 203.88-10.9Q203.88-15.25 203.03-17.18 202.19-19.1 199.53-19.1L199.53-19.1Q198.03-19.1 196.49-18.18 194.94-17.25 193.91-15.5 192.88-13.75 192.88-11.4L192.88-11.4 192.88 0 187.49 0Z" opacity="1" transform="matrix(1,0,0,1,0,0)" fill="#000000" class="wordmark-text-0" data-fill-palette-color="primary" id="text-0"></path></svg></g></svg></g><g transform="matrix(1,0,0,1,0,87.6383832392685)"><svg viewBox="0 0 232.209792 35.33627269565217" height="35.33627269565217" width="232.209792"><g transform="matrix(1,0,0,1,0,0)"><svg width="232.209792" viewBox="0 -38.7 326.56 49.7" height="35.33627269565217" data-palette-color="#048a81"><path d="M8.85-29.45L0-28.75 0.55-34.5 24.3-34.5 23.75-28.75 15.05-29.5 14.85-13 15.45 0 8.45 0 9.05-12.15 8.85-29.45ZM41.8-12.65Q41.8-16.1 41.2-17.25 40.6-18.4 38.4-18.4 36.2-18.4 33.4-16.65L33.4-16.65 33.4-13 33.95-1.25 27.2 0 27.8-12.15 27.2-37.45 34.05-38.7 33.4-25.75 33.4-19.9Q34.15-20.9 35.1-21.85 36.05-22.8 38.05-24 40.05-25.2 42.32-25.2 44.6-25.2 46.15-23.43 47.7-21.65 47.7-18.6L47.7-18.6 47.4-13 47.95-1 41.2 0.25 41.8-12.65ZM62.45-5.1L62.45-5.1Q63.9-5.1 65.5-5.85 67.09-6.6 68-7.35L68-7.35 68.9-8.1 71.2-5.3Q70.7-4.45 69.65-3.35 68.59-2.25 67.52-1.48 66.45-0.7 64.67-0.08 62.9 0.55 61 0.55L61 0.55Q56.95 0.55 54.4-2.53 51.84-5.6 51.84-10.45L51.84-10.45Q51.84-16.55 55.4-21.15 58.95-25.75 63.7-25.75L63.7-25.75Q67.34-25.75 69.37-23.7 71.4-21.65 71.4-17.95L71.4-17.95Q71.4-15.75 70.65-12.95L70.65-12.95 69.65-11.9 57.15-10.75Q58-5.1 62.45-5.1ZM62.45-20.6L62.45-20.6Q60.25-20.6 58.75-18.82 57.25-17.05 57-14.3L57-14.3 65.5-15.35Q65.65-16.5 65.65-17.25L65.65-17.25Q65.65-20.6 62.45-20.6ZM82.89 11L76.44 9.65 81.59-1.9 77.89-12 72.84-24.15 79.49-25.4 82.69-14.75 84.34-9.7 84.99-9.7 86.19-13.35 89.79-25.45 95.94-24.7 87.09-1.45 82.89 11ZM128.14-33.85L134.24-34.6 133.59-13 134.14-1.1 128.24 0.15 113.34-23.95 113.34-13 114.04 0 107.79 0 108.39-12.15 107.79-34.35 113.79-34.65 128.64-10.2 128.14-33.85ZM139.64-10.45Q139.64-16.85 143.09-21.3 146.54-25.75 151.16-25.75 155.79-25.75 158.36-22.75 160.94-19.75 160.94-14.8L160.94-14.8Q160.94-8.2 157.61-3.83 154.29 0.55 149.24 0.55L149.24 0.55Q145.09 0.55 142.36-2.58 139.64-5.7 139.64-10.45L139.64-10.45ZM155.34-12.2L155.34-12.2Q155.34-19.45 150.39-19.45L150.39-19.45Q145.24-19.45 145.24-12.65L145.24-12.65Q145.24-9.1 146.69-7.1 148.14-5.1 150.51-5.1 152.89-5.1 154.11-6.93 155.34-8.75 155.34-12.2ZM164.28-24.2L167.18-24.2 167.18-29.65 173.93-30.95 173.28-24.2 179.33-24.2 178.78-20.1 173.08-20.1 172.83-9.65Q172.83-7.3 173.28-6.53 173.73-5.75 174.93-5.75 176.13-5.75 178.13-6.3L178.13-6.3 178.43-2.75Q175.13 0 172.63 0 170.13 0 168.53-1.83 166.93-3.65 166.93-6.6L166.93-6.6 167.23-12.2 167.18-20.1 163.73-20.1 164.28-24.2ZM208.23 0L191.78 0 192.38-12.15 191.78-33.5 198.88-34.75 198.18-13 198.53-4.9 208.78-5.7 208.23 0ZM211.98-24.2L218.68-25.45 218.08-13 218.63-1.25 211.93 0 212.53-12.15 211.98-24.2ZM211.63-32.77Q211.63-34.45 212.93-35.77 214.23-37.1 215.93-37.1 217.63-37.1 218.53-36.18 219.43-35.25 219.43-33.4 219.43-31.55 218.15-30.23 216.88-28.9 215.2-28.9 213.53-28.9 212.58-30 211.63-31.1 211.63-32.77ZM245.47-3.3L239.77 0.5 230.37-13.35 230.37-13 230.92-1.25 224.17 0 224.77-12.15 224.17-37.45 231.02-38.7 230.37-14.55 240.37-25.5 245.07-22.3 236.32-14.1 245.47-3.3ZM257.27-5.1L257.27-5.1Q258.72-5.1 260.32-5.85 261.92-6.6 262.82-7.35L262.82-7.35 263.72-8.1 266.02-5.3Q265.52-4.45 264.47-3.35 263.42-2.25 262.35-1.48 261.27-0.7 259.5-0.08 257.72 0.55 255.82 0.55L255.82 0.55Q251.77 0.55 249.22-2.53 246.67-5.6 246.67-10.45L246.67-10.45Q246.67-16.55 250.22-21.15 253.77-25.75 258.52-25.75L258.52-25.75Q262.17-25.75 264.19-23.7 266.22-21.65 266.22-17.95L266.22-17.95Q266.22-15.75 265.47-12.95L265.47-12.95 264.47-11.9 251.97-10.75Q252.82-5.1 257.27-5.1ZM257.27-20.6L257.27-20.6Q255.07-20.6 253.57-18.82 252.07-17.05 251.82-14.3L251.82-14.3 260.32-15.35Q260.47-16.5 260.47-17.25L260.47-17.25Q260.47-20.6 257.27-20.6ZM289.92 0.55L289.92 0.55Q285.42 0.55 282.34-2.2 279.26-4.95 279.26-9L279.26-9 278.76-33.5 285.97-34.75 285.17-12.85Q285.17-9.35 286.79-7.4 288.42-5.45 291.81-5.45 295.22-5.45 296.72-7.35 298.22-9.25 298.22-13.9L298.22-13.9 297.62-33.5 304.62-34.75 304.06-12.75Q304.06-6.85 300.12-3.15 296.17 0.55 289.92 0.55ZM318.36-4.65L318.36-4.65Q320.96-4.65 320.96-6.95L320.96-6.95Q320.96-7.75 319.84-8.45 318.71-9.15 317.09-9.85 315.46-10.55 313.84-11.43 312.21-12.3 311.09-13.85 309.96-15.4 309.96-17.4L309.96-17.4Q309.96-20.75 312.91-23.25 315.86-25.75 319.71-25.75L319.71-25.75Q321.51-25.75 323.24-25.33 324.96-24.9 326.56-24L326.56-24 323.21-17.9Q322.86-18.2 322.31-18.65 321.76-19.1 320.24-19.83 318.71-20.55 317.54-20.55 316.36-20.55 315.74-20.03 315.11-19.5 315.11-18.57 315.11-17.65 316.84-16.73 318.56-15.8 320.61-15.03 322.66-14.25 324.39-12.48 326.11-10.7 326.11-8.25L326.11-8.25Q326.11-4.75 323.24-2.1 320.36 0.55 316.61 0.55L316.61 0.55Q314.21 0.55 312.14-0.5 310.06-1.55 309.16-2.6L309.16-2.6 308.26-3.65 312.21-8.25Q312.51-7.85 313.06-7.25 313.61-6.65 315.24-5.65 316.86-4.65 318.36-4.65Z" opacity="1" transform="matrix(1,0,0,1,0,0)" fill="#048a81" class="slogan-text-1" data-fill-palette-color="secondary" id="text-1"></path></svg></g></svg></g></svg></g></svg></g><g><svg viewBox="0 0 145.852192512 145.852192512" height="145.852192512" width="145.852192512"><g><svg></svg></g><g id="icon-0"><svg viewBox="0 0 145.852192512 145.852192512" height="145.852192512" width="145.852192512"><g><rect width="132.6174565248" height="132.6174565248" x="6.6173679935999985" y="6.6173679935999985" fill="#048a81" data-fill-palette-color="accent"></rect><rect width="132.6174565248" height="132.6174565248" x="13.234735987199997" y="0" fill="#048a81" opacity="0.5" data-fill-palette-color="accent"></rect></g><g transform="matrix(1,0,0,1,18.906765696,18.906765696)"><svg viewBox="0 0 108.03866111999999 108.03866111999999" height="108.03866111999999" width="108.03866111999999"><g><svg xmlns="http://www.w3.org/2000/svg" xmlns:xlink="http://www.w3.org/1999/xlink" version="1.1" x="0" y="0" viewBox="6.25 6.25 87.5 87.5" enable-background="new 0 0 100 100" xml:space="preserve" height="108.03866111999999" width="108.03866111999999" class="icon-dxe-0" data-fill-palette-color="quaternary" id="dxe-0"><path fill="#06d6a0" d="M81.25 25V12.5H68.75V6.25H56.25V12.5H31.25V6.25H18.75V12.5H6.25V81.25H18.75V93.75H93.75V25zM13.75 73.75V20H18.75V25H31.25V20H56.25V25H68.75V20H73.75V73.75zM86.25 86.25H26.25V81.25H81.25V32.5H86.25z" data-fill-palette-color="quaternary"></path><rect x="18.75" y="31.25" fill="#06d6a0" width="50" height="6.25" data-fill-palette-color="quaternary"></rect><rect x="18.75" y="43.75" fill="#06d6a0" width="50" height="6.25" data-fill-palette-color="quaternary"></rect><rect x="18.75" y="56.25" fill="#06d6a0" width="50" height="6.25" data-fill-palette-color="quaternary"></rect></svg></g></svg></g></svg></g></svg></g></svg></g><defs></defs></svg><rect width="395.5199999999999" height="103.36214977804853" fill="none" stroke="none" visibility="hidden"></rect></g></svg></g></svg>