<svg width="270" height="270" viewBox="0 0 270 270" fill="none" xmlns="http://www.w3.org/2000/svg">
<path d="M190.706 235.1C189.848 234.365 187.931 232.033 189.41 229.316C189.95 228.323 191.101 227.831 192.137 227.394C193.209 227.033 194.22 226.51 195.134 225.844C196.754 224.462 197.208 222.167 198.283 220.325C199.525 218.209 201.83 216.621 204.271 216.734C207.068 216.859 209.396 219.143 210.454 221.746C211.513 224.348 211.534 227.237 211.572 230.045C211.572 231.601 211.513 233.356 210.373 234.403C209.32 235.37 207.738 235.381 206.312 235.337L191.041 234.868" fill="#F5F5F5"/>
<path d="M219.915 193.104H179.75L186.986 236.245C187.136 237.143 187.537 237.981 188.144 238.661C188.751 239.34 189.539 239.834 190.415 240.084L190.555 240.122C190.674 240.154 190.793 240.192 190.912 240.214C191.182 240.268 191.457 240.301 191.732 240.311V240.349H191.927H209.828C210.158 240.347 210.487 240.313 210.811 240.246C211.854 240.081 212.815 239.581 213.549 238.821C214.283 238.061 214.749 237.083 214.877 236.034L218.371 206.28L218.527 205.097L219.888 193.32L219.915 193.104ZM212.355 220.644H208.229L208.651 208.121H213.424L212.355 220.644ZM213.824 208.121H217.771L216.302 220.644H212.76L213.824 208.121ZM202.046 234.522L201.798 223.646H207.738L207.36 234.5L202.046 234.522ZM195.631 223.646H201.398L201.647 234.522H196.479L195.631 223.646ZM196.079 234.522H191.219C190.76 231.584 190.139 227.772 189.513 223.646H195.21L196.079 234.522ZM195.399 220.644L194.4 208.1H201.015L201.301 220.622L195.399 220.644ZM201.728 220.644L201.42 208.1H208.229L207.814 220.622L201.728 220.644ZM201.371 205.119L201.101 193.525H208.732L208.348 205.119H201.371ZM200.972 205.119H194.173L193.277 193.525H200.691L200.972 205.119ZM193.79 205.119H186.602L185.89 200.642C185.139 195.95 184.858 194.189 184.702 193.525H192.877L193.79 205.119ZM194.027 208.121L194.999 220.644H189.059C188.86 219.375 188.66 218.09 188.455 216.805C187.99 213.845 187.526 210.892 187.088 208.121H194.027ZM188.66 220.644H184.788L182.687 208.121H186.689C187.283 211.972 187.963 216.275 188.644 220.622L188.66 220.644ZM189.135 223.646C189.724 227.426 190.307 231.12 190.836 234.522H187.115L185.29 223.646H189.135ZM207.77 234.522L208.132 223.646H212.096L211.14 234.5L207.77 234.522ZM208.748 205.119L209.131 193.525H214.672L213.678 205.119H208.748ZM184.34 193.525C184.502 194.362 185.231 198.925 186.214 205.119H182.185L180.236 193.525H184.34ZM214.672 234.522H211.567L212.495 223.646H215.946L214.672 234.522ZM218.122 205.119H214.078L215.071 193.525H219.483L218.122 205.119Z" fill="#E0E0E0"/>
<path d="M61.6896 101.714C61.6896 101.714 61.5978 101.547 61.4412 101.234L60.7446 99.8407L58.1202 94.5379C55.863 89.9641 52.6392 83.4193 48.7242 75.4759L48.8808 75.5299L12.9168 93.1501L12.9816 92.9611L25.8282 119.254L25.6554 119.194L51.6186 106.564L59.022 102.978L61.02 102.06L61.5276 101.822L61.7112 101.741L61.5492 101.828L61.02 102.06L59.0814 103.027L51.7374 106.655L25.7688 119.426L25.6554 119.486L25.596 119.367L12.7278 93.0907L12.663 92.9611L12.7926 92.9017L48.7782 75.3301L48.8808 75.2815L48.9294 75.3841L58.2498 94.5595L60.8094 99.8623L61.4736 101.25L61.6896 101.714Z" fill="#E0E0E0"/>
<path d="M48.8268 75.4272C48.8232 75.4754 48.8123 75.5228 48.7944 75.5677C48.762 75.6757 48.7188 75.8107 48.6648 75.9727C48.5406 76.3507 48.3678 76.869 48.1248 77.5224C47.655 78.8886 46.9854 80.8219 46.1592 83.2033L39.6036 101.914L39.42 102.001H39.3876H39.3444L39.258 101.974L39.0852 101.914L38.7396 101.801L38.0592 101.574L36.72 101.099L34.0794 100.219L29.0844 98.5501L20.6334 95.7097L14.9418 93.771L13.4028 93.231L13.0032 93.0853C12.9553 93.0729 12.9097 93.0528 12.8682 93.0259C12.9164 93.0295 12.9637 93.0404 13.0086 93.0583L13.419 93.1771L14.9796 93.6685L20.6982 95.5207L29.16 98.2801L34.1604 99.9324L36.8064 100.813L38.1564 101.261L38.8422 101.488L39.1824 101.601L39.3552 101.655L39.4416 101.687H39.4848H39.5172C39.4416 101.725 39.7008 101.606 39.3498 101.779C41.9472 94.4892 44.2962 87.8959 46.0026 83.0953L48.06 77.4847C48.2976 76.8367 48.492 76.3237 48.6 75.9565L48.7566 75.5568L48.8268 75.4272Z" fill="#E0E0E0"/>
<path d="M30.5802 98.9173C30.6558 98.9173 29.6298 103.545 28.2852 109.215C26.9406 114.885 25.785 119.475 25.7094 119.448C25.6338 119.421 26.6652 114.82 28.0098 109.15C29.3544 103.48 30.5046 98.8957 30.5802 98.9173Z" fill="#E0E0E0"/>
<path d="M62.0676 101.909C62.0352 101.974 57.7152 99.8569 52.4178 97.1785C47.1204 94.5001 42.8544 92.2699 42.8922 92.1997C42.93 92.1295 47.25 94.2463 52.5474 96.9301C57.8448 99.6139 62.1 101.839 62.0676 101.909Z" fill="#E0E0E0"/>
<path d="M239.614 104.803C239.614 104.803 239.695 104.674 239.857 104.441L240.581 103.421L243.335 99.5652L253.309 85.6764V85.8384L225.553 65.7882L225.752 65.7558L211.955 84.807L211.928 84.6288L231.865 99.1332L237.557 103.291L239.074 104.404L239.463 104.695C239.549 104.765 239.598 104.798 239.598 104.803L239.468 104.717L239.08 104.447L237.568 103.367L231.86 99.279L211.793 84.834L211.68 84.78L211.756 84.672L225.531 65.61L225.617 65.4966L225.731 65.5776L253.46 85.671L253.552 85.7358L253.481 85.8276L243.383 99.684C242.179 101.304 241.223 102.605 240.592 103.491C240.278 103.918 240.052 104.247 239.863 104.474C239.674 104.701 239.614 104.803 239.614 104.803Z" fill="#E0E0E0"/>
<path d="M253.4 85.7466C253.246 85.7833 253.089 85.8103 252.931 85.8276L251.586 86.0166L246.634 86.6484L230.288 88.641C229.981 88.4142 230.202 88.5708 230.132 88.5168V88.4628V88.3872L230.105 88.2414L230.045 87.9444L229.927 87.3612C229.846 86.9724 229.77 86.5836 229.689 86.2002C229.538 85.4334 229.381 84.6774 229.235 83.9322C228.938 82.4472 228.647 81.0108 228.377 79.6446C227.837 76.9446 227.345 74.4606 226.935 72.387C226.525 70.3134 226.217 68.6664 225.99 67.4838L225.747 66.15C225.715 65.9948 225.692 65.838 225.677 65.6802C225.732 65.8292 225.773 65.9828 225.801 66.1392C225.871 66.4632 225.974 66.906 226.098 67.4622L227.129 72.3222C227.556 74.3958 228.064 76.8474 228.631 79.5744C228.906 80.9406 229.203 82.3716 229.505 83.8566C229.657 84.6018 229.808 85.3578 229.964 86.1246C230.045 86.508 230.121 86.8914 230.202 87.2802L230.321 87.8688L230.38 88.1604L230.407 88.3116V88.3818V88.4466C230.342 88.398 230.564 88.5654 230.256 88.344L246.613 86.4378L251.575 85.8978L252.925 85.7628C253.083 85.7441 253.242 85.7387 253.4 85.7466Z" fill="#E0E0E0"/>
<path d="M228.728 80.8757C228.728 80.9513 224.948 81.8855 220.282 82.9655C215.617 84.0455 211.788 84.8555 211.766 84.7799C211.745 84.7043 215.546 83.7701 220.217 82.6901C224.888 81.6101 228.712 80.8001 228.728 80.8757Z" fill="#E0E0E0"/>
<path d="M239.63 105.154C239.555 105.154 239.285 101.207 239.036 96.3305C238.788 91.4543 238.648 87.4961 238.729 87.4907C238.81 87.4853 239.069 91.4381 239.317 96.3143C239.566 101.191 239.706 105.149 239.63 105.154Z" fill="#E0E0E0"/>
<path d="M185.177 203.71L185.598 203.872L186.797 204.369L191.349 206.269L207.722 213.154L207.576 213.214L221.454 180.452L221.53 180.641L199.039 171.072L199.206 171.002L189.13 194.562C187.893 197.44 186.916 199.725 186.235 201.296C185.9 202.068 185.641 202.668 185.458 203.083L185.258 203.548L185.177 203.71C185.177 203.71 185.177 203.656 185.236 203.553C185.296 203.451 185.344 203.294 185.42 203.1L186.16 201.323L189 194.589C191.446 188.795 194.908 180.587 198.99 170.899L199.039 170.781L199.157 170.835L221.643 180.36L221.773 180.414L221.713 180.544C216.481 192.85 211.642 204.212 207.781 213.289L207.738 213.392L207.635 213.349L191.241 206.329L186.737 204.385L185.571 203.877L185.177 203.71Z" fill="#E0E0E0"/>
<path d="M207.679 213.262C207.656 213.227 207.638 213.189 207.625 213.149C207.587 213.057 207.544 212.944 207.484 212.809C207.365 212.485 207.198 212.042 206.987 211.486C206.555 210.314 205.945 208.656 205.2 206.626L199.4 190.523C199.552 190.172 199.449 190.426 199.481 190.345H199.519L199.589 190.312L199.73 190.248L200.016 190.118L200.583 189.864L201.701 189.357L203.893 188.368L208.035 186.505L215.055 183.363L219.796 181.267L221.092 180.727L221.432 180.592C221.513 180.56 221.551 180.549 221.551 180.555L221.443 180.619L221.119 180.781L219.845 181.386L215.136 183.546L208.116 186.743L203.98 188.622L201.82 189.61L200.696 190.118L200.156 190.377L199.876 190.501L199.73 190.566L199.66 190.599H199.627C199.654 190.523 199.546 190.777 199.692 190.431C201.922 196.717 203.942 202.408 205.411 206.556C206.123 208.608 206.707 210.276 207.117 211.453C207.306 212.02 207.457 212.463 207.565 212.793C207.608 212.933 207.646 213.046 207.679 213.144C207.684 213.183 207.684 213.223 207.679 213.262Z" fill="#E0E0E0"/>
<path d="M206.901 187.142C206.831 187.175 205.006 183.557 202.829 179.042C200.653 174.528 198.947 170.878 199.017 170.84C199.087 170.802 200.907 174.425 203.083 178.94C205.259 183.454 206.966 187.11 206.901 187.142Z" fill="#E0E0E0"/>
<path d="M184.826 203.807C184.826 203.731 188.746 202.549 193.628 201.166C198.509 199.784 202.5 198.72 202.5 198.801C202.5 198.882 198.58 200.059 193.698 201.442C188.816 202.824 184.847 203.882 184.826 203.807Z" fill="#E0E0E0"/>
<path d="M220.077 28.9818H58.6224V164.711H220.077V28.9818Z" fill="#EBEBEB"/>
<path d="M58.9356 38.34C58.9356 38.2644 94.9428 38.1996 139.347 38.1996C183.751 38.1996 219.78 38.2806 219.78 38.34C219.78 38.3994 183.784 38.4804 139.363 38.4804C94.9428 38.4804 58.9356 38.4318 58.9356 38.34Z" fill="#E0E0E0"/>
<path d="M63.8496 35.2242C64.8039 35.2242 65.5776 34.4505 65.5776 33.4962C65.5776 32.5418 64.8039 31.7682 63.8496 31.7682C62.8952 31.7682 62.1216 32.5418 62.1216 33.4962C62.1216 34.4505 62.8952 35.2242 63.8496 35.2242Z" fill="#E0E0E0"/>
<path d="M68.6502 35.2242C69.6045 35.2242 70.3782 34.4505 70.3782 33.4962C70.3782 32.5418 69.6045 31.7682 68.6502 31.7682C67.6958 31.7682 66.9222 32.5418 66.9222 33.4962C66.9222 34.4505 67.6958 35.2242 68.6502 35.2242Z" fill="#E0E0E0"/>
<path d="M73.98 35.2242C74.9343 35.2242 75.708 34.4505 75.708 33.4962C75.708 32.5418 74.9343 31.7682 73.98 31.7682C73.0256 31.7682 72.252 32.5418 72.252 33.4962C72.252 34.4505 73.0256 35.2242 73.98 35.2242Z" fill="#E0E0E0"/>
<path d="M248.751 240.613C248.751 240.694 196.052 240.754 131.063 240.754C66.0744 240.754 13.3434 240.694 13.3434 240.613C13.3434 240.532 66.0312 240.473 131.063 240.473C196.096 240.473 248.751 240.538 248.751 240.613Z" fill="#263238"/>
<path d="M213.84 179.123C213.84 178.135 213.791 123.757 213.721 39.8574L213.84 39.96H48.1896L48.33 39.8196C48.33 90.288 48.33 137.889 48.33 179.086L48.2004 178.961L213.867 179.086L48.2004 179.21H48.06V179.086C48.06 137.889 48.06 90.288 48.06 39.8196V39.6792H48.2166H213.867H213.986V39.798C213.91 123.757 213.84 178.135 213.84 179.123Z" fill="#FAFAFA"/>
<path d="M213.862 39.8574H48.195V179.123H213.862V39.8574Z" fill="#FAFAFA"/>
<path d="M108.005 49.4749H48.519V63.1099H108.005V49.4749Z" fill="#EBEBEB"/>
<path d="M63.5202 60.48C63.5202 60.48 63.5202 60.3018 63.5202 59.9778C63.5202 59.6538 63.5202 59.1732 63.5202 58.6062C63.5202 57.3966 63.4878 55.7226 63.4608 53.703L63.5742 53.8164H53.7084L53.8488 53.676V57.1914C53.8488 58.3254 53.8488 59.4108 53.8488 60.4314L53.7192 60.3018L60.7986 60.3666L62.8398 60.4044H63.3798H63.5796C63.3483 60.4301 63.1157 60.4409 62.883 60.4368L60.8688 60.4692L53.7084 60.534H53.5842V60.48C53.5842 59.4486 53.5842 58.3632 53.5842 57.24V55.5012C53.5842 55.2096 53.5842 54.9126 53.5842 54.6156V53.6922C53.46 53.8164 53.757 53.5194 53.73 53.5518H63.5958H63.7092V53.6652C63.7092 55.7172 63.666 57.4128 63.6498 58.6386C63.6498 59.1786 63.6498 59.643 63.6498 59.9886C63.6225 60.1562 63.5791 60.3208 63.5202 60.48Z" fill="#263238"/>
<path d="M63.5202 53.6814C63.5202 53.6814 63.4068 53.838 63.1692 54.081C62.9316 54.324 62.5806 54.6642 62.1432 55.0854C61.2684 55.9278 60.0426 57.078 58.6818 58.3254C58.2984 58.3254 58.5738 58.3254 58.4874 58.3254H58.455L58.3902 58.266L58.266 58.1472L58.0122 57.915L57.5262 57.4614L56.6028 56.6028L55.0314 55.08C54.594 54.6588 54.243 54.3186 54 54.0756C53.8657 53.9587 53.7477 53.8243 53.649 53.676C53.649 53.676 53.8164 53.7732 54.0756 53.9946C54.3348 54.216 54.7074 54.5346 55.1556 54.9342L56.7432 56.3598L57.672 57.2076L58.1634 57.6558L58.4172 57.888L58.5414 58.0068L58.6062 58.0608L58.6386 58.0932H58.4658C59.8266 56.8404 61.0686 55.7118 61.9812 54.9072C62.4348 54.5076 62.8074 54.1836 63.0612 53.9676C63.1996 53.8507 63.3542 53.7543 63.5202 53.6814Z" fill="#263238"/>
<path d="M56.9376 56.7C56.4985 57.4162 55.9804 58.0809 55.3932 58.6818C54.878 59.3455 54.2893 59.9488 53.6382 60.48C54.0783 59.7661 54.5963 59.1032 55.1826 58.5035C55.6987 57.8389 56.2873 57.234 56.9376 56.7Z" fill="#263238"/>
<path d="M63.585 60.5393C62.9482 59.9722 62.3759 59.3366 61.8786 58.6439C61.3077 58.0072 60.8079 57.3101 60.3882 56.5649C61.0259 57.1332 61.5982 57.7707 62.0946 58.4657C62.6661 59.1001 63.1659 59.7955 63.585 60.5393Z" fill="#263238"/>
<path d="M101.174 56.052C101.174 56.133 94.2084 56.1924 85.6224 56.1924C77.0364 56.1924 70.0758 56.133 70.0758 56.052C70.0758 55.971 77.0364 55.9116 85.6224 55.9116C94.2084 55.9116 101.174 55.9764 101.174 56.052Z" fill="#263238"/>
<path d="M213.862 110.041H107.249V133.402H213.862V110.041Z" fill="#06D6A0"/>
<g opacity="0.8">
<path d="M213.862 110.041H107.249V133.402H213.862V110.041Z" fill="white"/>
</g>
<path d="M121.646 117.342H115.322C114.651 117.342 114.107 117.886 114.107 118.557V124.88C114.107 125.551 114.651 126.095 115.322 126.095H121.646C122.317 126.095 122.861 125.551 122.861 124.88V118.557C122.861 117.886 122.317 117.342 121.646 117.342Z" fill="#06D6A0"/>
<path d="M117.823 123.66C117.706 123.66 117.592 123.622 117.499 123.552L115.733 122.224C115.669 122.184 115.614 122.131 115.572 122.07C115.53 122.008 115.501 121.938 115.487 121.864C115.474 121.79 115.476 121.714 115.493 121.641C115.51 121.568 115.542 121.5 115.587 121.44C115.632 121.38 115.69 121.33 115.755 121.294C115.821 121.257 115.893 121.235 115.968 121.228C116.042 121.221 116.117 121.229 116.189 121.253C116.26 121.276 116.325 121.315 116.381 121.365L117.758 122.396L120.523 119.394C120.62 119.289 120.755 119.226 120.898 119.221C121.042 119.215 121.181 119.267 121.287 119.364C121.392 119.462 121.454 119.597 121.46 119.74C121.465 119.883 121.414 120.023 121.316 120.128L118.222 123.487C118.171 123.542 118.109 123.586 118.041 123.616C117.972 123.645 117.898 123.66 117.823 123.66Z" fill="white"/>
<path d="M213.862 86.562H107.249V109.922H213.862V86.562Z" fill="#06D6A0"/>
<path d="M213.219 110.009C213.219 110.09 189.664 110.149 160.612 110.149C131.56 110.149 108.005 110.09 108.005 110.009C108.005 109.928 131.555 109.868 160.612 109.868C189.67 109.868 213.219 109.933 213.219 110.009Z" fill="#263238"/>
<path d="M213.921 156.74H107.309V179.123H213.921V156.74Z" fill="#06D6A0"/>
<g opacity="0.8">
<path d="M213.921 156.74H107.309V179.123H213.921V156.74Z" fill="white"/>
</g>
<path d="M121.7 164.047H115.376C114.705 164.047 114.161 164.591 114.161 165.262V171.585C114.161 172.256 114.705 172.8 115.376 172.8H121.7C122.371 172.8 122.915 172.256 122.915 171.585V165.262C122.915 164.591 122.371 164.047 121.7 164.047Z" fill="#06D6A0"/>
<path d="M117.877 170.37C117.76 170.37 117.646 170.332 117.553 170.262L115.787 168.934C115.672 168.848 115.596 168.72 115.576 168.578C115.556 168.436 115.593 168.292 115.679 168.178C115.765 168.063 115.893 167.987 116.034 167.967C116.176 167.947 116.32 167.984 116.435 168.07L117.812 169.106L120.577 166.104C120.623 166.046 120.681 165.999 120.746 165.965C120.811 165.93 120.883 165.91 120.957 165.904C121.03 165.899 121.104 165.908 121.174 165.933C121.244 165.957 121.308 165.995 121.362 166.045C121.417 166.095 121.46 166.156 121.49 166.223C121.52 166.291 121.536 166.363 121.537 166.437C121.538 166.511 121.523 166.584 121.495 166.652C121.466 166.72 121.424 166.782 121.37 166.833L118.26 170.197C118.211 170.25 118.152 170.293 118.086 170.322C118.02 170.352 117.949 170.368 117.877 170.37Z" fill="white"/>
<g opacity="0.8">
<path d="M213.862 86.562H107.249V109.922H213.862V86.562Z" fill="white"/>
</g>
<path d="M121.646 93.8628H115.322C114.651 93.8628 114.107 94.4068 114.107 95.0778V101.401C114.107 102.072 114.651 102.616 115.322 102.616H121.646C122.317 102.616 122.861 102.072 122.861 101.401V95.0778C122.861 94.4068 122.317 93.8628 121.646 93.8628Z" fill="#06D6A0"/>
<path d="M117.823 100.186C117.706 100.186 117.592 100.148 117.499 100.078L115.733 98.7499C115.669 98.7102 115.614 98.6577 115.572 98.5958C115.53 98.5339 115.501 98.4638 115.487 98.3901C115.474 98.3164 115.476 98.2406 115.493 98.1676C115.51 98.0947 115.542 98.026 115.587 97.9662C115.632 97.9064 115.69 97.8566 115.755 97.82C115.821 97.7835 115.893 97.7609 115.968 97.7539C116.042 97.7468 116.117 97.7554 116.189 97.7791C116.26 97.8027 116.325 97.8409 116.381 97.8913L117.758 98.9227L120.523 95.9203C120.619 95.8153 120.754 95.7529 120.897 95.7468C121.039 95.7408 121.179 95.7915 121.284 95.8879C121.337 95.9359 121.38 95.9939 121.41 96.0585C121.44 96.1232 121.457 96.1932 121.46 96.2645C121.463 96.3358 121.452 96.407 121.427 96.474C121.403 96.5409 121.365 96.6023 121.316 96.6547L118.222 100.013C118.171 100.068 118.109 100.112 118.041 100.142C117.972 100.172 117.898 100.187 117.823 100.186Z" fill="white"/>
<path d="M213.84 179.123C213.84 178.135 213.791 123.757 213.721 39.8574L213.84 39.96H48.1896L48.33 39.8196C48.33 90.288 48.33 137.889 48.33 179.086L48.2004 178.961L213.867 179.086L48.2004 179.21H48.06V179.086C48.06 137.889 48.06 90.288 48.06 39.8196V39.6792H48.2166H213.867H213.986V39.798C213.91 123.757 213.84 178.135 213.84 179.123Z" fill="#06D6A0"/>
<path d="M48.519 49.4748C48.519 49.3938 85.4604 49.3344 131.026 49.3344C176.591 49.3344 213.543 49.3938 213.543 49.4748C213.543 49.5558 176.607 49.6151 131.026 49.6151C85.4442 49.6151 48.519 49.5504 48.519 49.4748Z" fill="#06D6A0"/>
<path d="M53.5626 46.2564C54.5408 46.2564 55.3338 45.4634 55.3338 44.4852C55.3338 43.507 54.5408 42.714 53.5626 42.714C52.5844 42.714 51.7914 43.507 51.7914 44.4852C51.7914 45.4634 52.5844 46.2564 53.5626 46.2564Z" fill="#06D6A0"/>
<path d="M58.4874 46.2564C59.4656 46.2564 60.2586 45.4634 60.2586 44.4852C60.2586 43.507 59.4656 42.714 58.4874 42.714C57.5092 42.714 56.7162 43.507 56.7162 44.4852C56.7162 45.4634 57.5092 46.2564 58.4874 46.2564Z" fill="#06D6A0"/>
<path d="M65.205 43.2324C65.4526 43.4802 65.6212 43.7958 65.6894 44.1393C65.7577 44.4829 65.7226 44.8389 65.5885 45.1625C65.4544 45.4861 65.2274 45.7627 64.9361 45.9572C64.6449 46.1518 64.3025 46.2557 63.9522 46.2557C63.6019 46.2557 63.2595 46.1518 62.9683 45.9572C62.677 45.7627 62.45 45.4861 62.3159 45.1625C62.1818 44.8389 62.1467 44.4829 62.215 44.1393C62.2832 43.7958 62.4518 43.4802 62.6994 43.2324C62.8639 43.0678 63.0592 42.9373 63.2741 42.8482C63.4891 42.7591 63.7195 42.7133 63.9522 42.7133C64.1849 42.7133 64.4153 42.7591 64.6303 42.8482C64.8452 42.9373 65.0405 43.0678 65.205 43.2324Z" fill="#06D6A0"/>
<path d="M70.2 68.5801C70.3273 68.5644 70.4561 68.5644 70.5834 68.5801L71.7066 68.5477L75.8214 68.4937H75.8754L75.9078 68.5369L77.7222 70.9237L77.7492 70.9615V71.0047C77.7492 72.0847 77.7492 73.2835 77.7492 74.5255V74.6659H75.9564H68.5476H68.4288V74.5201C68.4288 73.2997 68.4288 72.2143 68.4612 71.2801L69.7248 69.2983C69.8663 69.0481 70.0251 68.8081 70.2 68.5801C70.1766 68.6524 70.1439 68.7213 70.1028 68.7853L69.795 69.3253L68.6286 71.3179V71.2693C68.6286 72.1873 68.6286 73.2727 68.6556 74.5093L68.5368 74.3905H75.9456H77.6034L77.463 74.5309C77.463 73.2889 77.463 72.1009 77.463 71.0101L77.49 71.0857L75.708 68.6827L75.7998 68.7259L71.7282 68.6719H70.5942C70.4603 68.6531 70.3284 68.6224 70.2 68.5801Z" fill="#263238"/>
<path d="M77.625 71.1613C77.3696 71.23 77.1065 71.2663 76.842 71.2693C76.3452 71.3125 75.6324 71.3611 74.7846 71.4151L74.898 71.2963C74.8774 71.7476 74.7295 72.1838 74.4714 72.5545C74.3305 72.7581 74.146 72.9278 73.9314 73.0513C73.694 73.1611 73.4368 73.2217 73.1754 73.2295C72.897 73.241 72.6195 73.1908 72.3628 73.0825C72.106 72.9742 71.8764 72.8105 71.6904 72.6031C71.3807 72.2323 71.1724 71.7877 71.0856 71.3125L71.2044 71.4097C70.416 71.4097 69.7572 71.3827 69.2982 71.3611C69.0563 71.3658 68.8148 71.3386 68.58 71.2801C68.8158 71.2291 69.057 71.2074 69.2982 71.2153C69.7572 71.2153 70.416 71.1775 71.2044 71.1613H71.28V71.2639C71.3718 71.6864 71.5666 72.0796 71.847 72.4087C72.0063 72.5872 72.2033 72.7283 72.4236 72.8216C72.644 72.915 72.8823 72.9584 73.1214 72.9487C73.342 72.9478 73.5596 72.8981 73.7586 72.8029C73.9459 72.7061 74.1085 72.5675 74.2338 72.3979C74.463 72.071 74.6009 71.6889 74.6334 71.2909V71.1775H74.736C75.5892 71.1505 76.302 71.1343 76.8042 71.1289C77.0781 71.1048 77.3539 71.1157 77.625 71.1613Z" fill="#263238"/>
<path d="M97.9236 68.877C98.0741 68.843 98.2284 68.8285 98.3826 68.8338V68.9202C97.3026 68.9742 93.96 69.0174 90.0396 69.0174C87.6096 69.0174 85.4064 69.0174 83.8134 68.9742L81.9288 68.931C81.6971 68.9387 81.4653 68.9206 81.2376 68.877C81.4653 68.8333 81.6971 68.8152 81.9288 68.823L83.8134 68.7798C85.4064 68.7528 87.5934 68.7366 90.0396 68.7366C93.96 68.7366 97.281 68.7798 98.3826 68.8338V68.9202C98.2283 68.9291 98.0735 68.9145 97.9236 68.877Z" fill="#263238"/>
<path d="M97.9236 72.4141C98.0735 72.3766 98.2283 72.362 98.3826 72.3709V72.4573C97.3026 72.5113 93.96 72.5545 90.0396 72.5545C87.6096 72.5545 85.4064 72.5545 83.8134 72.5113L81.9288 72.4681C81.6972 72.4724 81.4657 72.4543 81.2376 72.4141C81.4653 72.3699 81.697 72.35 81.9288 72.3547L83.8134 72.3115C85.4064 72.3115 87.5934 72.2737 90.0396 72.2737C93.96 72.2737 97.281 72.3115 98.3826 72.3709V72.4573C98.2285 72.459 98.0747 72.4445 97.9236 72.4141Z" fill="#263238"/>
<path d="M97.9236 75.9456C98.0741 75.9116 98.2284 75.8971 98.3826 75.9024V75.9888C97.3026 76.0482 93.96 76.086 90.0396 76.086C87.6096 76.086 85.4064 76.086 83.8134 76.0482L81.9288 75.9996C81.6971 76.0073 81.4653 75.9892 81.2376 75.9456C81.4657 75.9054 81.6972 75.8873 81.9288 75.8916L83.8134 75.8484C85.4064 75.8214 87.5934 75.8052 90.0396 75.8052C93.96 75.8052 97.281 75.8484 98.3826 75.9024V75.9888C98.2283 75.9977 98.0735 75.9831 97.9236 75.9456Z" fill="#263238"/>
<path d="M70.2 93.8898C70.3262 93.8645 70.4548 93.8536 70.5834 93.8574L71.7066 93.8304L75.8214 93.7764H75.8754L75.9078 93.8196L77.7222 96.2064L77.7492 96.2442V96.2874C77.7492 97.3674 77.7492 98.5662 77.7492 99.8082V99.9486H75.9564H68.5476H68.4288V99.8298C68.4288 98.6094 68.4288 97.524 68.4612 96.5898V96.5628L69.7248 94.581C69.863 94.348 70.0163 94.1243 70.1838 93.9114C70.1604 93.9837 70.1277 94.0526 70.0866 94.1166L69.7788 94.6566L68.634 96.66V96.6114C68.634 97.5294 68.634 98.6148 68.661 99.8514L68.5422 99.7326H75.951H77.6088L77.4684 99.873C77.4684 98.631 77.4684 97.443 77.4684 96.3522L77.4954 96.4278L75.7134 94.0248L75.8052 94.068L71.7336 94.014H70.5996C70.4629 93.985 70.3291 93.9434 70.2 93.8898Z" fill="#263238"/>
<path d="M77.625 96.4548C77.3696 96.5235 77.1065 96.5598 76.842 96.5628C76.3452 96.606 75.6324 96.6546 74.7846 96.7086L74.898 96.5898C74.8774 97.041 74.7295 97.4773 74.4714 97.848C74.3305 98.0516 74.146 98.2213 73.9314 98.3448C73.694 98.4546 73.4368 98.5152 73.1754 98.523C72.897 98.5345 72.6195 98.4843 72.3628 98.376C72.106 98.2677 71.8764 98.104 71.6904 97.8966C71.3807 97.5258 71.1724 97.0812 71.0856 96.606L71.2044 96.7032C70.416 96.7032 69.7572 96.6762 69.2982 96.6546C69.0567 96.6628 68.8153 96.6392 68.58 96.5844C68.8158 96.5329 69.0569 96.5093 69.2982 96.5142L71.2044 96.4656H71.28V96.5682C71.3718 96.9907 71.5666 97.3839 71.847 97.713C72.0063 97.8915 72.2033 98.0326 72.4236 98.1259C72.644 98.2193 72.8823 98.2627 73.1214 98.253C73.342 98.2521 73.5596 98.2023 73.7586 98.1072C73.9459 98.0103 74.1085 97.8718 74.2338 97.7022C74.463 97.3752 74.6009 96.9931 74.6334 96.5952V96.4818H74.736C75.5892 96.4818 76.302 96.4386 76.8042 96.4332C77.0776 96.4055 77.3534 96.4128 77.625 96.4548Z" fill="#263238"/>
<path d="M97.9236 94.1707C98.0741 94.1367 98.2284 94.1222 98.3826 94.1275V94.2139C97.3026 94.2679 93.96 94.3111 90.0396 94.3111C87.6096 94.3111 85.4064 94.3111 83.8134 94.2679L81.9288 94.2247C81.6971 94.2324 81.4653 94.2143 81.2376 94.1707C81.4653 94.127 81.6971 94.1089 81.9288 94.1167L83.8134 94.0735C85.4064 94.0465 87.5934 94.0303 90.0396 94.0303C93.96 94.0303 97.281 94.0735 98.3826 94.1275V94.2139C98.2284 94.2192 98.0741 94.2046 97.9236 94.1707Z" fill="#263238"/>
<path d="M97.9236 97.7076C98.0735 97.6701 98.2283 97.6555 98.3826 97.6644V97.74C97.3026 97.794 93.96 97.8372 90.0396 97.8372C87.6096 97.8372 85.4064 97.8372 83.8134 97.794L81.9288 97.7508C81.6972 97.7551 81.4657 97.737 81.2376 97.6968C81.4653 97.6526 81.697 97.6327 81.9288 97.6374L83.8134 97.5942C85.4064 97.5672 87.5934 97.5564 90.0396 97.5564C93.96 97.5564 97.281 97.5942 98.3826 97.6536V97.74C98.2289 97.7453 98.0751 97.7344 97.9236 97.7076Z" fill="#263238"/>
<path d="M97.9236 101.239C98.0741 101.205 98.2284 101.191 98.3826 101.196V101.282C97.3026 101.342 93.96 101.38 90.0396 101.38C87.6096 101.38 85.4064 101.38 83.8134 101.342L81.9288 101.293C81.6971 101.301 81.4653 101.283 81.2376 101.239C81.4657 101.199 81.6972 101.181 81.9288 101.185L83.8134 101.142C85.4064 101.115 87.5934 101.099 90.0396 101.099C93.96 101.099 97.281 101.142 98.3826 101.196V101.282C98.2283 101.291 98.0735 101.277 97.9236 101.239Z" fill="#263238"/>
<path d="M70.2 119.183C70.3262 119.158 70.4548 119.147 70.5834 119.151L71.7066 119.124L75.8214 119.07H75.8754L75.9078 119.113L77.7222 121.5L77.7492 121.538V121.581C77.7492 122.661 77.7492 123.86 77.7492 125.102V125.242H75.9564H68.5476H68.4288V125.123C68.4288 123.903 68.4288 122.818 68.4612 121.883L69.7248 119.902C69.863 119.669 70.0163 119.445 70.1838 119.232C70.1604 119.304 70.1277 119.373 70.0866 119.437L69.7788 119.977L68.6124 121.97V121.921C68.6124 122.839 68.6124 123.925 68.6394 125.161L68.5206 125.042H75.9294H77.5872L77.4468 125.183C77.4468 123.941 77.4468 122.753 77.4468 121.662L77.4738 121.738L75.6918 119.335L75.7836 119.378L71.712 119.324H70.578C70.4481 119.288 70.3216 119.241 70.2 119.183Z" fill="#263238"/>
<path d="M77.625 121.748C77.3696 121.817 77.1065 121.854 76.842 121.856C76.3452 121.9 75.6324 121.948 74.7846 122.002L74.898 121.883C74.8774 122.335 74.7295 122.771 74.4714 123.142C74.3305 123.345 74.146 123.515 73.9314 123.638C73.6945 123.749 73.4368 123.808 73.1754 123.811C72.8972 123.825 72.6195 123.776 72.3626 123.669C72.1056 123.561 71.876 123.398 71.6904 123.19C71.3807 122.82 71.1724 122.375 71.0856 121.9L71.2044 121.997C70.416 121.997 69.7572 121.997 69.2982 121.948C69.0567 121.957 68.8153 121.933 68.58 121.878C68.8158 121.827 69.0569 121.803 69.2982 121.808L71.2044 121.759H71.28V121.862C71.3718 122.284 71.5666 122.678 71.847 123.007C72.0063 123.185 72.2033 123.326 72.4236 123.42C72.644 123.513 72.8823 123.556 73.1214 123.547C73.342 123.546 73.5596 123.496 73.7586 123.401C73.9459 123.304 74.1085 123.165 74.2338 122.996C74.463 122.669 74.6009 122.287 74.6334 121.889V121.775H74.736C75.5892 121.743 76.302 121.732 76.8042 121.727C77.0776 121.699 77.3534 121.707 77.625 121.748Z" fill="#263238"/>
<path d="M97.9236 119.464C98.0741 119.43 98.2284 119.416 98.3826 119.421V119.507C97.3026 119.561 93.96 119.605 90.0396 119.605C87.6096 119.605 85.4064 119.605 83.8134 119.561L81.9288 119.518C81.6971 119.526 81.4653 119.508 81.2376 119.464C81.4653 119.42 81.6971 119.402 81.9288 119.41L83.8134 119.367C85.4064 119.34 87.5934 119.324 90.0396 119.324C93.96 119.324 97.281 119.367 98.3826 119.421V119.507C98.2284 119.513 98.0741 119.498 97.9236 119.464Z" fill="#263238"/>
<path d="M97.9236 123.001C98.0735 122.964 98.2283 122.949 98.3826 122.958V123.044C97.3026 123.098 93.96 123.142 90.0396 123.142C87.6096 123.142 85.4064 123.142 83.8134 123.098L81.9288 123.055C81.6972 123.06 81.4657 123.041 81.2376 123.001C81.4653 122.957 81.697 122.937 81.9288 122.942L83.8134 122.899C85.4064 122.872 87.5934 122.861 90.0396 122.861C93.96 122.861 97.281 122.899 98.3826 122.958V123.044C98.2285 123.046 98.0747 123.032 97.9236 123.001Z" fill="#263238"/>
<path d="M97.9236 126.533C98.0741 126.499 98.2284 126.484 98.3826 126.49V126.576C97.3026 126.635 93.96 126.673 90.0396 126.673C87.6096 126.673 85.4064 126.673 83.8134 126.635L81.9288 126.587C81.6971 126.595 81.4653 126.576 81.2376 126.533C81.4657 126.493 81.6972 126.474 81.9288 126.479L83.8134 126.436C85.4064 126.436 87.5934 126.392 90.0396 126.392C93.96 126.392 97.281 126.436 98.3826 126.49V126.576C98.2283 126.585 98.0735 126.57 97.9236 126.533Z" fill="#263238"/>
<path d="M205.265 102.897H201.15C200.935 102.901 200.721 102.861 200.522 102.781C200.322 102.702 200.14 102.583 199.987 102.432C199.834 102.281 199.712 102.102 199.629 101.903C199.546 101.705 199.503 101.492 199.503 101.277V94.4189H200.043V101.255C200.043 101.399 200.072 101.542 200.128 101.675C200.184 101.808 200.266 101.928 200.369 102.029C200.472 102.129 200.594 102.208 200.728 102.261C200.863 102.314 201.006 102.339 201.15 102.335H205.265C205.551 102.335 205.826 102.222 206.028 102.019C206.231 101.816 206.345 101.542 206.345 101.255V94.6565H206.885V101.255C206.888 101.47 206.848 101.683 206.768 101.882C206.688 102.081 206.569 102.262 206.418 102.415C206.267 102.568 206.088 102.689 205.89 102.772C205.692 102.854 205.479 102.897 205.265 102.897Z" fill="#06D6A0"/>
<path d="M207.587 94.4568H198.828V94.9968H207.587V94.4568Z" fill="#06D6A0"/>
<path d="M201.614 94.7268H201.074V94.1274C201.074 93.8409 201.188 93.5662 201.391 93.3637C201.593 93.1611 201.868 93.0474 202.154 93.0474H204.314C204.601 93.0474 204.876 93.1611 205.078 93.3637C205.281 93.5662 205.394 93.8409 205.394 94.1274V94.608H204.854V94.1274C204.854 93.9841 204.798 93.8468 204.696 93.7455C204.595 93.6443 204.458 93.5874 204.314 93.5874H202.154C202.011 93.5874 201.874 93.6443 201.773 93.7455C201.671 93.8468 201.614 93.9841 201.614 94.1274V94.7268Z" fill="#06D6A0"/>
<path d="M201.96 100.877C201.821 100.112 201.774 99.3322 201.82 98.5554C201.774 97.7803 201.822 97.0027 201.96 96.2388C202.102 97.0023 202.149 97.7803 202.1 98.5554C202.149 99.3322 202.102 100.112 201.96 100.877Z" fill="#06D6A0"/>
<path d="M203.229 100.877C203.09 100.112 203.043 99.3322 203.089 98.5554C203.043 97.7803 203.091 97.0027 203.229 96.2388C203.371 97.0023 203.418 97.7803 203.369 98.5554C203.418 99.3322 203.371 100.112 203.229 100.877Z" fill="#06D6A0"/>
<path d="M204.509 100.877C204.37 100.112 204.323 99.3322 204.368 98.5554C204.323 97.7803 204.37 97.0027 204.509 96.2388C204.65 97.0023 204.698 97.7803 204.649 98.5554C204.698 99.3322 204.651 100.112 204.509 100.877Z" fill="#06D6A0"/>
<path d="M205.265 125.037H201.15C200.714 125.036 200.296 124.862 199.987 124.553C199.678 124.245 199.504 123.826 199.503 123.39V116.554H200.043V123.39C200.043 123.684 200.16 123.965 200.367 124.173C200.575 124.38 200.856 124.497 201.15 124.497H205.265C205.554 124.49 205.828 124.37 206.03 124.163C206.232 123.957 206.345 123.679 206.345 123.39V116.791H206.885V123.39C206.888 123.605 206.849 123.819 206.769 124.018C206.69 124.218 206.571 124.4 206.42 124.553C206.269 124.706 206.089 124.828 205.891 124.911C205.693 124.994 205.48 125.037 205.265 125.037Z" fill="#06D6A0"/>
<path d="M207.587 116.591H198.828V117.131H207.587V116.591Z" fill="#06D6A0"/>
<path d="M201.614 116.862H201.074V116.262C201.074 115.976 201.188 115.701 201.391 115.498C201.593 115.296 201.868 115.182 202.154 115.182H204.314C204.601 115.182 204.876 115.296 205.078 115.498C205.281 115.701 205.394 115.976 205.394 116.262V116.743H204.854V116.262C204.854 116.119 204.798 115.982 204.696 115.88C204.595 115.779 204.458 115.722 204.314 115.722H202.154C202.011 115.722 201.874 115.779 201.773 115.88C201.671 115.982 201.614 116.119 201.614 116.262V116.862Z" fill="#06D6A0"/>
<path d="M201.96 123.012C201.773 121.471 201.773 119.914 201.96 118.373C202.147 119.914 202.147 121.471 201.96 123.012Z" fill="#06D6A0"/>
<path d="M203.229 123.012C203.042 121.471 203.042 119.914 203.229 118.373C203.416 119.914 203.416 121.471 203.229 123.012Z" fill="#06D6A0"/>
<path d="M204.509 123.012C204.322 121.471 204.322 119.914 204.509 118.373C204.696 119.914 204.696 121.471 204.509 123.012Z" fill="#06D6A0"/>
<path d="M205.265 173.696H201.15C200.935 173.7 200.721 173.661 200.522 173.581C200.322 173.501 200.14 173.382 199.987 173.232C199.834 173.081 199.712 172.901 199.629 172.703C199.546 172.504 199.503 172.291 199.503 172.076V165.24H200.043V172.076C200.043 172.221 200.072 172.363 200.128 172.496C200.184 172.629 200.266 172.749 200.369 172.85C200.472 172.95 200.594 173.029 200.728 173.082C200.863 173.135 201.006 173.16 201.15 173.156H205.265C205.551 173.156 205.826 173.043 206.028 172.84C206.231 172.638 206.345 172.363 206.345 172.076V165.456H206.885V172.055C206.888 172.269 206.848 172.482 206.768 172.681C206.688 172.88 206.569 173.062 206.418 173.214C206.267 173.367 206.088 173.488 205.89 173.571C205.692 173.654 205.479 173.696 205.265 173.696Z" fill="#06D6A0"/>
<path d="M207.587 165.256H198.828V165.796H207.587V165.256Z" fill="#06D6A0"/>
<path d="M201.614 165.526H201.074V164.921C201.074 164.635 201.188 164.36 201.391 164.158C201.593 163.955 201.868 163.841 202.154 163.841H204.314C204.601 163.841 204.876 163.955 205.078 164.158C205.281 164.36 205.394 164.635 205.394 164.921V165.407H204.854V164.921C204.854 164.778 204.798 164.641 204.696 164.539C204.595 164.438 204.458 164.381 204.314 164.381H202.154C202.011 164.381 201.874 164.438 201.773 164.539C201.671 164.641 201.614 164.778 201.614 164.921V165.526Z" fill="#06D6A0"/>
<path d="M201.96 171.677C201.773 170.136 201.773 168.579 201.96 167.038C202.147 168.579 202.147 170.136 201.96 171.677Z" fill="#06D6A0"/>
<path d="M203.229 171.677C203.042 170.136 203.042 168.579 203.229 167.038C203.416 168.579 203.416 170.136 203.229 171.677Z" fill="#06D6A0"/>
<path d="M204.509 171.677C204.322 170.136 204.322 168.579 204.509 167.038C204.696 168.579 204.696 170.136 204.509 171.677Z" fill="#06D6A0"/>
<path d="M207.5 77.3819C207.481 77.2153 207.472 77.0475 207.473 76.8797C207.473 76.5287 207.473 76.0751 207.473 75.5027C207.473 74.2985 207.436 72.6245 207.414 70.5995L207.527 70.7129L197.64 70.7399L197.78 70.5995V72.3761C197.78 72.9647 197.78 73.5425 197.78 74.1095C197.78 75.2435 197.78 76.3343 197.78 77.3495L197.651 77.2199L204.725 77.2847L206.771 77.3171H207.311H207.511C207.279 77.3291 207.047 77.3291 206.815 77.3171L204.8 77.3549L197.64 77.4197H197.51V77.2901C197.51 76.2587 197.51 75.1679 197.51 74.0501V70.5401C197.386 70.6643 197.683 70.3673 197.651 70.3943L207.522 70.4267H207.635V70.5347C207.635 72.5867 207.592 74.2877 207.581 75.5081C207.581 76.0481 207.581 76.5179 207.549 76.8581C207.546 77.0337 207.53 77.2088 207.5 77.3819Z" fill="#263238"/>
<path d="M207.5 70.5996C207.402 70.7479 207.284 70.8822 207.149 70.9992C206.906 71.2422 206.555 71.5878 206.118 72.009C205.243 72.8514 204.023 73.9962 202.657 75.249H202.462L202.43 75.2166L202.37 75.1572L202.241 75.0438L201.992 74.8116L201.501 74.358L200.583 73.4994L199.033 72.0306C198.596 71.6094 198.245 71.2638 198.007 71.0208C197.873 70.9038 197.755 70.7695 197.656 70.6212C197.81 70.7116 197.953 70.8184 198.083 70.9398C198.342 71.1612 198.715 71.4798 199.163 71.8848L200.75 73.305L201.685 74.1528L202.176 74.6064L202.424 74.8332L202.554 74.952L202.619 75.0114H202.651C202.565 75.0114 202.846 75.0114 202.462 75.0114C203.823 73.7532 205.07 72.63 205.978 71.8254C206.437 71.4204 206.809 71.1018 207.058 70.8804C207.193 70.7683 207.341 70.6739 207.5 70.5996Z" fill="#263238"/>
<path d="M200.918 73.6343C200.472 74.3422 199.952 75.0011 199.368 75.5999C198.853 76.2641 198.265 76.8674 197.613 77.3981C198.051 76.6808 198.569 76.0158 199.157 75.4163C199.675 74.7573 200.265 74.1594 200.918 73.6343Z" fill="#263238"/>
<path d="M207.56 77.4575C206.925 76.8888 206.353 76.2533 205.853 75.5621C205.285 74.9269 204.787 74.2316 204.368 73.4885C205.004 74.0573 205.576 74.6927 206.075 75.3839C206.646 76.0175 207.144 76.713 207.56 77.4575Z" fill="#263238"/>
<path d="M213.219 63.1099C213.219 63.1855 189.664 63.2503 160.612 63.2503C131.56 63.2503 108 63.1801 108 63.1099C108 63.0397 131.549 62.9695 160.607 62.9695C189.664 62.9695 213.219 63.0343 213.219 63.1099Z" fill="#263238"/>
<path d="M213.219 86.562C213.219 86.6376 189.664 86.7024 160.612 86.7024C131.56 86.7024 108 86.6376 108 86.562C108 86.4864 131.549 86.4216 160.607 86.4216C189.664 86.4216 213.219 86.481 213.219 86.562Z" fill="#263238"/>
<path d="M213.219 132.98C213.219 133.056 189.664 133.121 160.612 133.121C131.56 133.121 108 133.056 108 132.98C108 132.905 131.549 132.84 160.607 132.84C189.664 132.84 213.219 132.899 213.219 132.98Z" fill="#263238"/>
<path d="M213.219 156.741C213.219 156.822 189.664 156.881 160.612 156.881C131.56 156.881 108.005 156.822 108.005 156.741C108.005 156.66 131.555 156.6 160.612 156.6C189.67 156.6 213.219 156.665 213.219 156.741Z" fill="#263238"/>
<path d="M121.651 79.38C121.651 79.38 121.77 79.38 121.975 79.3044C122.273 79.2101 122.521 79.0025 122.666 78.7266C122.877 78.3756 122.769 77.8518 122.785 77.2578C122.801 76.6638 122.785 75.9888 122.785 75.249C122.785 74.5092 122.785 73.683 122.785 72.8136C122.785 72.5922 122.785 72.3708 122.785 72.144C122.804 71.9283 122.786 71.711 122.731 71.5014C122.663 71.2953 122.534 71.1144 122.362 70.9824C122.19 70.8504 121.981 70.7735 121.765 70.7616H115.322C115.072 70.7636 114.83 70.8524 114.638 71.013C114.446 71.1735 114.316 71.3958 114.269 71.6418C114.232 72.1386 114.269 72.7218 114.269 73.2618C114.269 74.3418 114.269 75.3678 114.269 76.356C114.269 76.8474 114.269 77.328 114.269 77.7978C114.255 78.0162 114.266 78.2354 114.302 78.4512C114.348 78.6556 114.451 78.8428 114.599 78.9912C114.741 79.1267 114.916 79.2233 115.106 79.272C115.301 79.3051 115.498 79.316 115.695 79.3044H116.867L120.393 79.3476L121.354 79.3746C121.466 79.372 121.579 79.3811 121.689 79.4016C121.578 79.4168 121.465 79.4168 121.354 79.4016L120.393 79.4286L116.867 79.4772H115.695C115.48 79.4925 115.264 79.4816 115.052 79.4448C114.816 79.3916 114.6 79.2742 114.426 79.1055C114.253 78.9368 114.129 78.7235 114.07 78.489C114.024 78.2544 114.009 78.0147 114.026 77.7762C114.026 77.3064 114.026 76.8258 114.026 76.3344C114.026 75.3462 114.026 74.3148 114.026 73.2402V72.4302C114.008 72.1479 114.008 71.8647 114.026 71.5824C114.09 71.2771 114.257 71.0029 114.498 70.8062C114.74 70.6094 115.043 70.5021 115.355 70.5024H121.77C122.036 70.521 122.29 70.6182 122.501 70.7816C122.711 70.9451 122.869 71.1674 122.953 71.4204C123.015 71.6563 123.037 71.9009 123.017 72.144C123.017 72.3708 123.017 72.5922 123.017 72.8136C123.017 73.683 123.017 74.4984 123.017 75.249C123.017 75.9996 123.017 76.6638 123.017 77.2578C123.017 77.5548 123.017 77.8302 123.017 78.084C123.024 78.327 122.967 78.5674 122.85 78.7806C122.68 79.0694 122.402 79.2791 122.078 79.3638C121.94 79.4087 121.792 79.4143 121.651 79.38Z" fill="#263238"/>
<path d="M121.651 149.456C121.651 149.456 121.77 149.456 121.975 149.38C122.273 149.286 122.521 149.078 122.666 148.803C122.877 148.452 122.769 147.928 122.785 147.334C122.801 146.74 122.785 146.065 122.785 145.325C122.785 144.585 122.785 143.759 122.785 142.889C122.785 142.668 122.785 142.447 122.785 142.22C122.804 142.004 122.786 141.787 122.731 141.577C122.663 141.371 122.534 141.19 122.362 141.058C122.19 140.926 121.981 140.849 121.765 140.838H115.322C115.073 140.839 114.832 140.927 114.64 141.087C114.448 141.246 114.317 141.467 114.269 141.712C114.232 142.215 114.269 142.792 114.269 143.332C114.269 144.412 114.269 145.438 114.269 146.427C114.269 146.918 114.269 147.399 114.269 147.863C114.255 148.083 114.266 148.304 114.302 148.522C114.346 148.727 114.449 148.914 114.599 149.062C114.739 149.2 114.915 149.297 115.106 149.343C115.3 149.38 115.498 149.393 115.695 149.38H116.867L120.393 149.424L121.354 149.451C121.465 149.439 121.578 149.439 121.689 149.451C121.579 149.475 121.467 149.484 121.354 149.478L120.393 149.504L116.867 149.548H115.695C115.48 149.563 115.264 149.552 115.052 149.515C114.816 149.462 114.6 149.345 114.426 149.176C114.253 149.007 114.129 148.794 114.07 148.559C114.023 148.323 114.009 148.082 114.026 147.841C114.026 147.377 114.026 146.896 114.026 146.405C114.026 145.417 114.026 144.385 114.026 143.311V142.501C114.008 142.218 114.008 141.935 114.026 141.653C114.084 141.343 114.249 141.062 114.491 140.86C114.734 140.658 115.039 140.547 115.355 140.546H121.77C122.036 140.564 122.29 140.662 122.501 140.825C122.711 140.989 122.869 141.211 122.953 141.464C123.015 141.7 123.037 141.944 123.017 142.188C123.017 142.414 123.017 142.636 123.017 142.857C123.017 143.726 123.017 144.542 123.017 145.293C123.017 146.043 123.017 146.707 123.017 147.301C123.017 147.598 123.017 147.874 123.017 148.128C123.024 148.37 122.967 148.611 122.85 148.824C122.767 148.967 122.655 149.092 122.523 149.191C122.39 149.291 122.239 149.362 122.078 149.402C121.942 149.456 121.796 149.474 121.651 149.456Z" fill="#263238"/>
<path d="M107.222 177.12C107.222 177.12 107.222 177.007 107.222 176.791C107.222 176.575 107.222 176.251 107.222 175.824C107.222 174.96 107.222 173.707 107.222 172.103C107.222 168.863 107.222 164.192 107.222 158.425C107.222 146.88 107.363 130.928 107.525 113.308C107.687 95.6879 107.811 79.7417 107.914 68.1857C107.951 62.4185 107.978 57.7475 108 54.5075C108 52.8875 108 51.6509 108.032 50.7923C108.032 50.3711 108.032 50.0525 108.032 49.8257C108.032 49.5989 108.032 49.4963 108.032 49.4963C108.032 49.4963 108.032 49.6043 108.032 49.8257C108.032 50.0471 108.032 50.3657 108.032 50.7923C108.032 51.6509 108.032 52.9037 108.032 54.5075C108.032 57.7475 108.032 62.4185 108.032 68.1857C108.005 79.7309 107.892 95.6879 107.725 113.308C107.557 130.928 107.438 146.869 107.341 158.425C107.303 164.192 107.276 168.863 107.255 172.103C107.255 173.723 107.255 174.96 107.222 175.824C107.222 176.24 107.222 176.558 107.222 176.791C107.222 177.023 107.222 177.12 107.222 177.12Z" fill="#263238"/>
<path d="M167.351 95.9688C167.351 96.0444 159.251 96.1092 149.229 96.1092C139.207 96.1092 131.107 96.0444 131.107 95.9688C131.107 95.8932 139.207 95.8284 149.229 95.8284C159.251 95.8284 167.351 95.8878 167.351 95.9688Z" fill="#263238"/>
<path d="M190.004 99.9649C190.004 100.046 176.818 100.105 160.558 100.105C144.299 100.105 131.107 100.046 131.107 99.9649C131.107 99.8839 144.293 99.8245 160.558 99.8245C176.823 99.8245 190.004 99.9001 190.004 99.9649Z" fill="#263238"/>
<path d="M167.351 143.008C167.351 143.084 159.251 143.148 149.229 143.148C139.207 143.148 131.107 143.084 131.107 143.008C131.107 142.932 139.207 142.868 149.229 142.868C159.251 142.868 167.351 142.927 167.351 143.008Z" fill="#263238"/>
<path d="M190.004 147.004C190.004 147.08 176.818 147.145 160.558 147.145C144.299 147.145 131.107 147.08 131.107 147.004C131.107 146.929 144.293 146.864 160.558 146.864C176.823 146.864 190.004 146.929 190.004 147.004Z" fill="#263238"/>
<path d="M167.351 73.3645C167.351 73.4455 159.251 73.5103 149.229 73.5103C139.207 73.5103 131.107 73.4455 131.107 73.3645C131.107 73.2835 139.207 73.2241 149.229 73.2241C159.251 73.2241 167.351 73.2889 167.351 73.3645Z" fill="#263238"/>
<path d="M190.004 77.3657C190.004 77.4413 176.818 77.5061 160.558 77.5061C144.299 77.5061 131.107 77.4413 131.107 77.3657C131.107 77.2901 144.293 77.2253 160.558 77.2253C176.823 77.2253 190.004 77.2901 190.004 77.3657Z" fill="#263238"/>
<path d="M167.351 119.016C167.351 119.091 159.251 119.156 149.229 119.156C139.207 119.156 131.107 119.091 131.107 119.016C131.107 118.94 139.207 118.875 149.229 118.875C159.251 118.875 167.351 118.94 167.351 119.016Z" fill="#263238"/>
<path d="M190.004 123.012C190.004 123.093 176.818 123.152 160.558 123.152C144.299 123.152 131.107 123.093 131.107 123.012C131.107 122.931 144.293 122.872 160.558 122.872C176.823 122.872 190.004 122.936 190.004 123.012Z" fill="#263238"/>
<path d="M167.351 165.326C167.351 165.402 159.251 165.467 149.229 165.467C139.207 165.467 131.107 165.402 131.107 165.326C131.107 165.251 139.207 165.186 149.229 165.186C159.251 165.186 167.351 165.24 167.351 165.326Z" fill="#263238"/>
<path d="M190.004 169.322C190.004 169.398 176.818 169.463 160.558 169.463C144.299 169.463 131.107 169.398 131.107 169.322C131.107 169.247 144.293 169.182 160.558 169.182C176.823 169.182 190.004 169.247 190.004 169.322Z" fill="#263238"/>
<path d="M208.478 52.4177H201.344V59.5511H208.478V52.4177Z" fill="#E0E0E0"/>
<path d="M196.862 52.4177H189.729V59.5511H196.862V52.4177Z" fill="#E0E0E0"/>
<path d="M185.247 52.4177H178.114V59.5511H185.247V52.4177Z" fill="#E0E0E0"/>
<path d="M55.7766 71.0964L58.806 75.0492L61.398 71.0964H55.7766Z" fill="#263238"/>
<path d="M49.2102 122.369C56.2302 113.103 63.6606 114.41 68.8068 116.651C71.3735 117.82 73.5318 119.731 75.0041 122.136C76.4764 124.542 77.1955 127.333 77.0688 130.151C76.9824 131.63 76.6638 133.186 77.2686 134.541C78.2352 136.701 81.0486 137.333 82.6686 139.072C84.8988 141.453 84.4074 145.217 83.6514 148.392C82.8954 151.567 82.107 155.185 83.97 157.858C85.6818 160.304 88.938 160.963 91.6272 162.27C93.4115 163.122 94.9958 164.341 96.2762 165.848C97.5567 167.354 98.5045 169.114 99.0576 171.013C99.58 172.923 99.6212 174.932 99.1774 176.862C98.7335 178.792 97.8186 180.582 96.5142 182.072C93.9006 184.912 89.9802 186.176 86.1624 186.737C80.5802 187.561 74.8847 187.136 69.4867 185.493C64.0886 183.849 59.1224 181.029 54.9462 177.234C50.7699 173.44 47.4876 168.766 45.336 163.55C43.1843 158.333 42.2169 152.704 42.5034 147.069" fill="#263238"/>
<path d="M69.174 117.045C68.3385 117.04 67.5035 117.087 66.6738 117.186C64.6901 117.57 62.7453 118.134 60.8634 118.87C58.6224 119.653 56.457 120.091 54.8802 119.988C54.26 119.965 53.6451 119.865 53.0496 119.691C52.8267 119.636 52.6124 119.55 52.4124 119.437C53.2226 119.639 54.0513 119.759 54.8856 119.794C56.9025 119.734 58.8946 119.332 60.777 118.606C63.0072 117.823 65.097 117.148 66.6468 116.986C67.2631 116.911 67.885 116.895 68.5044 116.937C68.7314 116.943 68.9566 116.98 69.174 117.045Z" fill="#455A64"/>
<path d="M85.3524 190.75C85.6224 191.56 91.2222 218.02 91.2222 218.02L133.823 234.398L131.425 240.613L94.8996 237.4C73.5804 234.22 72.3978 223.76 73.683 212.069L75.8916 192.03L85.3524 190.75Z" fill="#FFBE9D"/>
<path d="M24.1218 176.483C28.512 169.836 35.1756 166.002 41.2776 163.879L63.6876 165.499C66.1936 165.283 68.7166 165.622 71.0764 166.493C73.4361 167.363 75.5745 168.745 77.3388 170.538L79.4232 226.066L84.5694 240.646H31.2552L24.1218 176.483Z" fill="#06D6A0"/>
<path d="M78.1596 193.32C78.1596 193.32 78.111 193.293 78.03 193.234L77.6682 192.964C77.4798 192.808 77.2833 192.662 77.0796 192.526L76.2426 191.986C75.9078 191.808 75.5406 191.608 75.1356 191.408C73.5859 190.699 71.9253 190.262 70.227 190.118C68.7708 189.99 67.3038 190.081 65.8746 190.388C64.2333 190.733 62.6734 191.389 61.2792 192.321C59.708 193.301 58.452 194.713 57.6612 196.387C57.2659 197.269 57.097 198.237 57.1698 199.201C57.266 200.193 57.6403 201.138 58.2498 201.928C58.8468 202.72 59.7312 203.245 60.7122 203.391C61.1741 203.476 61.6507 203.422 62.0821 203.236C62.5135 203.051 62.8804 202.742 63.1368 202.349C63.337 201.938 63.4447 201.488 63.4521 201.031C63.4596 200.573 63.3667 200.12 63.18 199.703C63.0219 199.28 62.8076 198.88 62.5428 198.515C62.277 198.162 61.9768 197.836 61.6464 197.543C60.3895 196.434 58.8651 195.673 57.2238 195.334C55.7955 195.019 54.3258 194.937 52.8714 195.091C50.7568 195.349 48.6775 195.841 46.6722 196.56L45.0252 197.1L44.5986 197.24C44.5508 197.262 44.4996 197.275 44.4474 197.278L44.5878 197.213L45.009 197.046C45.3762 196.906 45.927 196.695 46.629 196.441C48.629 195.682 50.7116 195.162 52.8336 194.891C54.3095 194.724 55.8029 194.795 57.2562 195.102C58.9387 195.446 60.5033 196.22 61.7976 197.348C61.9704 197.5 62.1324 197.662 62.289 197.829C62.4512 197.998 62.601 198.178 62.7372 198.369C63.0156 198.752 63.2426 199.169 63.4122 199.611C63.6134 200.067 63.7123 200.561 63.7021 201.059C63.6918 201.558 63.5726 202.047 63.3528 202.495C63.0886 202.947 62.6796 203.297 62.1918 203.488C61.7044 203.678 61.1767 203.742 60.6582 203.672C59.6021 203.521 58.6487 202.958 58.0068 202.106C57.3691 201.274 56.9814 200.277 56.889 199.233C56.8166 198.22 57.0024 197.206 57.429 196.285C58.2419 194.563 59.536 193.113 61.155 192.11C62.5817 191.169 64.1741 190.508 65.8476 190.161C67.2999 189.862 68.7888 189.781 70.2648 189.923C71.482 190.03 72.6802 190.295 73.8288 190.712C74.299 190.881 74.7604 191.074 75.2112 191.29C75.6216 191.5 75.9888 191.711 76.2912 191.894L77.1228 192.461C77.3231 192.606 77.5159 192.761 77.7006 192.926L78.0408 193.217L78.1596 193.32Z" fill="#FAFAFA"/>
<path d="M77.3388 170.51L90.5688 194.303L75.8916 198.812L77.3388 170.51Z" fill="#06D6A0"/>
<path d="M79.1154 226.222C79.0894 226.085 79.0749 225.946 79.0722 225.807C79.0722 225.51 79.0344 225.115 79.002 224.619C78.9534 223.539 78.8886 222.059 78.8022 220.223C78.651 216.519 78.462 211.394 78.2946 205.735C78.1272 200.076 78.0246 194.935 77.9922 191.23C77.9922 189.373 77.9922 187.872 77.9922 186.835C77.9922 186.338 77.9922 185.938 77.9922 185.641C77.9894 185.502 77.9984 185.363 78.0192 185.226C78.0441 185.363 78.0549 185.502 78.0516 185.641L78.084 186.835C78.084 187.915 78.138 189.394 78.1812 191.225C78.2784 194.962 78.4134 200.076 78.5646 205.724C78.7158 211.372 78.8832 216.481 78.9912 220.218C79.0344 222.048 79.0722 223.544 79.0992 224.613C79.0992 225.11 79.0992 225.51 79.0992 225.807C79.1188 225.944 79.1242 226.084 79.1154 226.222Z" fill="#263238"/>
<path d="M81.243 177.757C81.1512 177.84 81.0496 177.91 80.9406 177.968C80.6422 178.157 80.3319 178.326 80.0118 178.476C78.5162 179.133 76.88 179.405 75.2521 179.268C73.6243 179.132 72.0565 178.59 70.6914 177.693C70.2138 177.393 69.7795 177.03 69.4008 176.613C68.9837 176.161 68.7061 175.598 68.6016 174.993C68.5426 174.676 68.5551 174.35 68.6383 174.039C68.7214 173.728 68.8731 173.439 69.0822 173.194C69.3139 172.953 69.6047 172.776 69.9258 172.681C70.2468 172.586 70.5871 172.577 70.9128 172.654C71.2371 172.715 71.5452 172.842 71.8176 173.028C72.09 173.214 72.3207 173.454 72.495 173.734C72.8059 174.295 72.9074 174.947 72.7812 175.576C72.6694 176.17 72.4114 176.726 72.0306 177.196C71.6645 177.639 71.215 178.006 70.7076 178.276C69.7708 178.743 68.7539 179.029 67.7106 179.118C66.814 179.22 65.9094 179.231 65.0106 179.151C63.7125 179.034 62.4388 178.727 61.2306 178.238C60.9023 178.106 60.5815 177.956 60.2694 177.79C60.1554 177.741 60.0482 177.677 59.9508 177.601C60.0667 177.641 60.1803 177.688 60.291 177.741C60.5124 177.838 60.831 177.979 61.2684 178.135C62.4846 178.581 63.7567 178.855 65.0484 178.951C65.934 179.017 66.8239 178.995 67.7052 178.886C68.7156 178.79 69.6991 178.506 70.605 178.049C71.08 177.793 71.5016 177.448 71.847 177.034C72.195 176.597 72.4305 176.081 72.5328 175.533C72.6438 174.97 72.552 174.387 72.2736 173.886C72.1212 173.638 71.9183 173.426 71.6783 173.262C71.4382 173.098 71.1664 172.987 70.8804 172.935C70.6026 172.867 70.3117 172.871 70.0362 172.949C69.7607 173.027 69.5102 173.174 69.309 173.378C69.1281 173.593 68.9974 173.845 68.9264 174.117C68.8554 174.389 68.8459 174.673 68.8986 174.949C68.9952 175.498 69.2462 176.007 69.6222 176.418C69.9835 176.833 70.3995 177.196 70.8588 177.498C72.4442 178.566 74.315 179.13 76.2264 179.118C77.5215 179.126 78.8057 178.88 80.0064 178.394C80.8056 178.016 81.2268 177.73 81.243 177.757Z" fill="#FAFAFA"/>
<path d="M78.4242 225.758L78.273 225.655L77.841 225.342C77.2778 224.95 76.6878 224.598 76.0752 224.289C73.8107 223.171 71.3101 222.615 68.7852 222.669C65.6046 222.669 61.8408 223.749 58.1958 225.844C57.2607 226.372 56.3846 226.999 55.5822 227.713C54.7393 228.441 54.0397 229.32 53.5194 230.305C52.9902 231.322 52.8172 232.488 53.028 233.615C53.1546 234.176 53.4439 234.687 53.8596 235.084C54.0634 235.277 54.3138 235.414 54.5865 235.481C54.8591 235.548 55.1446 235.543 55.4148 235.467C55.9545 235.282 56.4015 234.895 56.6622 234.387C56.9371 233.878 57.0905 233.313 57.1104 232.735C57.1009 231.576 56.7435 230.447 56.0844 229.495C55.4572 228.573 54.6419 227.794 53.6922 227.21C52.7784 226.655 51.7754 226.262 50.7276 226.049C48.7662 225.684 46.7559 225.664 44.7876 225.99C43.0652 226.236 41.3632 226.607 39.6954 227.102C37.2799 227.839 34.9473 228.823 32.7348 230.04C31.9518 230.467 31.3578 230.823 30.9528 231.066L30.4992 231.347L30.3372 231.433C30.3372 231.433 30.3804 231.39 30.483 231.32L30.9258 231.017C31.3146 230.758 31.9086 230.391 32.6862 229.937C34.8921 228.696 37.2259 227.696 39.6468 226.957C41.3214 226.443 43.0328 226.059 44.766 225.806C46.7573 225.461 48.7941 225.472 50.7816 225.839C51.8603 226.053 52.8931 226.455 53.8326 227.027C54.8169 227.626 55.6619 228.429 56.3112 229.381C57.0019 230.372 57.3782 231.548 57.3912 232.756C57.3704 233.38 57.2039 233.99 56.9052 234.538C56.6137 235.12 56.1057 235.564 55.4904 235.775C55.1746 235.864 54.8411 235.871 54.5222 235.793C54.2033 235.716 53.9099 235.557 53.6706 235.332C53.2146 234.893 52.8974 234.33 52.758 233.712C52.537 232.518 52.7274 231.285 53.298 230.213C53.8337 229.197 54.5554 228.29 55.4256 227.54C56.2469 226.818 57.1409 226.182 58.0932 225.644C61.776 223.528 65.5884 222.496 68.8122 222.496C71.3631 222.454 73.8851 223.04 76.1562 224.203C76.9775 224.619 77.7402 225.142 78.4242 225.758Z" fill="#FAFAFA"/>
<path d="M40.3812 182.628C38.7612 174.328 27.0162 174.021 24.9588 182.223C24.9264 182.347 24.894 182.477 24.867 182.607C21.8376 195.529 32.0706 233.712 34.8192 235.915C37.5678 238.119 40.2948 240.613 44.9928 238.664C47.7414 237.525 76.2804 212.301 76.2804 212.301C76.2804 212.301 82.8792 218.625 85.0824 218.074C87.2856 217.523 91.4868 211.054 91.4868 211.054C91.4868 211.054 95.5692 217.172 96.0822 217.264C96.3608 217.309 96.6467 217.277 96.9081 217.171C97.1696 217.064 97.3967 216.887 97.5642 216.66C97.7317 216.433 97.8333 216.164 97.8576 215.883C97.882 215.601 97.8282 215.319 97.7022 215.066C97.1622 214.24 91.9566 202.862 91.9566 202.862C91.9566 202.862 96.0552 202.419 95.229 201.042C95.229 201.042 95.1264 199.779 92.3562 200.022C89.586 200.265 89.64 197.1 84.483 197.403C79.326 197.705 68.6772 199.023 53.703 210.514L46.764 215.406L40.3812 182.628Z" fill="#FFBE9D"/>
<path d="M53.6868 210.514L53.8596 210.373L54.3996 209.979L56.4246 208.462C58.9975 206.62 61.677 204.933 64.449 203.407C68.6889 201.058 73.2313 199.303 77.949 198.191C79.3098 197.905 80.7192 197.651 82.1826 197.483C82.917 197.402 83.6568 197.338 84.4128 197.284C85.1828 197.226 85.9568 197.261 86.7186 197.386C87.5041 197.524 88.2547 197.816 88.9272 198.245C89.613 198.661 90.1908 199.238 90.882 199.595C91.2165 199.769 91.5853 199.866 91.962 199.881C92.3454 199.881 92.7666 199.832 93.1878 199.849C93.6164 199.849 94.0419 199.922 94.446 200.065C94.6704 200.128 94.8742 200.249 95.0372 200.416C95.2002 200.583 95.3166 200.789 95.3748 201.015V200.961C95.4848 201.134 95.5235 201.343 95.4828 201.544C95.4231 201.736 95.304 201.905 95.1426 202.025C94.8451 202.244 94.5129 202.412 94.1598 202.522C93.4564 202.744 92.733 202.898 91.9998 202.981L92.1132 202.792L95.7744 210.713C96.417 212.063 97.0542 213.451 97.7508 214.796C97.8631 214.963 97.9521 215.145 98.0154 215.336C98.0532 215.543 98.0532 215.755 98.0154 215.962C97.946 216.384 97.7276 216.767 97.3998 217.042C97.2374 217.179 97.0489 217.282 96.8456 217.344C96.6423 217.407 96.4285 217.427 96.2172 217.404H96.0606C96.0211 217.397 95.9829 217.384 95.9472 217.366L95.8716 217.312C95.7908 217.244 95.715 217.17 95.6448 217.091C95.5098 216.945 95.3802 216.794 95.2614 216.637C93.852 214.834 92.6046 212.965 91.3626 211.129H91.5948C90.6183 212.617 89.5582 214.049 88.4196 215.417C87.862 216.094 87.2536 216.728 86.5998 217.312C86.4324 217.453 86.2542 217.582 86.0868 217.723C85.9023 217.846 85.7112 217.96 85.5144 218.063C85.3116 218.172 85.0883 218.238 84.8588 218.256C84.6292 218.275 84.3983 218.246 84.1806 218.171C83.3622 217.91 82.587 217.53 81.8802 217.042C81.1728 216.583 80.5032 216.092 79.8498 215.584C78.5538 214.564 77.3388 213.5 76.1832 212.409H76.356C67.3056 220.369 59.5566 227.054 54.0162 231.687C51.246 234.004 49.0266 235.802 47.4714 236.99C46.6938 237.584 46.0836 238.027 45.657 238.302C45.4461 238.45 45.2198 238.575 44.982 238.675C44.982 238.675 45.2196 238.556 45.6354 238.264C46.0512 237.973 46.656 237.53 47.4228 236.925C48.9564 235.721 51.1596 233.901 53.9028 231.568C59.4162 226.903 67.1436 220.19 76.1778 212.215L76.2642 212.139L76.3506 212.22C77.4954 213.3 78.7158 214.38 80.0064 215.368C80.649 215.87 81.3186 216.362 82.0152 216.81C82.6978 217.277 83.4456 217.641 84.2346 217.89C85.0446 218.192 85.7682 217.62 86.3946 217.085C87.0349 216.509 87.6323 215.886 88.182 215.222C89.3121 213.862 90.365 212.44 91.3356 210.962L91.449 210.784L91.5678 210.956C92.8044 212.787 94.0626 214.661 95.4504 216.448C95.5728 216.599 95.697 216.745 95.823 216.886C95.8878 216.95 95.9526 217.021 96.0174 217.075L96.0606 217.107C96.0606 217.107 96.0606 217.107 96.0606 217.156C96.0606 217.204 96.0606 217.242 96.0606 217.112H96.1902C96.3656 217.133 96.5434 217.117 96.7124 217.066C96.8815 217.015 97.0382 216.93 97.173 216.815C97.4539 216.595 97.6389 216.275 97.6892 215.922C97.7395 215.569 97.6513 215.21 97.443 214.92C96.7248 213.543 96.0984 212.171 95.4558 210.816L91.8 202.883L91.7244 202.716H91.908C92.621 202.634 93.3244 202.484 94.0086 202.268C94.332 202.172 94.6369 202.022 94.9104 201.825C95.0261 201.74 95.1128 201.621 95.1588 201.485C95.1823 201.352 95.1554 201.215 95.0832 201.101V201.064C95.0265 200.889 94.9272 200.73 94.7943 200.603C94.6614 200.476 94.4991 200.384 94.3218 200.335C93.9468 200.204 93.5524 200.138 93.1554 200.14C92.7504 200.14 92.3616 200.178 91.9296 200.173C91.5039 200.156 91.0871 200.045 90.7092 199.849C89.964 199.465 89.397 198.887 88.7382 198.482C88.0923 198.073 87.3736 197.793 86.6214 197.656C85.1256 197.386 83.6082 197.618 82.1556 197.748C80.703 197.878 79.299 198.158 77.9436 198.439C73.231 199.532 68.6892 201.261 64.4436 203.58C61.6701 205.09 58.9822 206.752 56.3922 208.559L54.351 210.044L53.811 210.422L53.6868 210.514Z" fill="#EB996E"/>
<path d="M44.199 224.694C44.199 224.694 44.1396 224.554 44.0856 224.294C44.0114 223.922 43.9663 223.545 43.9506 223.166C43.8106 220.64 44.5071 218.139 45.9324 216.049C46.1457 215.734 46.3802 215.435 46.6344 215.152C46.818 214.958 46.926 214.855 46.9368 214.866C46.9476 214.877 46.5966 215.352 46.0998 216.157C44.7944 218.263 44.1163 220.698 44.145 223.177C44.1558 224.1 44.2476 224.689 44.199 224.694Z" fill="#EB996E"/>
<path d="M32.4 168.27C32.1354 168.448 22.6314 171.288 21.1356 181.03C19.6398 190.771 20.52 207.738 20.52 207.738L46.2996 205.967L38.907 171.72L32.4 168.27Z" fill="#06D6A0"/>
<path d="M87.1776 216.729C87.1344 216.729 87.2046 216.378 87.1776 215.844C87.1504 215.144 86.9659 214.459 86.6376 213.84C86.3079 213.221 85.845 212.682 85.2822 212.263C84.8502 211.95 84.5316 211.821 84.5478 211.772C84.8538 211.808 85.1455 211.921 85.3956 212.101C86.0274 212.5 86.5418 213.059 86.886 213.721C87.2399 214.384 87.4061 215.131 87.3666 215.881C87.373 216.175 87.3081 216.466 87.1776 216.729Z" fill="#EB996E"/>
<path d="M89.5482 213.84C89.425 213.005 89.1265 212.206 88.6723 211.495C88.2181 210.784 87.6185 210.177 86.913 209.714C87.1679 209.758 87.4075 209.866 87.6096 210.028C88.1296 210.371 88.5712 210.82 88.9056 211.345C89.2447 211.87 89.4675 212.461 89.559 213.079C89.6216 213.329 89.6179 213.591 89.5482 213.84Z" fill="#EB996E"/>
<path d="M89.5482 207.684C89.5482 207.657 89.7912 207.765 90.0882 208.03C90.4708 208.382 90.7767 208.809 90.9867 209.285C91.1967 209.76 91.3063 210.274 91.3086 210.794C91.3086 211.189 91.2384 211.426 91.206 211.421C91.128 210.729 90.9666 210.049 90.7254 209.396C90.401 208.781 90.006 208.207 89.5482 207.684Z" fill="#EB996E"/>
<path d="M43.1568 189.794C43.1122 189.802 43.0664 189.802 43.0218 189.794L42.633 189.751C42.1348 189.689 41.6337 189.655 41.1318 189.648C39.2842 189.629 37.4503 189.968 35.7318 190.647C33.1773 191.644 30.9816 193.387 29.43 195.648C28.5068 196.954 28.033 198.525 28.08 200.124C28.1166 200.965 28.3655 201.782 28.8036 202.5C29.2616 203.228 29.9613 203.771 30.78 204.034C31.594 204.304 32.4795 204.262 33.264 203.915C33.6332 203.738 33.9597 203.484 34.2207 203.169C34.4818 202.853 34.6713 202.485 34.776 202.09C34.9549 201.301 34.9213 200.48 34.6788 199.708C34.4584 198.962 34.1113 198.259 33.6528 197.629C32.8377 196.538 31.8143 195.619 30.6418 194.926C29.4693 194.232 28.1709 193.778 26.8218 193.59C24.9895 193.35 23.1263 193.6 21.4218 194.314C20.96 194.511 20.511 194.736 20.0772 194.989L19.7424 195.194L19.6236 195.253C20.1601 194.832 20.7503 194.483 21.3786 194.217C23.0913 193.45 24.981 193.166 26.8434 193.396C28.2265 193.572 29.5603 194.024 30.766 194.724C31.9717 195.424 33.0249 196.359 33.8634 197.473C34.347 198.124 34.7125 198.855 34.9434 199.633C35.2021 200.451 35.2375 201.323 35.046 202.16C34.9323 202.595 34.7251 203 34.4388 203.347C34.1524 203.694 33.7939 203.975 33.3882 204.169C32.5356 204.545 31.5741 204.593 30.6882 204.304C29.8101 204.01 29.0628 203.418 28.5768 202.63C28.1072 201.88 27.8359 201.024 27.7884 200.14C27.7509 198.477 28.2571 196.846 29.2302 195.496C30.8187 193.202 33.0674 191.445 35.6778 190.458C37.418 189.79 39.2743 189.478 41.1372 189.54C41.8171 189.558 42.4937 189.643 43.1568 189.794Z" fill="#FAFAFA"/>
<path d="M42.2766 175.808C42.0701 175.932 41.8511 176.033 41.6232 176.11C41.3639 176.224 41.0968 176.32 40.824 176.397C40.4706 176.52 40.1099 176.621 39.744 176.699C39.3047 176.809 38.8593 176.894 38.4102 176.953C37.9242 177.034 37.4058 177.061 36.855 177.099C35.6619 177.136 34.468 177.055 33.291 176.856C32.1183 176.634 30.9712 176.294 29.8674 175.84C29.3652 175.614 28.8846 175.408 28.4634 175.165C28.0615 174.954 27.6721 174.719 27.297 174.463C26.9828 174.26 26.68 174.041 26.3898 173.805C26.1636 173.639 25.9489 173.459 25.7472 173.265C25.5608 173.113 25.3907 172.943 25.2396 172.757C25.2774 172.708 26.0172 173.427 27.3996 174.301C27.7793 174.543 28.1723 174.763 28.5768 174.96C29.03 175.199 29.495 175.416 29.97 175.608C32.1521 176.495 34.4953 176.916 36.8496 176.845C37.3896 176.812 37.9296 176.796 38.3832 176.726C38.8368 176.656 39.3012 176.591 39.7062 176.51C41.31 176.17 42.255 175.754 42.2766 175.808Z" fill="#FAFAFA"/>
<path d="M44.4042 192.326C44.4318 192.411 44.4517 192.498 44.4636 192.586C44.496 192.78 44.5392 193.028 44.5878 193.336C44.6958 194.027 44.8416 194.956 45.0198 196.16C45.3708 198.607 45.8622 202.003 46.4292 205.945V206.091H46.2888L40.2624 206.512L26.2872 207.43L22.0536 207.679L20.898 207.733H20.52C20.6504 207.697 20.7845 207.677 20.9196 207.673L22.0644 207.571L26.298 207.236L40.2678 206.231L46.2888 205.826L46.1646 205.978C45.6246 202.03 45.1818 198.628 44.8578 196.182C44.7066 194.994 44.5878 194.022 44.5014 193.347C44.4636 193.034 44.4366 192.807 44.415 192.586C44.3989 192.5 44.3953 192.413 44.4042 192.326Z" fill="#263238"/>
<g opacity="0.2">
<path d="M31.9032 167.999C31.644 168.912 32.3676 169.765 32.8374 170.586C33.7446 172.163 33.7932 174.069 33.8742 175.889C33.9347 179.233 34.4488 182.554 35.4024 185.76C36.4392 188.924 38.2212 191.921 40.8564 193.963C43.4916 196.004 47.0286 197.003 50.2524 196.166C53.4762 195.329 56.1924 192.467 56.4678 189.146C56.7432 185.825 54.7398 182.866 53.595 179.766C52.7094 177.379 52.3152 174.841 51.8076 172.341C51.3 169.841 50.652 167.33 49.329 165.154C48.006 162.977 45.9054 161.158 43.389 160.699C40.8726 160.24 38.0214 161.428 37.0062 163.76" fill="black"/>
</g>
<path d="M44.3556 124.4V127.267L44.1666 170.257C44.1666 175.246 48.4218 179.242 53.7624 179.226C59.1624 179.226 63.6174 175.111 63.72 170.046C63.8334 164.754 64.044 159.187 64.044 159.187C64.044 159.187 70.8804 158.177 72.4518 149.305C73.2348 144.898 73.1376 137.641 72.873 131.706C72.8167 130.44 72.5046 129.198 71.9555 128.056C71.4064 126.913 70.6317 125.894 69.6781 125.059C68.7245 124.224 67.6116 123.59 66.4067 123.197C65.2018 122.803 63.9297 122.658 62.667 122.769L44.3556 124.4Z" fill="#FFBE9D"/>
<path d="M70.7886 137.16C70.7858 137.458 70.667 137.743 70.4572 137.955C70.2475 138.167 69.9634 138.288 69.6654 138.294C69.5196 138.304 69.3732 138.285 69.2351 138.237C69.0971 138.189 68.9702 138.113 68.8621 138.015C68.7541 137.917 68.6671 137.797 68.6066 137.664C68.546 137.531 68.5131 137.387 68.5098 137.241C68.5126 136.944 68.6309 136.661 68.8396 136.45C69.0483 136.239 69.331 136.118 69.6276 136.112C69.7734 136.101 69.9199 136.12 70.0583 136.167C70.1966 136.215 70.3239 136.29 70.4325 136.388C70.5411 136.486 70.6286 136.604 70.6898 136.737C70.751 136.87 70.7846 137.014 70.7886 137.16Z" fill="#263238"/>
<path d="M71.2368 135.475C71.091 135.621 70.2432 134.962 69.012 134.935C67.7808 134.908 66.852 135.513 66.744 135.362C66.6792 135.292 66.8304 135.027 67.2246 134.752C67.7606 134.387 68.3965 134.199 69.0444 134.212C69.6819 134.223 70.2997 134.434 70.8102 134.816C71.1828 135.135 71.307 135.405 71.2368 135.475Z" fill="#263238"/>
<path d="M59.1624 136.933C59.1596 137.231 59.0406 137.515 58.8307 137.726C58.6208 137.937 58.3367 138.058 58.0392 138.062C57.8938 138.072 57.7479 138.053 57.6102 138.005C57.4725 137.958 57.3458 137.883 57.2378 137.785C57.1299 137.687 57.0428 137.568 56.9819 137.436C56.9211 137.303 56.8876 137.16 56.8836 137.014C56.8863 136.717 57.0045 136.433 57.2131 136.221C57.4217 136.009 57.7044 135.887 58.0014 135.88C58.1477 135.869 58.2946 135.888 58.4333 135.936C58.572 135.983 58.6996 136.059 58.8082 136.157C58.9169 136.256 59.0043 136.375 59.0652 136.509C59.1261 136.642 59.1592 136.787 59.1624 136.933Z" fill="#263238"/>
<path d="M59.1678 135.486C59.022 135.632 58.1688 134.979 56.943 134.946C55.7172 134.914 54.783 135.524 54.675 135.373C54.6102 135.303 54.7614 135.038 55.1556 134.757C55.6928 134.396 56.3279 134.207 56.9754 134.217C57.6153 134.224 58.2361 134.436 58.7466 134.822C59.1138 135.151 59.238 135.421 59.1678 135.486Z" fill="#263238"/>
<path d="M63.4608 144.671C64.1105 144.479 64.7817 144.369 65.4588 144.342C65.7774 144.342 66.0744 144.261 66.1284 144.05C66.1605 143.727 66.0946 143.402 65.9394 143.116C65.6532 142.349 65.3616 141.55 65.0538 140.713C63.828 137.29 62.9424 134.482 63.0828 134.433C63.2232 134.384 64.3248 137.133 65.5506 140.54L66.3984 142.954C66.5886 143.337 66.6383 143.775 66.5388 144.191C66.4891 144.302 66.4146 144.4 66.321 144.478C66.2274 144.556 66.1171 144.611 65.9988 144.639C65.8216 144.68 65.6406 144.701 65.4588 144.704C64.7939 144.772 64.1231 144.761 63.4608 144.671Z" fill="#263238"/>
<path d="M64.0494 159.208C59.8513 159.203 55.7376 158.029 52.1694 155.817C52.1694 155.817 54.9504 161.979 63.8658 161.304L64.0494 159.208Z" fill="#EB996E"/>
<path d="M62.8884 147.62C62.661 147.321 62.3611 147.085 62.0171 146.935C61.6731 146.785 61.2964 146.725 60.9228 146.761C60.6513 146.781 60.3866 146.855 60.1444 146.979C59.9022 147.104 59.6876 147.276 59.5134 147.485C59.3461 147.686 59.2446 147.934 59.2224 148.194C59.2002 148.455 59.2584 148.716 59.3892 148.943C59.5832 149.171 59.8419 149.335 60.1312 149.413C60.4205 149.492 60.7266 149.48 61.0092 149.38C61.5925 149.184 62.1318 148.876 62.5968 148.473C62.7362 148.377 62.857 148.256 62.9532 148.117C62.9969 148.048 63.0202 147.968 63.0202 147.887C63.0202 147.806 62.9969 147.726 62.9532 147.658" fill="#EB996E"/>
<path d="M59.832 145.455C60.0318 145.455 60.0102 146.778 61.1388 147.744C62.2674 148.711 63.6822 148.587 63.6876 148.776C63.6876 148.857 63.369 149.029 62.7696 149.035C61.9876 149.033 61.2317 148.754 60.6366 148.246C60.0638 147.763 59.7032 147.075 59.6322 146.329C59.589 145.8 59.7456 145.444 59.832 145.455Z" fill="#263238"/>
<path d="M59.5728 130.68C59.4432 131.009 58.2228 130.831 56.781 130.977C55.3392 131.123 54.162 131.517 53.9784 131.193C53.8974 131.047 54.1026 130.739 54.5778 130.426C55.2069 130.032 55.9219 129.794 56.6622 129.735C57.3955 129.664 58.1352 129.766 58.8222 130.032C59.3622 130.259 59.6268 130.523 59.5728 130.68Z" fill="#263238"/>
<path d="M70.848 131.911C70.6266 132.187 69.768 131.884 68.769 131.852C67.77 131.82 66.8898 132.003 66.6954 131.712C66.6144 131.566 66.7548 131.29 67.1328 131.031C67.6442 130.723 68.236 130.574 68.8323 130.604C69.4287 130.634 70.0027 130.841 70.4808 131.199C70.8318 131.49 70.9452 131.76 70.848 131.911Z" fill="#263238"/>
<path d="M55.5066 121.5C57.915 124.638 55.5066 129.13 52.7742 132.014C50.0418 134.898 46.764 138.235 47.547 142.107C48.4596 146.599 54.6426 149.424 53.7732 153.922C53.4546 155.542 52.1532 156.973 52.1856 158.647C52.1856 161.665 56.1276 163.096 57.2778 165.883C58.8546 169.711 54.6588 173.583 54.6318 177.72C54.6318 180.069 55.971 182.245 56.0682 184.594C56.2572 189.405 50.6034 192.98 45.927 191.846C41.2506 190.712 38.0052 186.154 36.9468 181.44C35.8884 176.726 36.585 171.85 37.2924 167.092C36.8442 169.123 33.7662 169.533 32.2488 168.113C30.7314 166.693 30.5262 164.333 30.8448 162.286C31.644 157.129 34.9812 152.739 36.5418 147.766C37.908 143.413 37.8702 138.769 38.4426 134.266C39.015 129.762 40.365 125.021 43.7886 122.008C47.2122 118.995 53.1738 118.568 55.998 122.148" fill="#263238"/>
<path d="M43.3134 190.08C43.3481 190.019 43.3859 189.959 43.4268 189.902C43.5078 189.778 43.6212 189.605 43.767 189.394C44.8476 187.679 45.4515 185.707 45.5166 183.681C45.5827 182.047 45.2839 180.418 44.6418 178.913C43.9344 177.239 42.687 175.673 41.3694 173.967C40.6738 173.096 40.037 172.179 39.4632 171.223C38.866 170.205 38.4392 169.096 38.1996 167.94C37.9365 166.697 38.0416 165.404 38.502 164.22C38.7585 163.617 39.1247 163.068 39.582 162.6C40.0564 162.141 40.5675 161.722 41.1102 161.347C42.1902 160.58 43.2702 159.808 43.8804 158.609C44.4247 157.367 44.5127 155.973 44.1288 154.672C43.4808 151.972 41.6016 149.866 40.3974 147.517C39.7578 146.37 39.3763 145.096 39.2796 143.786C39.225 142.525 39.4634 141.268 39.9762 140.114C40.9649 138.033 42.3926 136.191 44.1612 134.714C45.7812 133.272 47.3472 132.046 48.6486 130.772C49.851 129.662 50.8521 128.352 51.6078 126.9C52.1743 125.801 52.5192 124.601 52.623 123.369C52.684 122.591 52.6054 121.808 52.3908 121.057C52.2396 120.517 52.11 120.291 52.1316 120.28C52.2603 120.523 52.3652 120.778 52.4448 121.041C52.6859 121.794 52.783 122.585 52.731 123.374C52.6511 124.625 52.3167 125.847 51.7482 126.965C50.9981 128.442 49.9968 129.778 48.789 130.912C47.4876 132.208 45.9054 133.445 44.3178 134.887C42.582 136.358 41.1824 138.185 40.2138 140.244C39.7221 141.361 39.493 142.577 39.5442 143.797C39.6403 145.066 40.0086 146.3 40.6242 147.415C41.229 148.57 41.9796 149.677 42.6924 150.838C43.4518 152.002 44.024 153.277 44.388 154.618C44.7877 155.984 44.6921 157.447 44.118 158.749C43.4862 160.029 42.3036 160.828 41.256 161.584C40.7251 161.95 40.2249 162.358 39.7602 162.805C39.3213 163.247 38.9664 163.764 38.7126 164.333C38.2732 165.47 38.1719 166.709 38.421 167.902C38.6517 169.041 39.0637 170.135 39.6414 171.142C40.2102 172.082 40.8397 172.984 41.526 173.842C42.8274 175.538 44.0802 177.142 44.793 178.854C45.4381 180.389 45.7279 182.05 45.6408 183.714C45.5599 185.759 44.9172 187.744 43.7832 189.448C43.6266 189.67 43.497 189.826 43.416 189.94C43.3856 189.989 43.3513 190.036 43.3134 190.08Z" fill="#455A64"/>
<path d="M109.534 200.286L89.0676 236.023L60.0858 237.028V240.214H144.752L167.794 202.468C167.982 202.142 168.082 201.774 168.084 201.398C168.086 201.022 167.989 200.652 167.804 200.325C167.62 199.998 167.352 199.724 167.03 199.532C166.707 199.34 166.339 199.235 165.964 199.228H111.391C111.016 199.228 110.648 199.325 110.322 199.511C109.997 199.697 109.725 199.964 109.534 200.286Z" fill="#263238"/>
<path d="M135.167 219.364C133.882 221.362 131.927 222.383 130.75 221.638C129.573 220.892 129.697 218.673 130.982 216.675C132.268 214.677 134.222 213.656 135.4 214.402C136.577 215.147 136.453 217.366 135.167 219.364Z" fill="#E0E0E0"/>
<path d="M237.276 224.1C237.245 224.005 237.205 223.912 237.157 223.825L236.785 223.025C236.338 221.993 235.976 220.926 235.705 219.834C234.981 216.994 234.727 212.652 235.802 207.5C236.381 204.692 237.144 201.925 238.086 199.217C239.058 196.274 240.181 193.153 241.099 189.783C242.137 186.264 242.638 182.608 242.584 178.94C242.449 175.106 241.31 171.277 240.062 167.465C238.815 163.652 237.53 159.905 237.141 156.163C236.714 152.549 237.441 148.893 239.22 145.719C240.872 142.673 242.951 140.071 244.507 137.371C245.961 134.869 247.033 132.165 247.687 129.346C248.625 125.266 248.693 121.034 247.887 116.926C247.603 115.421 247.169 113.949 246.591 112.531C246.609 112.629 246.634 112.727 246.667 112.822C246.731 113.033 246.818 113.314 246.931 113.665C247.256 114.746 247.525 115.844 247.736 116.953C248.479 121.045 248.369 125.245 247.412 129.292C246.747 132.075 245.673 134.745 244.226 137.214C242.671 139.882 240.581 142.474 238.896 145.557C237.069 148.789 236.313 152.517 236.736 156.206C237.125 160.024 238.421 163.766 239.663 167.594C240.905 171.423 242.033 175.187 242.179 178.961C242.232 182.59 241.743 186.207 240.727 189.691C239.825 193.05 238.712 196.171 237.757 199.12C236.824 201.844 236.071 204.628 235.505 207.452C234.457 212.641 234.754 217.026 235.537 219.872C235.829 220.968 236.223 222.035 236.714 223.058L237.125 223.841C237.165 223.933 237.215 224.02 237.276 224.1Z" fill="#263238"/>
<path d="M242.368 140.033C242.368 140.033 245.527 129.929 239.857 124.011C239.814 123.962 239.758 123.927 239.695 123.908C239.632 123.89 239.566 123.89 239.503 123.908C239.44 123.926 239.384 123.962 239.341 124.011C239.297 124.059 239.269 124.119 239.258 124.184C238.955 125.852 238.577 130.934 242.368 140.033Z" fill="#06D6A0"/>
<path d="M240.473 127.375C240.481 128.004 240.554 128.63 240.689 129.243C240.894 130.523 241.137 132.035 241.407 133.698C241.677 135.362 241.909 136.874 242.114 138.159C242.168 138.782 242.28 139.398 242.449 140C242.509 139.374 242.491 138.743 242.395 138.121C242.287 136.965 242.087 135.378 241.796 133.634C241.504 131.889 241.207 130.323 240.964 129.189C240.868 128.568 240.703 127.96 240.473 127.375Z" fill="#263238"/>
<path d="M238.68 163.868C238.68 163.868 236.747 153.457 228.96 150.908C228.899 150.886 228.833 150.881 228.769 150.894C228.706 150.908 228.647 150.939 228.6 150.984C228.554 151.029 228.52 151.086 228.505 151.149C228.489 151.212 228.492 151.279 228.512 151.34C229.009 152.928 231.05 157.599 238.68 163.868Z" fill="#06D6A0"/>
<path d="M231.061 153.571C231.369 154.12 231.731 154.637 232.141 155.115C232.924 156.157 233.842 157.372 234.841 158.717L237.541 162.329C237.882 162.855 238.271 163.348 238.702 163.804C238.458 163.228 238.147 162.684 237.773 162.184C237.141 161.212 236.218 159.905 235.148 158.495C234.079 157.086 233.08 155.844 232.33 154.958C231.963 154.447 231.537 153.981 231.061 153.571Z" fill="#263238"/>
<path d="M240.759 189.988C240.759 189.988 241.931 179.464 235.235 174.739C235.183 174.705 235.123 174.686 235.061 174.683C235 174.681 234.938 174.694 234.884 174.723C234.829 174.751 234.783 174.794 234.749 174.846C234.716 174.898 234.697 174.958 234.695 175.019C234.7 176.72 235.3 181.78 240.759 189.988Z" fill="#06D6A0"/>
<path d="M236.482 177.925C236.614 178.538 236.807 179.137 237.06 179.712C237.508 180.938 238.032 182.369 238.615 183.951C239.198 185.533 239.695 186.97 240.16 188.195C240.334 188.796 240.561 189.38 240.84 189.94C240.78 189.315 240.642 188.7 240.43 188.109C240.106 186.991 239.603 185.474 238.988 183.789C238.372 182.104 237.778 180.646 237.319 179.582C237.103 179 236.822 178.444 236.482 177.925Z" fill="#263238"/>
<path d="M234.9 216.259C234.9 216.259 235.699 205.697 228.841 201.215C228.788 201.18 228.726 201.161 228.662 201.16C228.599 201.158 228.536 201.173 228.481 201.204C228.425 201.235 228.379 201.281 228.348 201.336C228.316 201.391 228.3 201.454 228.301 201.517C228.371 203.213 229.149 208.251 234.9 216.259Z" fill="#06D6A0"/>
<path d="M230.197 204.357C230.341 204.967 230.551 205.559 230.823 206.123L232.529 210.303C233.167 211.869 233.739 213.284 234.225 214.488C234.421 215.083 234.671 215.66 234.97 216.21C234.884 215.587 234.723 214.976 234.49 214.391C234.128 213.311 233.572 211.788 232.897 210.152C232.222 208.515 231.574 207.057 231.082 206.015C230.849 205.432 230.552 204.876 230.197 204.357Z" fill="#263238"/>
<path d="M246.91 131.155C246.91 131.155 256.295 126.252 256.478 118.06C256.48 117.997 256.464 117.934 256.432 117.879C256.4 117.824 256.354 117.778 256.299 117.747C256.244 117.716 256.181 117.701 256.117 117.703C256.054 117.704 255.992 117.723 255.938 117.758C254.534 118.719 250.673 122.04 246.91 131.155Z" fill="#06D6A0"/>
<path d="M254.529 120.874C254.09 121.322 253.7 121.814 253.363 122.342C252.596 123.395 251.705 124.632 250.717 125.998C249.728 127.364 248.827 128.601 248.06 129.649C247.653 130.127 247.292 130.643 246.98 131.188C247.465 130.788 247.899 130.329 248.27 129.821C249.01 128.93 249.993 127.661 251.024 126.23C252.056 124.799 252.952 123.476 253.579 122.499C253.957 121.996 254.276 121.45 254.529 120.874Z" fill="#263238"/>
<path d="M236.828 152.858C236.828 152.858 246.494 148.538 247.18 140.368C247.187 140.301 247.176 140.234 247.147 140.174C247.118 140.114 247.073 140.064 247.016 140.029C246.959 139.994 246.894 139.975 246.827 139.976C246.761 139.977 246.695 139.996 246.64 140.033C245.198 140.94 241.137 143.996 236.828 152.858Z" fill="#06D6A0"/>
<path d="M245.063 143.062C244.595 143.48 244.173 143.947 243.805 144.455L240.943 147.944L238.07 151.427C237.637 151.88 237.248 152.374 236.909 152.901C237.415 152.525 237.875 152.092 238.28 151.61C239.074 150.768 240.133 149.564 241.25 148.197C242.368 146.831 243.34 145.562 244.026 144.628C244.429 144.146 244.777 143.621 245.063 143.062Z" fill="#263238"/>
<path d="M242.39 177.066C242.39 177.066 249.026 168.815 245.916 161.239C245.892 161.179 245.852 161.127 245.801 161.088C245.749 161.049 245.688 161.026 245.624 161.02C245.559 161.014 245.495 161.025 245.437 161.053C245.379 161.081 245.33 161.125 245.295 161.179C244.404 162.621 242.19 167.216 242.39 177.066Z" fill="#06D6A0"/>
<path d="M245.257 164.597C245.036 165.185 244.874 165.793 244.771 166.412C244.496 167.681 244.172 169.171 243.815 170.824C243.459 172.476 243.124 173.961 242.843 175.23C242.668 175.83 242.547 176.444 242.482 177.066C242.764 176.505 242.976 175.912 243.113 175.3C243.437 174.188 243.832 172.633 244.193 170.905C244.555 169.177 244.852 167.605 245.036 166.46C245.178 165.85 245.252 165.225 245.257 164.597Z" fill="#263238"/>
<path d="M235.818 205.556C235.818 205.556 245.408 201.074 245.954 192.899C245.96 192.833 245.948 192.767 245.919 192.707C245.889 192.648 245.844 192.599 245.787 192.564C245.731 192.53 245.666 192.512 245.6 192.513C245.534 192.514 245.469 192.533 245.414 192.569C243.983 193.471 239.976 196.625 235.818 205.556Z" fill="#06D6A0"/>
<path d="M243.886 195.62C243.427 196.05 243.013 196.524 242.649 197.035L239.846 200.578L237.06 204.12C236.636 204.582 236.257 205.083 235.926 205.616C236.425 205.233 236.876 204.793 237.271 204.304C238.054 203.45 239.09 202.225 240.187 200.837C241.283 199.449 242.233 198.169 242.887 197.224C243.277 196.727 243.612 196.19 243.886 195.62Z" fill="#263238"/>
<path d="M216.713 163.928C216.713 163.928 216.713 164.003 216.713 164.16C216.713 164.317 216.713 164.565 216.713 164.835C216.74 165.472 216.778 166.331 216.826 167.405C216.945 169.663 217.118 172.805 217.328 176.585C218.014 180.414 219.964 184.685 222.588 188.784C224.51 191.824 226.525 194.584 228.263 197.154C229.843 199.393 231.265 201.738 232.519 204.174C233.343 205.828 234.01 207.557 234.511 209.336C234.679 209.968 234.803 210.46 234.878 210.8C234.908 210.973 234.955 211.143 235.019 211.307C235.013 211.126 234.991 210.945 234.954 210.767C234.911 210.422 234.808 209.92 234.657 209.277C234.208 207.47 233.577 205.713 232.772 204.034C231.547 201.561 230.141 199.182 228.566 196.916C226.838 194.33 224.834 191.565 222.923 188.541C220.315 184.437 218.371 180.257 217.663 176.488C217.399 172.708 217.183 169.582 217.021 167.308C216.934 166.228 216.864 165.386 216.815 164.749C216.815 164.479 216.767 164.257 216.745 164.074C216.738 164.024 216.727 163.975 216.713 163.928Z" fill="#263238"/>
<path d="M222.421 188.006C222.421 188.006 218.36 178.232 223.468 171.806C223.508 171.755 223.561 171.715 223.622 171.692C223.683 171.669 223.749 171.664 223.813 171.676C223.876 171.688 223.936 171.718 223.983 171.762C224.031 171.806 224.066 171.862 224.084 171.925C224.537 173.577 225.374 178.605 222.421 188.006Z" fill="#06D6A0"/>
<path d="M223.16 175.23C222.985 175.834 222.878 176.455 222.842 177.082C222.696 178.232 222.534 179.825 222.41 181.586C222.286 183.346 222.226 184.95 222.226 186.106C222.186 186.734 222.224 187.366 222.34 187.985C222.449 187.368 222.504 186.743 222.502 186.116C222.588 184.82 222.691 183.298 222.804 181.613C222.917 179.928 223.031 178.405 223.117 177.109C223.197 176.486 223.211 175.856 223.16 175.23Z" fill="#263238"/>
<g opacity="0.3">
<path d="M222.421 188.006C222.421 188.006 218.36 178.232 223.468 171.806C223.508 171.755 223.561 171.715 223.622 171.692C223.683 171.669 223.749 171.664 223.813 171.676C223.876 171.688 223.936 171.718 223.983 171.762C224.031 171.806 224.066 171.862 224.084 171.925C224.537 173.577 225.374 178.605 222.421 188.006Z" fill="black"/>
</g>
<path d="M235.008 211.572C235.008 211.572 231.768 201.496 237.362 195.529C237.406 195.48 237.462 195.445 237.525 195.427C237.587 195.409 237.654 195.408 237.716 195.426C237.779 195.443 237.836 195.477 237.88 195.525C237.924 195.573 237.955 195.632 237.967 195.696C238.286 197.359 238.707 202.441 235.008 211.572Z" fill="#06D6A0"/>
<path d="M236.779 198.898C236.553 199.485 236.396 200.095 236.309 200.718C236.072 201.852 235.769 203.418 235.516 205.168C235.262 206.917 235.057 208.505 234.976 209.66C234.889 210.283 234.876 210.914 234.938 211.54C235.103 210.936 235.209 210.317 235.256 209.693C235.445 208.408 235.672 206.896 235.921 205.232C236.169 203.569 236.407 202.052 236.601 200.767C236.722 200.151 236.781 199.525 236.779 198.898Z" fill="#263238"/>
<g opacity="0.3">
<path d="M235.008 211.572C235.008 211.572 231.768 201.496 237.362 195.529C237.406 195.48 237.462 195.445 237.525 195.427C237.587 195.409 237.654 195.408 237.716 195.426C237.779 195.443 237.836 195.477 237.88 195.525C237.924 195.573 237.955 195.632 237.967 195.696C238.286 197.359 238.707 202.441 235.008 211.572Z" fill="black"/>
</g>
<path d="M217.247 176.04C217.247 176.04 208.575 169.97 209.45 161.822C209.455 161.757 209.479 161.695 209.518 161.642C209.557 161.59 209.609 161.549 209.67 161.525C209.73 161.501 209.796 161.495 209.86 161.506C209.925 161.517 209.984 161.546 210.033 161.589C211.291 162.745 214.693 166.541 217.247 176.04Z" fill="#06D6A0"/>
<g opacity="0.3">
<path d="M217.247 176.04C217.247 176.04 208.575 169.97 209.45 161.822C209.455 161.757 209.479 161.695 209.518 161.642C209.557 161.59 209.609 161.549 209.67 161.525C209.73 161.501 209.796 161.495 209.86 161.506C209.925 161.517 209.984 161.546 210.033 161.589C211.291 162.745 214.693 166.541 217.247 176.04Z" fill="black"/>
</g>
<path d="M211.021 164.878C211.193 165.482 211.434 166.064 211.739 166.612C212.236 167.659 212.954 169.09 213.791 170.645C214.628 172.201 215.411 173.583 216.059 174.56C216.366 175.11 216.738 175.622 217.166 176.083C216.93 175.503 216.641 174.947 216.302 174.42L214.142 170.456L211.982 166.487C211.716 165.92 211.394 165.381 211.021 164.878Z" fill="#263238"/>
<path d="M231.509 201.582C231.509 201.582 221.044 199.962 218.241 192.251C218.219 192.19 218.214 192.125 218.227 192.062C218.239 191.999 218.269 191.941 218.312 191.893C218.356 191.846 218.411 191.811 218.473 191.793C218.535 191.776 218.6 191.775 218.662 191.792C220.32 192.24 225.023 194.162 231.509 201.582Z" fill="#06D6A0"/>
<g opacity="0.3">
<path d="M231.509 201.582C231.509 201.582 221.044 199.962 218.241 192.251C218.219 192.19 218.214 192.125 218.227 192.062C218.239 191.999 218.269 191.941 218.312 191.893C218.356 191.846 218.411 191.811 218.473 191.793C218.535 191.776 218.6 191.775 218.662 191.792C220.32 192.24 225.023 194.162 231.509 201.582Z" fill="black"/>
</g>
<path d="M220.99 194.292C221.414 194.755 221.888 195.17 222.404 195.529C223.306 196.252 224.564 197.219 226.022 198.229C227.48 199.238 228.793 200.14 229.802 200.745C230.317 201.108 230.876 201.403 231.466 201.625C230.997 201.211 230.493 200.839 229.959 200.513L226.26 197.926L222.583 195.307C222.087 194.916 221.554 194.576 220.99 194.292Z" fill="#263238"/>
<path d="M243.886 220.838L240.889 240.521L228.901 240.5L224.867 220.838H243.886Z" fill="#455A64"/>
<path d="M226.622 228.42C226.622 228.42 226.649 228.452 226.719 228.496C226.789 228.539 226.892 228.604 227.038 228.674C227.459 228.88 227.912 229.015 228.377 229.073C229.117 229.173 229.871 229.103 230.58 228.868C231.536 228.566 232.368 227.961 232.951 227.146C233.272 226.654 233.458 226.085 233.491 225.499C233.524 225.169 233.465 224.837 233.321 224.539C233.177 224.24 232.954 223.988 232.675 223.808C232.357 223.65 232.002 223.582 231.648 223.611C231.294 223.639 230.955 223.764 230.666 223.97C230.07 224.407 229.661 225.053 229.522 225.779C229.363 226.51 229.312 227.259 229.37 228.004C229.411 228.783 229.575 229.55 229.856 230.278C230.151 231.041 230.627 231.721 231.244 232.259C231.885 232.827 232.696 233.165 233.55 233.221C234.403 233.239 235.242 232.996 235.953 232.524C236.636 232.088 237.24 231.541 237.74 230.904C238.255 230.293 238.571 229.539 238.648 228.744C238.678 228.354 238.617 227.962 238.468 227.601C238.32 227.239 238.089 226.916 237.794 226.66C237.491 226.435 237.129 226.303 236.753 226.28C236.376 226.257 236.001 226.344 235.672 226.53C235.357 226.687 235.082 226.915 234.869 227.196C234.657 227.477 234.512 227.804 234.446 228.15C234.356 228.762 234.453 229.386 234.724 229.942C234.995 230.498 235.427 230.959 235.964 231.266C236.848 231.745 237.874 231.894 238.858 231.687C239.585 231.535 240.281 231.261 240.916 230.877C241.317 230.642 241.703 230.382 242.071 230.099C242.207 230.008 242.332 229.901 242.444 229.781C242.301 229.86 242.164 229.948 242.033 230.045C241.769 230.218 241.38 230.483 240.856 230.769C240.224 231.123 239.538 231.371 238.826 231.503C237.888 231.686 236.917 231.531 236.083 231.066C235.596 230.779 235.206 230.353 234.963 229.843C234.72 229.334 234.634 228.763 234.716 228.204C234.776 227.903 234.905 227.62 235.092 227.378C235.279 227.135 235.52 226.939 235.796 226.805C236.074 226.642 236.393 226.565 236.715 226.585C237.036 226.604 237.344 226.718 237.6 226.913C237.855 227.141 238.053 227.425 238.18 227.743C238.306 228.061 238.358 228.403 238.329 228.744C238.255 229.476 237.959 230.167 237.481 230.726C237.003 231.331 236.426 231.852 235.775 232.265C235.118 232.697 234.347 232.923 233.561 232.913C232.781 232.856 232.041 232.545 231.455 232.027C230.874 231.526 230.426 230.89 230.148 230.175C229.88 229.484 229.722 228.755 229.678 228.015C229.62 227.301 229.664 226.583 229.808 225.882C229.932 225.234 230.294 224.656 230.823 224.262C231.066 224.081 231.354 223.969 231.656 223.94C231.957 223.91 232.261 223.964 232.535 224.095C232.772 224.247 232.963 224.463 233.086 224.717C233.209 224.972 233.259 225.255 233.231 225.536C233.202 226.082 233.031 226.611 232.735 227.07C232.186 227.851 231.403 228.437 230.499 228.744C229.83 228.965 229.12 229.038 228.42 228.96C227.795 228.881 227.187 228.699 226.622 228.42Z" fill="#263238"/>
</svg>
