<svg width="272" height="272" viewBox="0 0 272 272" fill="none" xmlns="http://www.w3.org/2000/svg">
<path opacity="0.7" d="M36.9539 90.8969C36.9539 90.8969 21.7872 130.065 43.1011 169.505C64.4151 208.945 108.316 229.78 143.453 247.596C178.59 265.412 215.076 256.735 232.413 227.555C249.75 198.375 225.972 177.545 225.94 135.935C225.907 94.3241 232.168 83.3081 209.62 48.1548C187.071 13.0016 131.795 5.21691 89.9939 31.2908C48.193 57.3647 36.9539 90.8969 36.9539 90.8969Z" fill="white"/>
<path d="M127.905 19.4316C195.361 13.4476 195.497 51.4896 225.901 86.9584C256.306 122.427 262.806 138.502 251.328 179.389C239.85 220.276 201.28 252.323 153.484 234.165C105.688 216.006 78.336 233.441 48.2039 217.301C18.0717 201.16 6.85985 170.022 28.9354 133.302C51.0109 96.5817 44.7059 26.8409 127.905 19.4316Z" fill="#06D6A0"/>
<path opacity="0.7" d="M127.905 19.4316C195.361 13.4476 195.497 51.4896 225.901 86.9584C256.306 122.427 262.806 138.502 251.328 179.389C239.85 220.276 201.28 252.323 153.484 234.165C105.688 216.006 78.336 233.441 48.2039 217.301C18.0717 201.16 6.85985 170.022 28.9354 133.302C51.0109 96.5817 44.7059 26.8409 127.905 19.4316Z" fill="white"/>
<path d="M172.826 35.7111L66.7963 47.5105L83.1991 194.906L189.228 183.106L172.826 35.7111Z" fill="white" stroke="#263238" stroke-linecap="round" stroke-linejoin="round"/>
<path d="M172.825 35.7118L66.7958 47.5112L69.0653 67.905L175.095 56.1056L172.825 35.7118Z" fill="#BFBFBF" stroke="#263238" stroke-linecap="round" stroke-linejoin="round"/>
<path d="M143.366 45.1085L97.5936 50.2004C97.3809 50.211 97.1726 50.2648 96.9814 50.3586C96.7902 50.4524 96.6202 50.5842 96.4816 50.746C96.3431 50.9077 96.239 51.096 96.1757 51.2994C96.1124 51.5027 96.0912 51.7168 96.1134 51.9286C96.1356 52.1404 96.2008 52.3454 96.3049 52.5312C96.409 52.717 96.5499 52.8795 96.719 53.009C96.8881 53.1385 97.0818 53.2321 97.2883 53.2842C97.4948 53.3363 97.7097 53.3458 97.92 53.312L143.692 48.2202C144.093 48.1596 144.454 47.9463 144.701 47.625C144.947 47.3037 145.06 46.8994 145.015 46.4969C144.97 46.0944 144.771 45.7249 144.459 45.4661C144.148 45.2072 143.748 45.0791 143.344 45.1085H143.366Z" fill="white"/>
<path d="M132.633 52.7679L109.752 55.3139C109.65 55.324 109.551 55.3544 109.46 55.4033C109.37 55.4522 109.291 55.5186 109.226 55.5986C109.162 55.6786 109.114 55.7707 109.086 55.8694C109.057 55.9681 109.049 56.0714 109.061 56.1734C109.083 56.3796 109.186 56.5687 109.347 56.6992C109.508 56.8297 109.714 56.891 109.921 56.8697L132.807 54.3238C133.007 54.2935 133.188 54.1868 133.311 54.0262C133.434 53.8655 133.491 53.6634 133.468 53.4621C133.446 53.2609 133.346 53.0761 133.19 52.9467C133.034 52.8173 132.835 52.7532 132.633 52.7679Z" fill="white"/>
<path opacity="0.3" d="M149.736 70.4045L89.76 77.074C89.6063 77.0913 89.4659 77.1689 89.3694 77.2898C89.273 77.4107 89.2286 77.565 89.2459 77.7186C89.2632 77.8723 89.3409 78.0128 89.4618 78.1092C89.5827 78.2056 89.7369 78.25 89.8906 78.2327L149.85 71.5633C150.004 71.546 150.144 71.4683 150.241 71.3474C150.337 71.2265 150.382 71.0723 150.364 70.9186C150.347 70.765 150.269 70.6245 150.148 70.5281C150.028 70.4317 149.873 70.3872 149.72 70.4045H149.736Z" fill="black"/>
<path opacity="0.3" d="M150.198 74.5661L81.2409 82.2365C81.0873 82.2538 80.9468 82.3315 80.8504 82.4523C80.754 82.5732 80.7096 82.7275 80.7269 82.8811C80.7442 83.0348 80.8218 83.1753 80.9427 83.2717C81.0636 83.3681 81.2179 83.4125 81.3715 83.3952L150.329 75.7248C150.407 75.7201 150.484 75.6995 150.554 75.6643C150.625 75.6292 150.687 75.5801 150.738 75.5201C150.789 75.4601 150.827 75.3904 150.85 75.3153C150.873 75.2402 150.881 75.1611 150.873 75.0829C150.864 75.0039 150.84 74.9275 150.801 74.8583C150.762 74.7891 150.709 74.7285 150.646 74.6802C150.583 74.6319 150.511 74.5969 150.434 74.5773C150.357 74.5577 150.277 74.5539 150.198 74.5661Z" fill="black"/>
<path opacity="0.3" d="M132.665 80.7296L81.7034 86.3981C81.5497 86.4154 81.4092 86.493 81.3128 86.6139C81.2164 86.7348 81.172 86.8891 81.1893 87.0427C81.2066 87.1964 81.2842 87.3369 81.4051 87.4333C81.526 87.5297 81.6803 87.5741 81.8339 87.5568L132.79 81.8883C132.869 81.8836 132.946 81.863 133.016 81.8279C133.086 81.7927 133.149 81.7436 133.2 81.6836C133.25 81.6236 133.289 81.5539 133.312 81.4788C133.335 81.4037 133.343 81.3246 133.334 81.2464C133.326 81.168 133.301 81.0921 133.263 81.0233C133.224 80.9545 133.172 80.8942 133.11 80.8459C133.047 80.7977 132.976 80.7625 132.899 80.7426C132.823 80.7226 132.743 80.7182 132.665 80.7296Z" fill="black"/>
<path opacity="0.3" d="M164.943 68.1941L158.86 68.871C158.042 68.9621 157.452 69.6991 157.544 70.5173L158.22 76.5998C158.311 77.4179 159.049 78.0074 159.867 77.9163L165.949 77.2394C166.767 77.1484 167.357 76.4113 167.266 75.5932L166.589 69.5107C166.498 68.6925 165.761 68.1031 164.943 68.1941Z" stroke="#263238" stroke-linecap="round" stroke-linejoin="round"/>
<path d="M159.941 72.8687L161.943 74.7564L164.576 70.7253" stroke="#06D6A0" stroke-width="3" stroke-linecap="round" stroke-linejoin="round"/>
<path opacity="0.3" d="M151.928 90.1191L91.9687 96.7886C91.815 96.8059 91.6745 96.8835 91.5781 97.0044C91.4817 97.1253 91.4373 97.2796 91.4546 97.4332C91.4719 97.5869 91.5495 97.7274 91.6704 97.8238C91.7913 97.9202 91.9456 97.9646 92.0992 97.9473L152.059 91.2779C152.135 91.2693 152.209 91.2458 152.276 91.2088C152.343 91.1717 152.402 91.1219 152.449 91.062C152.497 91.0022 152.533 90.9335 152.554 90.8599C152.575 90.7863 152.582 90.7093 152.573 90.6332C152.564 90.5571 152.541 90.4835 152.504 90.4165C152.467 90.3495 152.417 90.2904 152.357 90.2427C152.297 90.1949 152.229 90.1595 152.155 90.1383C152.081 90.1171 152.004 90.1106 151.928 90.1191Z" fill="black"/>
<path opacity="0.3" d="M152.391 94.2805L83.4333 101.951C83.3572 101.959 83.2835 101.983 83.2165 102.02C83.1495 102.057 83.0905 102.107 83.0427 102.167C82.995 102.227 82.9595 102.295 82.9383 102.369C82.9171 102.442 82.9106 102.519 82.9192 102.596C82.9278 102.672 82.9512 102.745 82.9883 102.812C83.0253 102.879 83.0752 102.938 83.135 102.986C83.1949 103.034 83.2636 103.069 83.3372 103.091C83.4107 103.112 83.4878 103.118 83.5638 103.11L152.521 95.4392C152.675 95.4219 152.815 95.3443 152.912 95.2234C153.008 95.1025 153.053 94.9483 153.035 94.7946C153.018 94.641 152.94 94.5005 152.819 94.4041C152.699 94.3076 152.544 94.2632 152.391 94.2805Z" fill="black"/>
<path opacity="0.3" d="M134.858 100.444L83.8957 106.113C83.742 106.13 83.6015 106.208 83.5051 106.329C83.4087 106.449 83.3643 106.604 83.3816 106.757C83.3989 106.911 83.4766 107.051 83.5975 107.148C83.7183 107.244 83.8726 107.289 84.0262 107.271L134.983 101.603C135.061 101.598 135.138 101.578 135.208 101.542C135.279 101.507 135.341 101.458 135.392 101.398C135.443 101.338 135.481 101.269 135.504 101.193C135.527 101.118 135.535 101.039 135.527 100.961C135.518 100.883 135.494 100.807 135.455 100.738C135.416 100.669 135.364 100.609 135.302 100.561C135.239 100.512 135.168 100.477 135.092 100.457C135.015 100.437 134.936 100.433 134.858 100.444Z" fill="black"/>
<path opacity="0.3" d="M167.137 87.9041L161.054 88.581C160.236 88.672 159.647 89.4091 159.738 90.2273L160.415 96.3097C160.506 97.1279 161.243 97.7173 162.061 97.6263L168.143 96.9494C168.962 96.8583 169.551 96.1213 169.46 95.3031L168.783 89.2207C168.692 88.4025 167.955 87.8131 167.137 87.9041Z" stroke="#263238" stroke-linecap="round" stroke-linejoin="round"/>
<path d="M162.139 92.5833L164.136 94.471L166.769 90.4399" stroke="#06D6A0" stroke-width="3" stroke-linecap="round" stroke-linejoin="round"/>
<path opacity="0.3" d="M154.121 109.833L94.161 116.503C94.0171 116.531 93.8889 116.612 93.8021 116.73C93.7154 116.848 93.6763 116.994 93.6928 117.14C93.7093 117.286 93.7801 117.42 93.8911 117.515C94.0021 117.611 94.1451 117.661 94.2916 117.656L154.251 110.976C154.327 110.967 154.401 110.944 154.468 110.907C154.535 110.87 154.594 110.82 154.642 110.76C154.69 110.7 154.725 110.631 154.746 110.558C154.767 110.484 154.774 110.407 154.765 110.331C154.757 110.255 154.733 110.181 154.696 110.114C154.659 110.047 154.609 109.988 154.549 109.941C154.49 109.893 154.421 109.857 154.347 109.836C154.274 109.815 154.197 109.809 154.121 109.817V109.833Z" fill="black"/>
<path opacity="0.3" d="M154.588 113.995L85.6256 121.666C85.5494 121.673 85.4754 121.696 85.4082 121.732C85.3409 121.769 85.2816 121.818 85.2339 121.878C85.1862 121.938 85.151 122.007 85.1305 122.081C85.1099 122.154 85.1044 122.232 85.1142 122.307C85.1224 122.384 85.1454 122.457 85.1821 122.525C85.2188 122.592 85.2684 122.651 85.328 122.699C85.3876 122.747 85.4561 122.783 85.5296 122.804C85.6031 122.826 85.68 122.833 85.7561 122.824L154.714 115.154C154.792 115.148 154.869 115.127 154.94 115.091C155.01 115.056 155.072 115.006 155.123 114.946C155.174 114.885 155.212 114.815 155.235 114.74C155.258 114.664 155.266 114.585 155.258 114.506C155.249 114.428 155.225 114.353 155.186 114.284C155.147 114.215 155.095 114.155 155.032 114.108C154.97 114.06 154.898 114.025 154.822 114.006C154.746 113.987 154.666 113.983 154.588 113.995Z" fill="black"/>
<path opacity="0.3" d="M137.05 120.159L86.088 125.827C85.9343 125.845 85.7939 125.922 85.6975 126.043C85.601 126.164 85.5566 126.318 85.5739 126.472C85.5912 126.625 85.6689 126.766 85.7898 126.862C85.9107 126.959 86.0649 127.003 86.2186 126.986L137.175 121.312C137.329 121.295 137.469 121.218 137.566 121.098C137.663 120.978 137.708 120.824 137.692 120.67C137.675 120.516 137.598 120.376 137.478 120.279C137.358 120.182 137.204 120.137 137.05 120.153V120.159Z" fill="black"/>
<path opacity="0.3" d="M169.33 107.614L163.248 108.291C162.43 108.382 161.84 109.119 161.931 109.937L162.608 116.02C162.699 116.838 163.436 117.428 164.254 117.336L170.337 116.66C171.155 116.569 171.745 115.831 171.653 115.013L170.977 108.931C170.886 108.113 170.149 107.523 169.33 107.614Z" stroke="#263238" stroke-linecap="round" stroke-linejoin="round"/>
<path d="M164.332 112.298L166.328 114.186L168.966 110.149" stroke="#06D6A0" stroke-width="3" stroke-linecap="round" stroke-linejoin="round"/>
<path opacity="0.3" d="M156.313 129.548L96.3533 136.218C96.2094 136.245 96.0813 136.326 95.9945 136.444C95.9077 136.562 95.8686 136.709 95.8851 136.855C95.9016 137 95.9724 137.134 96.0834 137.23C96.1944 137.326 96.3374 137.376 96.4839 137.371L156.444 130.701C156.524 130.699 156.602 130.679 156.675 130.645C156.747 130.61 156.812 130.561 156.864 130.5C156.916 130.439 156.956 130.368 156.979 130.291C157.003 130.215 157.011 130.134 157.002 130.054C156.993 129.974 156.967 129.897 156.927 129.828C156.887 129.759 156.833 129.698 156.768 129.651C156.703 129.603 156.629 129.569 156.551 129.552C156.473 129.534 156.392 129.533 156.313 129.548Z" fill="black"/>
<path opacity="0.3" d="M156.781 133.71L87.8179 141.38C87.7417 141.388 87.6678 141.41 87.6005 141.447C87.5332 141.483 87.474 141.533 87.4263 141.593C87.3785 141.653 87.3434 141.722 87.3228 141.795C87.3022 141.869 87.2967 141.946 87.3066 142.022C87.3147 142.098 87.3377 142.172 87.3744 142.239C87.4111 142.306 87.4607 142.366 87.5203 142.414C87.5799 142.462 87.6484 142.497 87.7219 142.519C87.7954 142.54 87.8724 142.547 87.9485 142.539L156.906 134.869C157.06 134.851 157.201 134.773 157.298 134.651C157.395 134.53 157.44 134.375 157.423 134.221C157.405 134.068 157.327 133.929 157.207 133.833C157.087 133.737 156.934 133.693 156.781 133.71Z" fill="black"/>
<path opacity="0.3" d="M139.264 139.873L88.3021 145.542C88.2259 145.549 88.152 145.572 88.0847 145.608C88.0174 145.645 87.9581 145.694 87.9104 145.754C87.8627 145.814 87.8276 145.883 87.807 145.957C87.7864 146.031 87.7809 146.108 87.7907 146.184C87.7989 146.26 87.8219 146.333 87.8586 146.401C87.8953 146.468 87.9449 146.527 88.0045 146.575C88.0641 146.623 88.1326 146.659 88.2061 146.68C88.2796 146.702 88.3566 146.709 88.4327 146.7L139.389 141.032C139.465 141.024 139.539 141.001 139.606 140.964C139.673 140.927 139.733 140.878 139.781 140.818C139.829 140.758 139.864 140.69 139.886 140.617C139.907 140.543 139.914 140.466 139.906 140.39C139.899 140.314 139.876 140.239 139.839 140.172C139.803 140.104 139.753 140.045 139.694 139.997C139.634 139.948 139.565 139.913 139.491 139.892C139.417 139.87 139.34 139.864 139.264 139.873Z" fill="black"/>
<path opacity="0.3" d="M171.525 127.33L165.442 128.007C164.624 128.098 164.035 128.835 164.126 129.653L164.802 135.736C164.893 136.554 165.631 137.143 166.449 137.052L172.531 136.375C173.349 136.284 173.939 135.547 173.848 134.729L173.171 128.647C173.08 127.829 172.343 127.239 171.525 127.33Z" stroke="#263238" stroke-linecap="round" stroke-linejoin="round"/>
<path d="M166.524 132.007L168.52 133.895L171.159 129.864" stroke="#06D6A0" stroke-width="3" stroke-linecap="round" stroke-linejoin="round"/>
<path opacity="0.3" d="M158.511 149.257L98.5511 155.927C98.475 155.935 98.4012 155.958 98.3341 155.995C98.267 156.031 98.2077 156.081 98.1597 156.141C98.1117 156.2 98.0759 156.269 98.0544 156.342C98.0329 156.416 98.026 156.493 98.0343 156.569C98.0425 156.645 98.0656 156.718 98.1023 156.786C98.139 156.853 98.1886 156.912 98.2482 156.96C98.3078 157.008 98.3763 157.044 98.4497 157.065C98.5231 157.087 98.6001 157.094 98.6762 157.085L158.636 150.416C158.712 150.408 158.786 150.385 158.853 150.348C158.92 150.311 158.979 150.262 159.027 150.202C159.075 150.143 159.111 150.074 159.133 150.001C159.154 149.927 159.161 149.85 159.153 149.774C159.135 149.621 159.058 149.481 158.937 149.384C158.817 149.288 158.664 149.242 158.511 149.257Z" fill="black"/>
<path opacity="0.3" d="M158.973 153.408L90.0103 161.078C89.9301 161.081 89.8513 161.1 89.7789 161.135C89.7066 161.17 89.6422 161.219 89.5898 161.28C89.5374 161.341 89.4981 161.412 89.4744 161.488C89.4508 161.565 89.4432 161.646 89.4522 161.726C89.4613 161.805 89.4867 161.882 89.5269 161.952C89.5671 162.021 89.6212 162.082 89.6859 162.129C89.7506 162.177 89.8244 162.21 89.9026 162.228C89.9809 162.246 90.062 162.247 90.1408 162.232L159.098 154.561C159.179 154.559 159.258 154.541 159.331 154.507C159.404 154.472 159.469 154.423 159.522 154.363C159.575 154.302 159.615 154.231 159.639 154.154C159.664 154.078 159.672 153.997 159.663 153.917C159.654 153.836 159.629 153.759 159.589 153.689C159.549 153.619 159.495 153.559 159.43 153.511C159.365 153.463 159.291 153.429 159.212 153.411C159.134 153.394 159.052 153.393 158.973 153.408Z" fill="black"/>
<path opacity="0.3" d="M141.44 159.588L90.4781 165.256C90.3244 165.274 90.1839 165.351 90.0875 165.472C89.9911 165.593 89.9467 165.747 89.964 165.901C89.9813 166.055 90.059 166.195 90.1798 166.292C90.3007 166.388 90.455 166.432 90.6086 166.415L141.571 160.747C141.724 160.727 141.863 160.649 141.959 160.528C142.055 160.407 142.099 160.253 142.082 160.099C142.074 160.023 142.051 159.95 142.014 159.883C141.977 159.816 141.928 159.757 141.868 159.709C141.808 159.662 141.74 159.627 141.666 159.606C141.593 159.585 141.516 159.579 141.44 159.588Z" fill="black"/>
<path opacity="0.3" d="M173.719 147.046L167.636 147.723C166.818 147.814 166.229 148.551 166.32 149.369L166.997 155.451C167.088 156.269 167.825 156.859 168.643 156.768L174.725 156.091C175.544 156 176.133 155.263 176.042 154.445L175.365 148.362C175.274 147.544 174.537 146.955 173.719 147.046Z" stroke="#263238" stroke-linecap="round" stroke-linejoin="round"/>
<path d="M168.716 151.721L170.713 153.609L173.351 149.578" stroke="#06D6A0" stroke-width="3" stroke-linecap="round" stroke-linejoin="round"/>
<path opacity="0.3" d="M160.181 164.288L100.221 170.968C100.067 170.986 99.927 171.063 99.8306 171.184C99.7342 171.305 99.6897 171.459 99.707 171.613C99.7244 171.767 99.802 171.907 99.9229 172.003C100.044 172.1 100.198 172.144 100.352 172.127L160.311 165.458C160.388 165.45 160.462 165.428 160.529 165.391C160.596 165.355 160.655 165.305 160.703 165.245C160.751 165.185 160.786 165.116 160.806 165.042C160.827 164.969 160.833 164.892 160.823 164.816C160.816 164.739 160.794 164.664 160.758 164.595C160.722 164.527 160.672 164.466 160.613 164.417C160.553 164.368 160.484 164.331 160.41 164.309C160.336 164.287 160.258 164.28 160.181 164.288Z" fill="black"/>
<path opacity="0.3" d="M160.643 168.466L91.6858 176.136C91.6053 176.138 91.526 176.157 91.453 176.191C91.3801 176.225 91.315 176.274 91.2619 176.335C91.2088 176.395 91.1689 176.466 91.1447 176.543C91.1204 176.62 91.1124 176.701 91.1211 176.781C91.1298 176.861 91.155 176.939 91.1951 177.008C91.2353 177.078 91.2895 177.139 91.3543 177.187C91.4192 177.235 91.4932 177.268 91.5718 177.286C91.6504 177.304 91.7318 177.305 91.8109 177.29L160.774 169.619C160.918 169.591 161.046 169.51 161.133 169.392C161.219 169.274 161.258 169.128 161.242 168.982C161.226 168.837 161.155 168.703 161.044 168.607C160.933 168.511 160.79 168.461 160.643 168.466Z" fill="black"/>
<path opacity="0.3" d="M143.105 174.624L92.1482 180.293C92.072 180.301 91.9983 180.324 91.9311 180.36C91.8639 180.397 91.8046 180.447 91.7566 180.506C91.7086 180.566 91.6728 180.634 91.6513 180.708C91.6298 180.781 91.6231 180.858 91.6314 180.934C91.6491 181.089 91.7272 181.229 91.8485 181.326C91.9698 181.423 92.1244 181.468 92.2787 181.451L143.235 175.783C143.311 175.774 143.385 175.751 143.452 175.714C143.519 175.677 143.578 175.627 143.626 175.567C143.673 175.507 143.709 175.438 143.73 175.365C143.751 175.291 143.758 175.214 143.749 175.138C143.741 175.062 143.717 174.988 143.68 174.921C143.643 174.854 143.593 174.795 143.533 174.748C143.474 174.7 143.405 174.664 143.331 174.643C143.258 174.622 143.181 174.615 143.105 174.624Z" fill="black"/>
<path opacity="0.3" d="M175.394 162.082L169.311 162.758C168.493 162.85 167.904 163.587 167.995 164.405L168.672 170.487C168.763 171.305 169.5 171.895 170.318 171.804L176.4 171.127C177.219 171.036 177.808 170.299 177.717 169.481L177.04 163.398C176.949 162.58 176.212 161.991 175.394 162.082Z" stroke="#263238" stroke-linecap="round" stroke-linejoin="round"/>
<path d="M170.386 166.763L172.383 168.651L175.021 164.62" stroke="#06D6A0" stroke-width="3" stroke-linecap="round" stroke-linejoin="round"/>
<path d="M110.329 125.811C110.381 125.186 110.226 124.561 109.888 124.032L109.219 122.846L107.892 123.597L108.615 124.87C108.974 125.506 108.827 125.898 108.381 126.148C107.935 126.399 107.522 126.333 107.163 125.697L105.612 122.944L103.948 123.271L105.721 126.399C106.532 127.829 107.707 128.237 109.083 127.487C109.302 127.361 109.504 127.209 109.687 127.035C109.609 126.856 109.596 126.655 109.648 126.467C109.701 126.279 109.816 126.115 109.975 126.001C110.082 125.919 110.201 125.855 110.329 125.811Z" fill="#06D6A0"/>
<path d="M103.093 121.764L103.409 122.308H105.242L104.443 120.893C104.084 120.257 104.225 119.854 104.671 119.604C105.117 119.354 105.536 119.43 105.895 120.072L106.439 121.024L107.761 120.273L107.271 119.408C106.461 117.983 105.286 117.569 103.909 118.353C103.594 118.523 103.313 118.752 103.083 119.027C103.395 119.128 103.723 119.174 104.051 119.163L102.745 119.653C102.65 120.009 102.631 120.382 102.691 120.746C102.751 121.11 102.888 121.457 103.093 121.764Z" fill="#06D6A0"/>
<path d="M113.261 115.964C113.435 115.877 113.617 115.806 113.805 115.752C114.507 115.437 114.664 114.425 114.605 113.712L113.881 112.815L111.933 113.903L113.152 116.046C113.184 116.013 113.221 115.986 113.261 115.964Z" fill="#06D6A0"/>
<path d="M121.557 120.224L122.879 119.473L117.825 110.562L116.568 111.27C116.971 111.368 117.259 111.558 117.27 111.852C116.878 111.906 116.4 111.852 115.975 111.928L118.521 118.527L115.301 114.512C115.31 114.601 115.296 114.691 115.262 114.773C115.228 114.856 115.174 114.928 115.105 114.985C114.958 115.089 114.746 115.089 114.632 115.225C114.517 115.361 114.534 115.524 114.436 115.643C114.338 115.763 114.186 115.796 114.066 115.883C113.946 115.97 113.816 116.193 113.68 116.34C113.614 116.409 113.532 116.459 113.44 116.487L117.02 122.797L118.238 122.101L114.664 115.801L119.256 121.524L120.583 120.773L117.901 113.848L121.557 120.224Z" fill="#06D6A0"/>
<path d="M124.902 112.467C124.999 112.515 125.085 112.582 125.155 112.664C125.225 112.747 125.278 112.842 125.31 112.945C125.425 112.273 125.279 111.583 124.902 111.014L124.244 109.85C123.434 108.425 122.308 108.038 120.904 108.833L118.842 110.002L123.901 118.918L125.212 118.173C124.788 117.907 124.315 117.678 123.912 117.39C123.723 117.269 123.568 117.102 123.461 116.906C123.41 116.806 123.389 116.694 123.401 116.583C123.412 116.472 123.456 116.367 123.526 116.28C123.618 116.202 123.731 116.152 123.85 116.136C123.969 116.12 124.091 116.137 124.201 116.187L123.401 114.773L124.065 114.398C124.429 114.2 124.747 113.925 124.995 113.593C124.717 113.152 124.233 112.216 124.902 112.467ZM123.341 113.152L122.677 113.527L120.964 110.508L121.628 110.133C122.074 109.883 122.433 109.948 122.792 110.584L123.553 111.923C123.912 112.532 123.787 112.875 123.341 113.152Z" fill="#06D6A0"/>
<path d="M132.404 114.093L131.686 112.82L129.38 114.126L126.007 108.18L125.854 108.299C125.756 108.391 125.636 108.456 125.506 108.49C125.441 108.505 125.372 108.495 125.313 108.463C125.254 108.431 125.209 108.379 125.185 108.316C125.167 108.232 125.167 108.144 125.185 108.06C125.186 107.554 125.026 107.06 124.728 106.651L123.64 107.282L128.694 116.193L132.404 114.093Z" fill="#06D6A0"/>
<path d="M131.773 110.976C131.925 110.579 132.399 110.432 132.665 110.073C132.689 110.036 132.711 109.998 132.731 109.959L132.187 109.045L133.563 108.267C133.538 108.18 133.493 108.1 133.432 108.033C133.235 107.936 133.024 107.87 132.807 107.837C132.773 107.769 132.756 107.695 132.757 107.619C132.759 107.544 132.778 107.47 132.813 107.403C132.849 107.336 132.9 107.279 132.962 107.237C133.025 107.194 133.096 107.167 133.171 107.157C133.264 107.157 133.372 107.157 133.443 107.114C133.493 107.054 133.518 106.978 133.514 106.901L133.389 106.684L131.463 107.772L130.06 105.291L132.475 103.915L131.751 102.642L127.943 104.818L131.686 111.417C131.693 111.266 131.722 111.118 131.773 110.976Z" fill="#06D6A0"/>
<path d="M136.838 111.58L136.114 110.307L133.693 111.678L132.97 110.432L132.078 111.27L131.768 111.569L133.019 113.772L136.838 111.58Z" fill="#06D6A0"/>
<path d="M135.037 101.228C135.037 101.418 134.901 101.63 134.716 101.647C134.622 101.645 134.529 101.631 134.439 101.603C134.271 101.606 134.103 101.59 133.938 101.554C133.903 101.539 133.87 101.519 133.84 101.494L132.241 102.403L132.964 103.681L134.428 102.849L138.78 110.465L140.178 109.671L135.826 102.055L137.295 101.222L136.571 99.9492L135.07 100.798C135.043 100.939 135.053 101.086 135.037 101.228Z" fill="#06D6A0"/>
<path d="M141.146 106.624L142.234 108.544L143.703 107.712C143.738 107.616 143.781 107.523 143.834 107.435C144.157 106.962 144.593 106.577 145.101 106.314L145.776 105.895L145.33 105.101L142.909 106.477L141.429 103.866L143.355 102.778L142.631 101.505L140.706 102.593L139.302 100.096L141.723 98.7251L140.999 97.4521L137.191 99.6281L139.939 104.475C140.602 104.122 140.934 105.395 141.146 106.624Z" fill="#06D6A0"/>
<path d="M112.972 124.228C113.201 124.266 113.337 124.494 113.516 124.647C113.582 124.707 113.657 124.755 113.74 124.788C113.844 124.747 113.945 124.699 114.044 124.647C115.415 123.869 115.703 122.628 114.898 121.198L114.817 121.056L112.934 121.007L113.549 122.095C113.908 122.732 113.767 123.134 113.321 123.385C112.875 123.635 112.456 123.553 112.097 122.917L109.377 118.102C109.012 117.466 109.159 117.069 109.605 116.813C110.051 116.557 110.465 116.644 110.829 117.281L112.673 120.545C113.239 120.405 113.82 120.332 114.403 120.327L112.276 116.579C111.471 115.154 110.258 114.768 108.882 115.546C107.505 116.323 107.217 117.569 108.028 118.995L110.655 123.629C110.821 123.987 111.069 124.3 111.379 124.543C111.69 124.786 112.053 124.952 112.439 125.027C112.436 124.995 112.436 124.962 112.439 124.93C112.374 124.576 112.635 124.163 112.972 124.228Z" fill="#06D6A0"/>
<path d="M131.757 98.6435L136.027 96.2227C134.803 96.5599 133.726 97.5827 132.464 97.4412C132.236 97.3813 131.996 97.3813 131.768 97.4412C131.625 97.5332 131.522 97.6755 131.48 97.8399C131.438 98.0042 131.459 98.1785 131.539 98.3279C131.594 98.4441 131.668 98.5507 131.757 98.6435Z" fill="#06D6A0"/>
<path d="M121.045 104.72C121.036 104.626 121.055 104.531 121.1 104.448C121.205 104.484 121.315 104.503 121.426 104.502L122.9 103.67C123.131 103.409 123.395 103.179 123.684 102.985C123.963 102.835 124.259 102.718 124.565 102.636L124.892 102.538L127.612 101.004C127.64 100.949 127.679 100.899 127.726 100.858C127.768 100.83 127.814 100.808 127.862 100.792L125.055 99.9436L124.299 100.368L124.217 100.966L120.98 102.696C120.66 102.896 120.303 103.031 119.93 103.093C119.791 103.11 119.651 103.11 119.511 103.093L114.898 105.71C114.935 105.929 114.997 106.142 115.083 106.346C114.813 106.296 114.555 106.191 114.327 106.036L113.38 106.58C114.055 107.026 114.719 107.483 115.366 107.968L121.045 104.72Z" fill="#06D6A0"/>
<path d="M140.793 93.5244L138.562 92.2732L137.507 92.8716C138.129 93.5111 138.932 93.9441 139.808 94.1119L140.793 93.5244Z" fill="#06D6A0"/>
<path d="M152.788 106.695L144.367 91.849C144.039 91.2749 143.498 90.8537 142.861 90.6774C142.224 90.501 141.543 90.5839 140.967 90.9079L139.955 91.4845L140.341 91.8599C140.744 92.2624 141.157 92.6704 141.532 93.1002L142.044 92.8119C142.115 92.7723 142.198 92.7621 142.277 92.7834C142.355 92.8048 142.422 92.856 142.463 92.9261L150.889 107.777C150.928 107.849 150.938 107.933 150.915 108.011C150.893 108.09 150.841 108.156 150.77 108.196L139.307 114.724C140.298 114.784 141.299 114.643 142.289 114.757C142.645 114.802 142.999 114.865 143.349 114.947L151.847 110.127C152.135 109.965 152.389 109.747 152.593 109.486C152.796 109.226 152.946 108.927 153.034 108.608C153.122 108.288 153.145 107.955 153.103 107.626C153.06 107.298 152.953 106.981 152.788 106.695Z" fill="#06D6A0"/>
<path d="M101.184 125.588L97.2237 118.592C97.2032 118.557 97.19 118.518 97.1847 118.477C97.1793 118.437 97.1821 118.396 97.1927 118.356C97.2033 118.317 97.2216 118.28 97.2465 118.248C97.2714 118.215 97.3025 118.188 97.3379 118.168L108.762 111.683C108.724 111.596 108.675 111.509 108.642 111.422C108.804 111.415 108.965 111.434 109.121 111.477L113.74 108.86C113.587 108.811 113.44 108.751 113.293 108.697L111.117 107.832L109.377 108.822L111.27 109.981C110.612 109.578 109.268 109.524 108.109 109.54L96.288 116.269C95.7128 116.596 95.2907 117.137 95.1142 117.775C94.9378 118.412 95.0215 119.093 95.3469 119.669L98.785 125.729C98.9427 125.686 99.1059 125.648 99.2637 125.621C99.6995 125.558 100.14 125.536 100.58 125.555C100.782 125.554 100.984 125.565 101.184 125.588Z" fill="#06D6A0"/>
<path d="M115.295 128.319C115.489 128.492 115.71 128.634 115.948 128.738C116.193 128.846 116.519 129.108 116.329 129.282C115.448 129.684 114.36 129.385 113.495 129.826C113.021 130.054 112.565 130.506 112.059 130.37C112.671 130.741 113.221 131.206 113.691 131.746L135.293 119.495C135.293 119.408 135.32 119.321 135.336 119.229C135.337 119.057 135.376 118.889 135.452 118.735C135.528 118.581 135.637 118.447 135.773 118.342C135.908 118.237 136.065 118.164 136.233 118.129C136.401 118.095 136.574 118.098 136.74 118.141C137.02 118.128 137.301 118.158 137.572 118.228L140.265 116.699C139.895 116.062 139.458 115.468 138.959 114.926L115.295 128.319Z" fill="#06D6A0"/>
<path d="M111.797 131.914C111.276 131.746 110.796 131.469 110.388 131.104L106.08 133.552C106.045 133.572 106.006 133.585 105.966 133.591C105.926 133.596 105.886 133.593 105.847 133.583C105.808 133.572 105.771 133.554 105.739 133.529C105.707 133.504 105.681 133.473 105.661 133.438L101.853 126.763C101.488 126.637 101.1 126.592 100.716 126.632C100.276 126.719 99.8893 127.231 100.129 127.606C100.354 127.612 100.573 127.677 100.764 127.796C100.955 127.914 101.111 128.082 101.217 128.281C100.982 128.467 100.724 128.623 100.45 128.743L103.714 134.515C103.876 134.806 104.095 135.062 104.357 135.268C104.62 135.474 104.921 135.625 105.243 135.713C105.564 135.8 105.901 135.823 106.231 135.779C106.562 135.735 106.88 135.625 107.168 135.456L112.815 132.252L112.749 132.214C112.438 132.097 112.12 131.997 111.797 131.914Z" fill="#06D6A0"/>
<g opacity="0.2">
<path d="M110.329 125.811C110.381 125.186 110.226 124.561 109.888 124.032L109.219 122.846L107.892 123.597L108.615 124.87C108.974 125.506 108.827 125.898 108.381 126.148C107.935 126.399 107.522 126.333 107.163 125.697L105.612 122.944L103.948 123.271L105.721 126.399C106.532 127.829 107.707 128.237 109.083 127.487C109.302 127.361 109.504 127.209 109.687 127.035C109.609 126.856 109.596 126.655 109.648 126.467C109.701 126.279 109.816 126.115 109.975 126.001C110.082 125.919 110.201 125.855 110.329 125.811Z" fill="black"/>
<path d="M103.093 121.764L103.409 122.308H105.242L104.443 120.893C104.084 120.257 104.225 119.854 104.671 119.604C105.117 119.354 105.536 119.43 105.895 120.072L106.439 121.024L107.761 120.273L107.271 119.408C106.461 117.983 105.286 117.569 103.909 118.353C103.594 118.523 103.313 118.752 103.083 119.027C103.395 119.128 103.723 119.174 104.051 119.163L102.745 119.653C102.65 120.009 102.631 120.382 102.691 120.746C102.751 121.11 102.888 121.457 103.093 121.764Z" fill="black"/>
<path d="M113.261 115.964C113.435 115.877 113.617 115.806 113.805 115.752C114.507 115.437 114.664 114.425 114.605 113.712L113.881 112.815L111.933 113.903L113.152 116.046C113.184 116.013 113.221 115.986 113.261 115.964Z" fill="black"/>
<path d="M121.557 120.224L122.879 119.473L117.825 110.562L116.568 111.27C116.971 111.368 117.259 111.558 117.27 111.852C116.878 111.906 116.4 111.852 115.975 111.928L118.521 118.527L115.301 114.512C115.31 114.601 115.296 114.691 115.262 114.773C115.228 114.856 115.174 114.928 115.105 114.985C114.958 115.089 114.746 115.089 114.632 115.225C114.517 115.361 114.534 115.524 114.436 115.643C114.338 115.763 114.186 115.796 114.066 115.883C113.946 115.97 113.816 116.193 113.68 116.34C113.614 116.409 113.532 116.459 113.44 116.487L117.02 122.797L118.238 122.101L114.664 115.801L119.256 121.524L120.583 120.773L117.901 113.848L121.557 120.224Z" fill="black"/>
<path d="M124.902 112.467C124.999 112.515 125.085 112.582 125.155 112.664C125.225 112.747 125.278 112.842 125.31 112.945C125.425 112.273 125.279 111.583 124.902 111.014L124.244 109.85C123.434 108.425 122.308 108.038 120.904 108.833L118.842 110.002L123.901 118.918L125.212 118.173C124.788 117.907 124.315 117.678 123.912 117.39C123.723 117.269 123.568 117.102 123.461 116.906C123.41 116.806 123.389 116.694 123.401 116.583C123.412 116.472 123.456 116.367 123.526 116.28C123.618 116.202 123.731 116.152 123.85 116.136C123.969 116.12 124.091 116.137 124.201 116.187L123.401 114.773L124.065 114.398C124.429 114.2 124.747 113.925 124.995 113.593C124.717 113.152 124.233 112.216 124.902 112.467ZM123.341 113.152L122.677 113.527L120.964 110.508L121.628 110.133C122.074 109.883 122.433 109.948 122.792 110.584L123.553 111.923C123.912 112.532 123.787 112.875 123.341 113.152Z" fill="black"/>
<path d="M132.404 114.093L131.686 112.82L129.38 114.126L126.007 108.18L125.854 108.299C125.756 108.391 125.636 108.456 125.506 108.49C125.441 108.505 125.372 108.495 125.313 108.463C125.254 108.431 125.209 108.379 125.185 108.316C125.167 108.232 125.167 108.144 125.185 108.06C125.186 107.554 125.026 107.06 124.728 106.651L123.64 107.282L128.694 116.193L132.404 114.093Z" fill="black"/>
<path d="M131.773 110.976C131.925 110.579 132.399 110.432 132.665 110.073C132.689 110.036 132.711 109.998 132.731 109.959L132.187 109.045L133.563 108.267C133.538 108.18 133.493 108.1 133.432 108.033C133.235 107.936 133.024 107.87 132.807 107.837C132.773 107.769 132.756 107.695 132.757 107.619C132.759 107.544 132.778 107.47 132.813 107.403C132.849 107.336 132.9 107.279 132.962 107.237C133.025 107.194 133.096 107.167 133.171 107.157C133.264 107.157 133.372 107.157 133.443 107.114C133.493 107.054 133.518 106.978 133.514 106.901L133.389 106.684L131.463 107.772L130.06 105.291L132.475 103.915L131.751 102.642L127.943 104.818L131.686 111.417C131.693 111.266 131.722 111.118 131.773 110.976Z" fill="black"/>
<path d="M136.838 111.58L136.114 110.307L133.693 111.678L132.97 110.432L132.078 111.27L131.768 111.569L133.019 113.772L136.838 111.58Z" fill="black"/>
<path d="M135.037 101.228C135.037 101.418 134.901 101.63 134.716 101.647C134.622 101.645 134.529 101.631 134.439 101.603C134.271 101.606 134.103 101.59 133.938 101.554C133.903 101.539 133.87 101.519 133.84 101.494L132.241 102.403L132.964 103.681L134.428 102.849L138.78 110.465L140.178 109.671L135.826 102.055L137.295 101.222L136.571 99.9492L135.07 100.798C135.043 100.939 135.053 101.086 135.037 101.228Z" fill="black"/>
<path d="M141.146 106.624L142.234 108.544L143.703 107.712C143.738 107.616 143.781 107.523 143.834 107.435C144.157 106.962 144.593 106.577 145.101 106.314L145.776 105.895L145.33 105.101L142.909 106.477L141.429 103.866L143.355 102.778L142.631 101.505L140.706 102.593L139.302 100.096L141.723 98.7251L140.999 97.4521L137.191 99.6281L139.939 104.475C140.602 104.122 140.934 105.395 141.146 106.624Z" fill="black"/>
<path d="M112.972 124.228C113.201 124.266 113.337 124.494 113.516 124.647C113.582 124.707 113.657 124.755 113.74 124.788C113.844 124.747 113.945 124.699 114.044 124.647C115.415 123.869 115.703 122.628 114.898 121.198L114.817 121.056L112.934 121.007L113.549 122.095C113.908 122.732 113.767 123.134 113.321 123.385C112.875 123.635 112.456 123.553 112.097 122.917L109.377 118.102C109.012 117.466 109.159 117.069 109.605 116.813C110.051 116.557 110.465 116.644 110.829 117.281L112.673 120.545C113.239 120.405 113.82 120.332 114.403 120.327L112.276 116.579C111.471 115.154 110.258 114.768 108.882 115.546C107.505 116.323 107.217 117.569 108.028 118.995L110.655 123.629C110.821 123.987 111.069 124.3 111.379 124.543C111.69 124.786 112.053 124.952 112.439 125.027C112.436 124.995 112.436 124.962 112.439 124.93C112.374 124.576 112.635 124.163 112.972 124.228Z" fill="black"/>
<path d="M131.757 98.6435L136.027 96.2227C134.803 96.5599 133.726 97.5827 132.464 97.4412C132.236 97.3813 131.996 97.3813 131.768 97.4412C131.625 97.5332 131.522 97.6755 131.48 97.8399C131.438 98.0042 131.459 98.1785 131.539 98.3279C131.594 98.4441 131.668 98.5507 131.757 98.6435Z" fill="black"/>
<path d="M121.045 104.72C121.036 104.626 121.055 104.531 121.1 104.448C121.205 104.484 121.315 104.503 121.426 104.502L122.9 103.67C123.131 103.409 123.395 103.179 123.684 102.985C123.963 102.835 124.259 102.718 124.565 102.636L124.892 102.538L127.612 101.004C127.64 100.949 127.679 100.899 127.726 100.858C127.768 100.83 127.814 100.808 127.862 100.792L125.055 99.9436L124.299 100.368L124.217 100.966L120.98 102.696C120.66 102.896 120.303 103.031 119.93 103.093C119.791 103.11 119.651 103.11 119.511 103.093L114.898 105.71C114.935 105.929 114.997 106.142 115.083 106.346C114.813 106.296 114.555 106.191 114.327 106.036L113.38 106.58C114.055 107.026 114.719 107.483 115.366 107.968L121.045 104.72Z" fill="black"/>
<path d="M140.793 93.5244L138.562 92.2732L137.507 92.8716C138.129 93.5111 138.932 93.9441 139.808 94.1119L140.793 93.5244Z" fill="black"/>
<path d="M152.788 106.695L144.367 91.849C144.039 91.2749 143.498 90.8537 142.861 90.6774C142.224 90.501 141.543 90.5839 140.967 90.9079L139.955 91.4845L140.341 91.8599C140.744 92.2624 141.157 92.6704 141.532 93.1002L142.044 92.8119C142.115 92.7723 142.198 92.7621 142.277 92.7834C142.355 92.8048 142.422 92.856 142.463 92.9261L150.889 107.777C150.928 107.849 150.938 107.933 150.915 108.011C150.893 108.09 150.841 108.156 150.77 108.196L139.307 114.724C140.298 114.784 141.299 114.643 142.289 114.757C142.645 114.802 142.999 114.865 143.349 114.947L151.847 110.127C152.135 109.965 152.389 109.747 152.593 109.486C152.796 109.226 152.946 108.927 153.034 108.608C153.122 108.288 153.145 107.955 153.103 107.626C153.06 107.298 152.953 106.981 152.788 106.695Z" fill="black"/>
<path d="M101.184 125.588L97.2237 118.592C97.2032 118.557 97.19 118.518 97.1847 118.477C97.1793 118.437 97.1821 118.396 97.1927 118.356C97.2033 118.317 97.2216 118.28 97.2465 118.248C97.2714 118.215 97.3025 118.188 97.3379 118.168L108.762 111.683C108.724 111.596 108.675 111.509 108.642 111.422C108.804 111.415 108.965 111.434 109.121 111.477L113.74 108.86C113.587 108.811 113.44 108.751 113.293 108.697L111.117 107.832L109.377 108.822L111.27 109.981C110.612 109.578 109.268 109.524 108.109 109.54L96.288 116.269C95.7128 116.596 95.2907 117.137 95.1142 117.775C94.9378 118.412 95.0215 119.093 95.3469 119.669L98.785 125.729C98.9427 125.686 99.1059 125.648 99.2637 125.621C99.6995 125.558 100.14 125.536 100.58 125.555C100.782 125.554 100.984 125.565 101.184 125.588Z" fill="black"/>
<path d="M115.295 128.319C115.489 128.492 115.71 128.634 115.948 128.738C116.193 128.846 116.519 129.108 116.329 129.282C115.448 129.684 114.36 129.385 113.495 129.826C113.021 130.054 112.565 130.506 112.059 130.37C112.671 130.741 113.221 131.206 113.691 131.746L135.293 119.495C135.293 119.408 135.32 119.321 135.336 119.229C135.337 119.057 135.376 118.889 135.452 118.735C135.528 118.581 135.637 118.447 135.773 118.342C135.908 118.237 136.065 118.164 136.233 118.129C136.401 118.095 136.574 118.098 136.74 118.141C137.02 118.128 137.301 118.158 137.572 118.228L140.265 116.699C139.895 116.062 139.458 115.468 138.959 114.926L115.295 128.319Z" fill="black"/>
<path d="M111.797 131.914C111.276 131.746 110.796 131.469 110.388 131.104L106.08 133.552C106.045 133.572 106.006 133.585 105.966 133.591C105.926 133.596 105.886 133.593 105.847 133.583C105.808 133.572 105.771 133.554 105.739 133.529C105.707 133.504 105.681 133.473 105.661 133.438L101.853 126.763C101.488 126.637 101.1 126.592 100.716 126.632C100.276 126.719 99.8893 127.231 100.129 127.606C100.354 127.612 100.573 127.677 100.764 127.796C100.955 127.914 101.111 128.082 101.217 128.281C100.982 128.467 100.724 128.623 100.45 128.743L103.714 134.515C103.876 134.806 104.095 135.062 104.357 135.268C104.62 135.474 104.921 135.625 105.243 135.713C105.564 135.8 105.901 135.823 106.231 135.779C106.562 135.735 106.88 135.625 107.168 135.456L112.815 132.252L112.749 132.214C112.438 132.097 112.12 131.997 111.797 131.914Z" fill="black"/>
</g>
<path opacity="0.3" d="M87.3011 112.488C90.6195 114.925 93.3939 126.632 93.6441 137.365C93.8944 148.099 99.0841 166.197 99.7043 169.162C100.324 172.127 100.096 176.403 103.947 170.451C107.799 164.5 119.065 154.17 123.76 157.602C128.455 161.035 120.55 172.573 116.269 178.786C111.988 184.998 111.553 195.938 106.423 202.787C101.293 209.636 96.6579 219.977 91.6313 219.819C86.6048 219.662 53.312 244.359 53.312 244.359L53.9647 210.555L83.8848 161.595L87.3011 112.488Z" fill="black" fill-opacity="0.7"/>
<path d="M126.491 159.261C126.322 160.322 120.463 168.085 117.02 173.895C113.576 179.705 110.35 189.818 109.485 191.303C108.62 192.788 98.0614 202.063 95.1673 205.942C92.2733 209.821 87.1053 211.534 81.9427 215.19C78.6243 217.54 68.2829 229.666 61.3142 238.038C57.4409 242.689 54.6067 246.198 54.6067 246.198L10.0585 234.584C10.0585 234.584 13.7469 231.543 18.5993 227.441H18.632L18.6809 227.403C26.656 220.63 37.7699 211.072 40.8381 207.465C45.783 201.655 52.6701 194.752 52.6701 194.752C52.2512 186.684 53.1053 179.041 52.3491 176.136C51.9574 174.618 51.2611 165.985 50.7171 163.33C49.3952 156.547 43.6451 149.518 42.9977 146.749C42.3504 143.98 34.7616 132.192 38.4662 130.016C39.1397 129.592 39.9403 129.417 40.7293 129.521C45.7341 130.212 49.8576 142.299 52.6973 145.378C53.914 146.836 55.0162 148.386 55.9939 150.013C58.2352 153.566 60.4329 157.559 60.4329 157.559C61.2925 154.115 55.0528 141.848 53.3283 130.228C51.6038 118.608 46.6589 112.369 53.3283 111.65C53.8763 111.589 54.431 111.637 54.9603 111.792C59.655 113.163 61.6896 122.917 64.4966 132.382C64.7577 133.253 66.8957 139.503 68.5603 144.323C69.6483 147.478 70.5187 150.019 70.5187 150.019C70.7309 144.1 68.8867 138.595 68.5821 133.231C68.4515 131.082 69.1261 122.471 68.2774 113.865C67.5485 106.602 67.8803 103.659 70.72 103.088C71.3283 102.978 71.9483 102.949 72.5641 103.001C77.4873 103.311 79.2336 116.394 79.2336 121.497C79.2336 124.462 79.7395 130.25 80.1638 134.591C80.4739 137.73 80.7405 140.113 80.7405 140.113C80.7405 140.113 81.6 132.905 80.9581 117.357C80.8112 113.952 81.0342 111.514 82.3725 110.53C83.1068 109.986 84.1677 109.893 85.6909 110.307C89.9939 111.471 91.392 127.416 91.392 133.443C91.392 139.471 94.8355 149.796 95.4829 157.923C96.1302 166.05 98.9481 176.038 98.9481 176.038C98.9481 176.038 100.542 176.686 101.614 176.473C102.685 176.261 110.116 165.283 110.116 165.283C113.576 157.771 120.311 155.491 123.978 156.335C125.664 156.721 126.752 157.76 126.491 159.261Z" fill="white"/>
<path opacity="0.4" d="M126.491 159.261C126.322 160.322 120.463 168.085 117.02 173.895C113.576 179.705 110.35 189.818 109.485 191.303C108.62 192.788 98.0614 202.063 95.1673 205.942C92.2733 209.821 87.1053 211.534 81.9427 215.19C78.6243 217.54 68.2828 229.666 61.3142 238.038C62.0812 235.003 63.8003 231.124 68.2937 227.397C76.0947 220.918 76.5625 215.837 80.7568 211.534C84.951 207.231 92.3385 208.521 94.9932 203.374C97.648 198.228 106.907 193.474 108.843 188.953C110.78 184.432 106.907 183.475 110.35 178.035C113.794 172.595 117.134 171.273 116.644 169.14C116.155 167.008 114.708 163.777 117.694 161.084C119.56 159.408 121.753 157.303 123.994 156.335C125.664 156.721 126.752 157.76 126.491 159.261Z" fill="#06D6A0"/>
<path opacity="0.4" d="M70.6764 184.797C69.2457 184.079 70.3936 182.648 69.3872 181.457C68.3808 180.265 66.0851 187.957 65.5792 187.985C65.0732 188.012 63.5337 184.073 62.9244 183.682C62.3152 183.29 61.9561 184.938 61.0912 187.985C60.2262 191.031 57.0492 192.576 55.2051 194.752C53.3609 196.928 42.2688 208.76 39.5433 213.204C36.8179 217.649 19.9865 226.445 18.6809 227.392C26.6559 220.63 37.7699 211.072 40.838 207.465C45.783 201.655 52.67 194.752 52.67 194.752C52.2511 186.684 53.1052 179.041 52.3491 176.136C51.9574 174.618 51.2611 165.985 50.7171 163.33C49.3952 156.547 43.6451 149.518 42.9977 146.749C42.3503 143.98 34.7615 132.192 38.4662 130.016C39.1397 129.592 39.9402 129.417 40.7292 129.521C39.886 130.119 39.0646 130.979 39.8316 132.241C41.1971 134.45 42.6985 136.772 42.6985 139.215C42.6985 141.658 46.8601 145.096 48.4758 147.375C50.0915 149.654 48.5846 148.849 49.6617 151.972C50.7388 155.094 52.0281 154.442 52.67 157.597C53.312 160.752 56.9024 162.765 56.3312 166.698C55.76 170.631 58.0502 176.104 58.0502 176.104C58.0502 176.104 59.9161 170.8 59.2361 167.944C58.5561 165.088 59.3449 161.486 58.6921 160.518C58.1481 159.648 56.6576 153.74 55.9721 150.068C58.2134 153.62 60.4112 157.613 60.4112 157.613C61.2707 154.17 55.031 141.902 53.3065 130.282C51.582 118.663 46.6371 112.423 53.3065 111.705C53.8545 111.643 54.4092 111.692 54.9385 111.846C57.7836 117.161 55.8035 121.094 55.1724 123.401C54.4816 125.914 58.5942 132.366 59.2035 136.81C59.7475 140.961 60.8681 140.531 61.015 140.455C60.8899 140.57 59.8291 141.652 60.471 144.731C61.1401 147.995 65.911 155.747 65.911 157.912C65.911 160.077 65.5193 163.641 65.5193 164.696C65.5193 165.751 69.3273 172.812 69.7843 174.662C70.2412 176.512 69.6048 171.099 70.6438 169.222C71.6828 167.345 72.2323 160.795 72.3683 161.149C74.158 165.697 72.1126 185.504 70.6764 184.797Z" fill="#06D6A0"/>
<path opacity="0.4" d="M73.7609 136.185C72.5424 138.029 72.575 152.423 70.4969 152.472C69.4905 152.472 69.0009 148.855 68.5929 144.312C69.6809 147.467 70.5513 150.008 70.5513 150.008C70.7635 144.089 68.9193 138.584 68.6147 133.22C68.4841 131.071 69.1587 122.46 68.3101 113.854C67.5811 106.591 67.9129 103.648 70.7526 103.077C71.351 105.014 72.8198 107.298 73.1952 109.42C73.7065 112.347 72.7056 114.767 71.8461 115.132C70.9865 115.496 70.8397 117.384 71.9168 117.662C72.9939 117.939 71.9168 131.675 72.4173 133.438C72.9177 135.2 74.9849 134.368 73.7609 136.185Z" fill="#06D6A0"/>
<path opacity="0.4" d="M84.9401 120.072C82.7043 121.056 82.5846 122.819 81.9155 125.348C81.2463 127.878 82.8729 131.572 81.9155 137.376C80.958 143.181 84.4505 146.923 81.9155 153.419C79.3804 159.914 80.5718 147.979 80.1475 142.539C80.0013 139.889 80.0122 137.234 80.1801 134.586C80.4902 137.724 80.7567 140.107 80.7567 140.107C80.7567 140.107 81.6163 132.899 80.9743 117.352C80.8275 113.946 81.0505 111.509 82.3887 110.524C84.6844 112.608 86.8441 119.234 84.9401 120.072Z" fill="#06D6A0"/>
<path d="M54.6067 246.204C54.6067 246.204 76.7747 218.873 81.9427 215.195C87.1107 211.518 92.2787 209.815 95.1673 205.947C98.056 202.08 108.626 192.815 109.485 191.308C110.345 189.802 113.576 179.689 117.02 173.9C120.463 168.112 126.322 160.3 126.491 159.267C127.242 154.529 115.192 154.316 110.133 165.294C110.133 165.294 102.707 176.267 101.63 176.484C100.553 176.702 98.9644 176.049 98.9644 176.049C98.9644 176.049 96.1465 166.067 95.4992 157.934C94.8518 149.801 91.4083 139.465 91.4083 133.454C91.4083 127.443 90.0102 111.482 85.7072 110.318C81.4041 109.154 80.7513 112.102 80.9744 117.39C81.6163 132.937 80.7568 140.145 80.7568 140.145C80.7568 140.145 79.2499 126.638 79.2499 121.53C79.2499 116.421 77.5036 103.338 72.5804 103.034C68.0598 102.745 67.4288 105.286 68.2937 113.914C69.1587 122.541 68.4678 131.131 68.5984 133.28C68.9193 138.66 70.7744 144.16 70.535 150.068C70.535 150.068 64.9372 133.862 64.5075 132.42C61.3904 121.856 59.2307 110.976 53.312 111.629C46.6425 112.347 51.5929 118.587 53.312 130.206C55.031 141.826 61.2761 154.093 60.4166 157.537C60.4166 157.537 55.254 148.164 52.6809 145.357C49.4169 141.826 44.4883 126.442 38.4608 129.994C34.7561 132.17 42.3667 143.997 43.0086 146.766C43.6505 149.535 49.406 156.558 50.728 163.347C51.272 166.002 51.952 174.635 52.36 176.153C53.1161 179.058 52.262 186.701 52.6809 194.768C52.6809 194.768 45.7939 201.655 40.8489 207.465C35.904 213.275 10.0694 234.584 10.0694 234.584" stroke="#263238" stroke-linecap="round" stroke-linejoin="round"/>
<path d="M98.9645 176.044C99.9574 178.495 99.9574 181.236 98.9645 183.687" stroke="#263238" stroke-linecap="round" stroke-linejoin="round"/>
<path d="M100.776 176.501C101.394 176.954 101.851 177.592 102.083 178.322C102.315 179.053 102.308 179.838 102.065 180.564" stroke="#263238" stroke-linecap="round" stroke-linejoin="round"/>
<path d="M80.7568 140.107C80.7568 140.107 82.4813 152.266 81.7251 154.523" stroke="#263238" stroke-linecap="round" stroke-linejoin="round"/>
<path d="M70.535 150.008C70.7197 151.183 70.7197 152.38 70.535 153.555" stroke="#263238" stroke-linecap="round" stroke-linejoin="round"/>
<path d="M60.4221 157.537C60.4221 157.537 60.743 159.37 60.4221 159.8" stroke="#263238" stroke-linecap="round" stroke-linejoin="round"/>
<path d="M114.974 167.867C114.974 167.867 116.922 168.923 117.558 170.451" stroke="#263238" stroke-linecap="round" stroke-linejoin="round"/>
<path d="M70.6057 117.352C71.237 117.503 71.8962 117.494 72.5228 117.323C73.1493 117.153 73.7229 116.828 74.1907 116.378" stroke="#263238" stroke-linecap="round" stroke-linejoin="round"/>
<path d="M71.264 134.836C71.264 134.836 75.1373 136.125 76.5408 134.836" stroke="#263238" stroke-linecap="round" stroke-linejoin="round"/>
<path d="M83.8793 138.6C83.8793 138.6 86.4579 137.632 88.1824 138.17" stroke="#263238" stroke-linecap="round" stroke-linejoin="round"/>
<path d="M59.2361 142.044C59.2361 142.044 61.2816 139.351 62.8973 140.107" stroke="#263238" stroke-linecap="round" stroke-linejoin="round"/>
<path d="M50.8422 150.008C50.8422 150.008 49.0144 150.867 48.4758 151.781" stroke="#263238" stroke-linecap="round" stroke-linejoin="round"/>
<path d="M52.67 194.752C53.1185 194.249 53.5157 193.702 53.856 193.12C54.1769 192.472 53.7472 185.585 53.856 181.152" stroke="#263238" stroke-linecap="round" stroke-linejoin="round"/>
<path d="M75.2461 221.865C72.711 224.704 64.9372 229.851 61.8201 232.968" stroke="#263238" stroke-linecap="round" stroke-linejoin="round"/>
<path d="M85.4896 157.537C84.2003 161.198 85.5984 165.822 85.4896 167.873C85.3808 169.924 84.9456 179.297 84.9456 179.297" stroke="#263238" stroke-linecap="round" stroke-linejoin="round"/>
<path d="M73.761 157.537C72.0419 160.442 72.5805 164.315 73.119 166.241C73.6576 168.167 73.1789 176.033 73.1789 176.033" stroke="#263238" stroke-linecap="round" stroke-linejoin="round"/>
<path d="M55.2541 166.79C55.1116 168.685 55.4877 170.582 56.3421 172.279" stroke="#263238" stroke-linecap="round" stroke-linejoin="round"/>
<path d="M65.9056 161.089C64.9373 164.641 66.232 166.252 66.3408 166.79" stroke="#263238" stroke-linecap="round" stroke-linejoin="round"/>
<path opacity="0.3" d="M153.31 137.632L151.477 126.991C151.396 126.518 151.411 126.034 151.522 125.568C151.633 125.101 151.837 124.662 152.122 124.276C152.408 123.89 152.768 123.566 153.181 123.323C153.595 123.08 154.053 122.924 154.529 122.862L158.636 122.318C158.636 122.318 157.265 119.538 161.677 111.438C166.089 103.338 187.299 81.8229 203.38 117.966C219.46 154.11 234.154 227.762 234.154 227.762C234.154 227.762 190.748 177.213 189.366 174.624C187.985 172.034 174.771 173.585 171.719 166.638C168.667 159.691 162.259 139.868 162.259 139.868L157.298 140.548C156.385 140.671 155.46 140.436 154.717 139.893C153.973 139.349 153.469 138.539 153.31 137.632Z" fill="black" fill-opacity="0.7"/>
<path d="M191.564 113.217L183.236 114.729L171.659 116.835L156.498 119.593C156.207 119.646 155.909 119.642 155.62 119.579C155.331 119.517 155.057 119.398 154.814 119.23C154.57 119.062 154.363 118.847 154.203 118.599C154.043 118.35 153.934 118.072 153.881 117.781L150.552 99.4756C150.447 98.8886 150.579 98.284 150.918 97.7938C151.258 97.3036 151.777 96.9675 152.364 96.859L161.182 95.227L174.009 92.8987L187.43 90.4561C187.721 90.4027 188.019 90.4073 188.308 90.4695C188.597 90.5317 188.871 90.6504 189.114 90.8187C189.357 90.987 189.565 91.2016 189.725 91.4502C189.885 91.6989 189.994 91.9766 190.046 92.2676L193.376 110.573C193.433 110.866 193.431 111.167 193.371 111.459C193.311 111.752 193.193 112.029 193.024 112.275C192.856 112.521 192.64 112.731 192.389 112.893C192.138 113.055 191.858 113.165 191.564 113.217Z" fill="#06D6A0"/>
<mask id="mask0_10_2206" style="mask-type:luminance" maskUnits="userSpaceOnUse" x="150" y="90" width="44" height="30">
<path d="M191.564 113.217L183.236 114.729L171.659 116.835L156.498 119.593C156.207 119.646 155.909 119.642 155.62 119.579C155.331 119.517 155.057 119.398 154.814 119.23C154.57 119.062 154.363 118.847 154.203 118.599C154.043 118.35 153.934 118.072 153.881 117.781L150.552 99.4756C150.447 98.8886 150.579 98.284 150.918 97.7938C151.258 97.3036 151.777 96.9675 152.364 96.859L161.182 95.227L174.009 92.8987L187.43 90.4561C187.721 90.4027 188.019 90.4073 188.308 90.4695C188.597 90.5317 188.871 90.6504 189.114 90.8187C189.357 90.987 189.565 91.2016 189.725 91.4502C189.885 91.6989 189.994 91.9766 190.046 92.2676L193.376 110.573C193.433 110.866 193.431 111.167 193.371 111.459C193.311 111.752 193.193 112.029 193.024 112.275C192.856 112.521 192.64 112.731 192.389 112.893C192.138 113.055 191.858 113.165 191.564 113.217Z" fill="white"/>
</mask>
<g mask="url(#mask0_10_2206)">
<path opacity="0.3" d="M185.673 101.064L183.235 114.729L171.659 116.835C168.308 115.36 162.781 112.793 161.677 111.395C160.36 109.763 160.545 100.145 161.182 95.227L174.009 92.8987C178.53 96.0158 185.673 101.064 185.673 101.064Z" fill="black" fill-opacity="0.7"/>
<path opacity="0.3" d="M158.799 119.174L156.498 119.593C156.207 119.646 155.909 119.642 155.62 119.579C155.331 119.517 155.057 119.399 154.814 119.23C154.57 119.062 154.363 118.847 154.203 118.599C154.043 118.35 153.934 118.072 153.881 117.781L150.552 99.4757C150.447 98.8887 150.579 98.2841 150.918 97.7939C151.258 97.3037 151.777 96.9676 152.364 96.8591L154.659 96.4402C154.073 96.5486 153.554 96.8849 153.216 97.3754C152.877 97.8658 152.747 98.4705 152.853 99.0568L156.182 117.362C156.235 117.653 156.344 117.931 156.504 118.18C156.664 118.428 156.872 118.643 157.115 118.811C157.358 118.98 157.632 119.098 157.921 119.161C158.21 119.223 158.508 119.227 158.799 119.174Z" fill="black" fill-opacity="0.7"/>
</g>
<path d="M191.564 113.217L183.236 114.729L171.659 116.835L156.498 119.593C156.207 119.646 155.909 119.642 155.62 119.579C155.331 119.517 155.057 119.398 154.814 119.23C154.57 119.062 154.363 118.847 154.203 118.599C154.043 118.35 153.934 118.072 153.881 117.781L150.552 99.4756C150.447 98.8886 150.579 98.284 150.918 97.7938C151.258 97.3036 151.777 96.9675 152.364 96.859L161.182 95.227L174.009 92.8987L187.43 90.4561C187.721 90.4027 188.019 90.4073 188.308 90.4695C188.597 90.5317 188.871 90.6504 189.114 90.8187C189.357 90.987 189.565 91.2016 189.725 91.4502C189.885 91.6989 189.994 91.9766 190.046 92.2676L193.376 110.573C193.433 110.866 193.431 111.167 193.371 111.459C193.311 111.752 193.193 112.029 193.024 112.275C192.856 112.521 192.64 112.731 192.389 112.893C192.138 113.055 191.858 113.165 191.564 113.217Z" stroke="#263238" stroke-linecap="round" stroke-linejoin="round"/>
<path d="M189.09 89.4892L154.166 95.9039C152.947 96.1278 152.14 97.2975 152.364 98.5164L155.712 116.744C155.936 117.963 157.105 118.769 158.324 118.546L193.249 112.131C194.468 111.907 195.275 110.737 195.051 109.518L191.703 91.2909C191.479 90.072 190.309 89.2653 189.09 89.4892Z" stroke="#263238" stroke-width="0.996394" stroke-linecap="round" stroke-linejoin="round"/>
<path d="M188.113 91.6904L155.202 97.6714C154.611 97.7789 154.218 98.3452 154.326 98.9364L157.604 116.974C157.711 117.565 158.278 117.957 158.869 117.85L191.78 111.869C192.372 111.761 192.764 111.195 192.656 110.604L189.378 92.5663C189.271 91.9751 188.705 91.583 188.113 91.6904Z" stroke="#263238" stroke-linecap="round" stroke-linejoin="round"/>
<path d="M193.865 112.798L191.58 113.212C192.164 113.102 192.68 112.766 193.017 112.276C193.353 111.787 193.482 111.185 193.376 110.6L190.046 92.2948C189.994 92.0039 189.885 91.7261 189.725 91.4775C189.565 91.2288 189.357 91.0142 189.114 90.8459C188.871 90.6776 188.597 90.559 188.308 90.4967C188.019 90.4345 187.721 90.43 187.43 90.4833L189.731 90.0644C190.318 89.9597 190.922 90.0913 191.413 90.4307C191.903 90.7701 192.239 91.2897 192.347 91.876L195.677 110.182C195.782 110.769 195.65 111.373 195.31 111.863C194.971 112.354 194.452 112.69 193.865 112.798Z" stroke="#263238" stroke-linecap="round" stroke-linejoin="round"/>
<path d="M260.032 171.436L237.505 231.863C237.505 231.863 228.083 213.911 219.379 197.298C212.427 184.013 205.931 171.556 205.055 169.722C203.092 165.593 196.384 156.944 196.384 156.944C196.384 156.944 189.502 153.005 186.353 146.145C183.203 139.286 179.738 114.746 179.738 114.746C179.738 114.746 170.691 111.34 168.531 109.85C166.371 108.359 164.402 94.5851 164.402 93.0129C164.402 91.4408 166.578 88.291 166.578 88.291C166.578 88.291 166.094 85.9845 168.858 83.6561C169.761 82.9146 170.762 82.3014 171.833 81.8337H171.888C171.888 81.8337 171.529 76.6277 174.238 75.1099C174.367 75.0367 174.502 74.9731 174.64 74.9195C177.056 73.9893 184.976 72.787 184.976 72.787C186.096 71.8031 187.4 71.0506 188.811 70.5729C190.215 70.1867 197.918 71.9765 202.221 73.0373C203.951 73.4616 205.131 73.7662 205.131 73.7662C205.131 73.7662 212.41 74.0981 213.787 74.9195C214.747 75.5489 215.624 76.2964 216.398 77.1445L216.534 77.3022C216.534 77.3022 223.024 78.6513 224.4 81.0286C225.776 83.4059 226.364 95.1998 225.385 102.865C224.405 110.53 226.163 123.537 226.163 123.537C226.163 123.537 228.192 133.584 229.764 137.398C231.336 141.211 260.032 171.436 260.032 171.436Z" fill="white"/>
<path opacity="0.4" d="M219.379 197.298C212.427 184.013 205.931 171.556 205.055 169.722C203.092 165.593 196.384 156.944 196.384 156.944C196.384 156.944 189.502 153.005 186.353 146.145C183.203 139.286 179.738 114.746 179.738 114.746C179.738 114.746 170.691 111.34 168.531 109.85C166.371 108.359 164.402 94.5851 164.402 93.0129C164.402 91.4407 166.578 88.291 166.578 88.291C166.578 88.291 166.094 85.9844 168.858 83.6561C168.858 84.2763 168.858 85.3207 168.858 86.9636C168.792 90.0807 172.464 108.876 173.373 108.305C174.281 107.734 175.685 106.357 175.315 105.144C175.315 105.144 173.536 97.8491 171.855 81.8337H171.909C171.909 81.8337 171.55 76.6276 174.259 75.1099C173.793 76.2372 173.495 77.4266 173.373 78.6404C173.313 81.1755 176.327 102.897 177.507 103.447C178.688 103.996 181.68 101.102 181.68 101.102C181.68 101.102 180.657 94.9387 181.021 92.3111C181.021 92.3111 190.123 97.8599 190.395 104.159C190.422 104.85 192.168 114.724 192.168 114.724C192.168 114.724 184.34 129.63 192.331 143.23C192.331 143.23 188.268 140.792 187.299 136.919C187.299 136.919 186.119 148.31 194.513 154.327C194.513 154.327 200.535 148.414 206.481 147.663C206.481 147.663 206.589 148.055 202.607 151.194C198.625 154.333 198.087 155.731 198.087 155.731C198.087 155.731 202.395 151.379 205.839 151.194C205.839 151.194 202.286 155.301 202.395 156.16C202.504 157.02 212.552 174.199 216.207 186.184C217.698 191.189 218.715 194.801 219.379 197.298Z" fill="#06D6A0"/>
<path opacity="0.4" d="M191.167 83.2863C191.167 83.2863 194.067 85.4623 194.926 83.2863C195.42 82.1219 195.733 80.8893 195.856 79.6307C195.856 79.6307 196.972 79.1193 198.032 81.8067C199.093 84.494 209.728 85.1795 212.22 86.5558C214.711 87.9321 215.701 86.5558 215.701 86.5558C216.282 87.0327 216.68 87.6952 216.829 88.4316C216.977 89.1679 216.867 89.933 216.517 90.5977C215.31 93.0946 218.732 93.3177 220.059 91.479C221.386 89.6403 220.358 96.7395 217.078 97.463C217.078 97.463 217.17 100.564 215.06 102.691H216.849C216.849 102.691 212.084 106.472 210.816 106.678C209.549 106.885 215.533 109.001 214.423 109.447C213.313 109.893 210.169 109.855 210.169 109.855C210.169 109.855 212.204 111.264 212.22 112.194C212.236 113.125 211.257 113.826 210.816 113.049C210.376 112.271 206.861 101.13 205.11 97.0115C203.358 92.8934 196.123 89.6348 191.167 83.2863Z" fill="#06D6A0"/>
<path opacity="0.4" d="M216.392 77.1065C210.289 75.4364 202.101 73.0591 202.101 73.0591L202.216 72.9993C203.946 73.4236 205.126 73.7282 205.126 73.7282C205.126 73.7282 212.405 74.0601 213.781 74.8815C214.741 75.5109 215.618 76.2584 216.392 77.1065Z" fill="#06D6A0"/>
<path d="M207.808 86.708C202.499 85.62 198.707 90.157 198.707 90.157C198.707 90.157 203.984 94.9333 205.153 96.9842C206.323 99.0351 208.265 105.949 208.265 105.949C210.49 106.308 214.592 104.013 215.576 97.9199C216.561 91.8271 213.09 87.7906 207.808 86.708Z" fill="#06D6A0"/>
<path d="M237.505 231.864C237.505 231.864 207.041 173.851 205.055 169.722C203.07 165.593 196.384 156.944 196.384 156.944C196.384 156.944 189.502 153.005 186.353 146.145C183.203 139.286 179.738 114.746 179.738 114.746C179.738 114.746 170.691 111.34 168.531 109.85C166.371 108.359 164.402 94.5852 164.402 93.013C164.402 91.4408 166.578 88.2911 166.578 88.2911C166.578 88.2911 165.795 84.5647 171.888 81.8066C171.888 81.8066 171.496 76.1 174.64 74.8924C177.056 73.9621 184.976 72.7599 184.976 72.7599C186.096 71.776 187.4 71.0235 188.811 70.5458C190.775 70.0018 205.131 73.7391 205.131 73.7391C205.131 73.7391 212.41 74.0709 213.787 74.8924C214.793 75.5563 215.709 76.3481 216.512 77.2479C216.512 77.2479 223.002 78.597 224.378 80.9743C225.755 83.3516 226.342 95.1455 225.363 102.81C224.384 110.475 226.141 123.482 226.141 123.482C226.141 123.482 228.17 133.53 229.742 137.344C231.314 141.157 260.032 171.436 260.032 171.436" stroke="#263238" stroke-linecap="round" stroke-linejoin="round"/>
<path d="M211.714 113.946C211.714 113.946 210.338 113.652 208.57 107.162C206.802 100.672 206.334 97.6369 202.667 93.7908C200.067 91.0708 194.115 86.6264 191.167 83.2862C188.219 79.946 184.96 77.2478 182.414 79.315C180.379 80.947 179.052 85.1848 180.842 91.7236C183.143 100.123 190.4 104.121 190.4 104.121L192.173 114.686C192.173 114.686 184.476 130.103 193.153 144.655" stroke="#263238" stroke-linecap="round" stroke-linejoin="round"/>
<path d="M198.68 90.1571C198.68 90.1571 202.488 85.6256 207.781 86.7081C213.074 87.7907 216.512 91.8217 215.549 97.92C214.586 104.018 210.463 106.308 208.238 105.949" stroke="#263238" stroke-linecap="round" stroke-linejoin="round"/>
<path d="M184.96 72.749C184.165 74.7476 183.553 76.8142 183.132 78.9234" stroke="#263238" stroke-linecap="round" stroke-linejoin="round"/>
<path d="M181.74 94.052C181.74 94.052 182.196 100.77 183.143 102.832C184.09 104.894 185.662 106.569 186.347 109.224C187.033 111.879 187.136 116.008 187.332 116.601C187.528 117.194 188.665 117.346 188.665 117.346C190.297 117.384 190.955 116.536 191.896 115.241" stroke="#263238" stroke-linecap="round" stroke-linejoin="round"/>
<path d="M171.904 81.7957C171.904 81.7957 173.378 96.1464 174.559 102.245C175.739 108.343 177.823 109.224 181.244 111.193C184.666 113.163 186.554 117.177 186.853 117.781C187.152 118.385 188.273 118.45 188.273 118.45C188.931 118.396 189.566 118.177 190.119 117.815C190.672 117.453 191.125 116.959 191.439 116.378" stroke="#263238" stroke-linecap="round" stroke-linejoin="round"/>
<path d="M166.584 88.2803C166.214 88.8515 169.369 103.425 171.012 107.652C172.655 111.879 172.84 112.548 177.186 113.745C181.533 114.942 184.835 116.933 186.01 116.231" stroke="#263238" stroke-linecap="round" stroke-linejoin="round"/>
<path d="M196.77 80.218C196.77 80.218 199.028 85.6254 197.537 89.1831" stroke="#263238" stroke-linecap="round" stroke-linejoin="round"/>
<path d="M205.126 73.7283C208.826 75.1909 212.632 76.3676 216.512 77.248" stroke="#263238" stroke-linecap="round" stroke-linejoin="round"/>
<path d="M220.075 92.4146C220.075 92.4146 218.345 95.5752 215.723 96.2552" stroke="#263238" stroke-linecap="round" stroke-linejoin="round"/>
<path d="M215.718 88.9712C215.718 88.9712 215.098 90.6032 214.439 91.0547" stroke="#263238" stroke-linecap="round" stroke-linejoin="round"/>
<path d="M217.894 101.951C217.894 101.951 213.961 104.927 210.185 105.699" stroke="#263238" stroke-linecap="round" stroke-linejoin="round"/>
<path d="M208.57 107.168C208.57 107.168 210.202 109.23 214.439 109.426" stroke="#263238" stroke-linecap="round" stroke-linejoin="round"/>
<path d="M195.84 98.1429C195.84 98.1429 199.691 94.4437 201.889 94.955" stroke="#263238" stroke-linecap="round" stroke-linejoin="round"/>
<path d="M203.38 98.8936C203.38 98.8936 200.464 101.07 199.931 101.07" stroke="#263238" stroke-linecap="round" stroke-linejoin="round"/>
<path d="M173.356 110.432C173.356 110.432 174.325 110.611 175.081 109.442" stroke="#263238" stroke-linecap="round" stroke-linejoin="round"/>
<path d="M176.8 105.133C176.8 105.133 179.139 103.686 180.668 103.409" stroke="#263238" stroke-linecap="round" stroke-linejoin="round"/>
<path d="M197.407 154.202C197.891 153.772 202.411 150.117 205.208 148.822" stroke="#263238" stroke-linecap="round" stroke-linejoin="round"/>
<path d="M203.271 152.472C202.95 152.374 200.382 155.062 199.028 156.139" stroke="#263238" stroke-linecap="round" stroke-linejoin="round"/>
<path d="M204.544 160.442C204.544 160.442 213.156 176.762 215.092 183.29" stroke="#263238" stroke-linecap="round" stroke-linejoin="round"/>
<path d="M229.764 137.365C230.493 141.375 232.859 144.328 234.154 145.928" stroke="#263238" stroke-linecap="round" stroke-linejoin="round"/>
<path opacity="0.4" d="M202.618 88.2802C201.367 89.0527 202.684 91.5768 203.38 92.8661C204.076 94.1554 207.188 96.2063 207.835 98.1429C208.483 100.08 212.573 100.025 213.819 98.1429C215.065 96.2607 214.907 92.5016 211.513 89.6402C208.118 86.7787 204.397 87.1922 202.618 88.2802Z" fill="white"/>
<path d="M178.731 196.694C173.191 195.752 167.495 196.716 162.573 199.427C157.65 202.138 153.791 206.436 151.625 211.622C149.459 216.807 149.114 222.574 150.646 227.981C152.178 233.388 155.497 238.116 160.061 241.395" stroke="#263238" stroke-linecap="round" stroke-linejoin="round"/>
<path d="M189.094 201.03C186.788 199.364 184.212 198.109 181.478 197.32" stroke="#263238" stroke-linecap="round" stroke-linejoin="round"/>
<path d="M186.592 242.939C189.945 241.083 192.823 238.476 195.001 235.323C197.179 232.17 198.598 228.555 199.147 224.762C199.696 220.969 199.36 217.101 198.165 213.459C196.97 209.818 194.95 206.502 192.261 203.771" stroke="#263238" stroke-linecap="round" stroke-linejoin="round"/>
<path d="M187.794 250.784L189.274 252.09L186.967 244.185" stroke="#263238" stroke-linecap="round" stroke-linejoin="round"/>
<path d="M170.386 245.703C174.044 246.33 177.796 246.128 181.364 245.11L186.048 249.245" stroke="#263238" stroke-linecap="round" stroke-linejoin="round"/>
<path d="M164.685 244.017C165.614 244.417 166.566 244.76 167.536 245.045" stroke="#263238" stroke-linecap="round" stroke-linejoin="round"/>
<path d="M176.523 209.108C179.604 209.635 182.376 211.296 184.294 213.764C186.212 216.233 187.137 219.33 186.886 222.446C186.635 225.561 185.227 228.471 182.939 230.6C180.65 232.73 177.648 233.926 174.522 233.953C171.396 233.98 168.373 232.835 166.049 230.745C163.724 228.655 162.266 225.771 161.962 222.66C161.657 219.549 162.529 216.436 164.404 213.935C166.279 211.434 169.023 209.726 172.094 209.146" stroke="#263238" stroke-linecap="round" stroke-linejoin="round"/>
<path d="M172.094 235.106C168.471 234.489 165.241 232.457 163.115 229.459C160.989 226.461 160.141 222.741 160.757 219.118" stroke="#263238" stroke-linecap="round" stroke-linejoin="round"/>
<path d="M187.457 226.152C186.604 228.511 185.127 230.595 183.183 232.181C181.239 233.768 178.902 234.797 176.419 235.16" stroke="#263238" stroke-linecap="round" stroke-linejoin="round"/>
<path d="M161.824 215.658C163.228 212.604 165.695 210.164 168.764 208.794C171.833 207.423 175.296 207.214 178.508 208.206C181.719 209.198 184.461 211.323 186.223 214.186C187.984 217.049 188.645 220.455 188.083 223.769" stroke="#263238" stroke-linecap="round" stroke-linejoin="round"/>
<path d="M182.74 216.447L182.898 216.278" stroke="#263238" stroke-width="2" stroke-linecap="round" stroke-linejoin="round"/>
<path d="M180.521 218.84L181.625 217.649" stroke="#263238" stroke-width="2" stroke-linecap="round" stroke-linejoin="round"/>
<path d="M166.97 220.597L172.307 227.691L179.553 219.885" stroke="#263238" stroke-width="2" stroke-linecap="round" stroke-linejoin="round"/>
</svg>
